<svg width="87" height="87" viewBox="0 0 87 87" fill="none" xmlns="http://www.w3.org/2000/svg">
<path d="M43.8697 86.5567C42.2563 86.5567 40.6429 86.4646 39.0296 86.2803C38.5225 86.2343 38.1537 85.7736 38.1998 85.2669C38.2459 84.7602 38.7069 84.3917 39.214 84.4377C42.4868 84.8063 45.8518 84.7602 49.1246 84.3456C49.6317 84.2995 50.0926 84.622 50.1387 85.1287C50.1848 85.6354 49.8622 86.096 49.3551 86.1421C47.5574 86.4646 45.7135 86.5567 43.8697 86.5567ZM29.3033 83.9771C29.2111 83.9771 29.0728 83.9771 28.9806 83.931C25.7539 82.7333 22.6655 81.1671 19.7614 79.2324C19.3465 78.956 19.2083 78.3572 19.5309 77.9426C19.8075 77.528 20.4068 77.3898 20.8216 77.7123C23.5874 79.5549 26.5375 81.075 29.626 82.2266C30.0869 82.4109 30.3635 82.9176 30.1791 83.4243C30.0408 83.7467 29.6721 83.9771 29.3033 83.9771ZM59.0814 83.7468C58.7126 83.7468 58.3438 83.5164 58.2056 83.1479C58.0212 82.6872 58.2516 82.1345 58.7126 81.9502C61.801 80.7525 64.7051 79.1863 67.4248 77.2977C67.8396 77.0213 68.4389 77.1134 68.7155 77.528C68.992 77.9426 68.8998 78.5414 68.485 78.8178C65.627 80.7986 62.5847 82.4109 59.358 83.6546C59.2658 83.7467 59.1736 83.7468 59.0814 83.7468ZM12.6626 72.7373C12.4321 72.7373 12.1556 72.6452 11.9712 72.4148C9.66637 69.8352 7.63814 67.0252 5.97868 63.985C5.7482 63.5243 5.88649 62.9715 6.34745 62.7412C6.80841 62.5109 7.36156 62.6491 7.59204 63.1097C9.15931 66.0118 11.0953 68.7296 13.308 71.1711C13.6306 71.5396 13.6306 72.1384 13.2619 72.4609C13.0775 72.6912 12.8931 72.7373 12.6626 72.7373ZM75.5377 72.2766C75.3072 72.2766 75.1228 72.1845 74.9384 72.0463C74.5697 71.7238 74.5236 71.125 74.8462 70.7565C77.0127 68.269 78.9027 65.5512 80.47 62.603C80.7004 62.1424 81.2536 61.9581 81.7146 62.2345C82.1755 62.4648 82.3599 63.0176 82.0833 63.4783C80.47 66.5185 78.5339 69.3745 76.2291 72.0002C76.0447 72.1845 75.7682 72.2766 75.5377 72.2766ZM3.07463 55.0944C2.65977 55.0944 2.29099 54.818 2.1988 54.4035C1.32297 51.0868 0.862014 47.6319 0.815918 44.1771C0.815918 43.6704 1.23078 43.2558 1.73784 43.2558C2.2449 43.2097 2.65976 43.6704 2.65976 44.1771C2.70586 47.4938 3.16682 50.8104 3.99655 53.9889C4.13484 54.4956 3.81216 55.0023 3.3512 55.0944C3.25901 55.0944 3.16682 55.0944 3.07463 55.0944ZM84.8491 54.4956C84.7569 54.4956 84.7108 54.4956 84.6186 54.4496C84.1115 54.3114 83.835 53.8507 83.9272 53.344C84.7108 50.1655 85.1257 46.8488 85.1257 43.5322C85.1257 43.1176 85.1257 42.703 85.1257 42.2884C85.1257 41.7817 85.4944 41.3672 86.0015 41.3211C86.5086 41.3211 86.9234 41.6896 86.9695 42.1963C86.9695 42.6109 86.9695 43.0715 86.9695 43.5322C86.9695 46.987 86.5546 50.4419 85.7249 53.8046C85.6327 54.2192 85.264 54.4956 84.8491 54.4956ZM2.79805 35.0562C2.75196 35.0562 2.65977 35.0562 2.61367 35.0562C2.10661 34.9641 1.78394 34.4574 1.92223 33.9507C2.70586 30.588 3.85826 27.3173 5.42553 24.231C5.65601 23.7704 6.20916 23.5861 6.67012 23.8165C7.13108 24.0468 7.31547 24.5995 7.08499 25.0602C5.60991 28.0083 4.45751 31.1407 3.71997 34.3653C3.58168 34.7338 3.21292 35.0562 2.79805 35.0562ZM84.5264 33.1676C84.1115 33.1676 83.7428 32.8912 83.6506 32.4766C82.7748 29.2981 81.4841 26.2118 79.8707 23.3558C79.6402 22.8952 79.7785 22.3424 80.2395 22.112C80.7004 21.8817 81.2536 22.0199 81.4841 22.4806C83.1896 25.4748 84.5264 28.6993 85.4483 32.016C85.5866 32.5227 85.3101 33.0294 84.803 33.1676C84.6647 33.1676 84.5725 33.1676 84.5264 33.1676ZM11.7868 17.091C11.5563 17.091 11.3719 16.9988 11.1875 16.8606C10.8188 16.5382 10.7727 15.9394 11.0953 15.5709C13.3541 12.9452 15.8893 10.5958 18.7012 8.56898C19.1161 8.29259 19.6692 8.38472 19.9919 8.7993C20.2685 9.21388 20.1763 9.76668 19.7614 10.0891C17.0878 12.0239 14.6447 14.281 12.4782 16.7685C12.3399 16.9989 12.0634 17.091 11.7868 17.091ZM74.6618 15.663C74.4314 15.663 74.1548 15.5708 73.9704 15.3866C71.7117 12.9912 69.1764 10.8262 66.4107 9.02962C65.9958 8.75323 65.8575 8.20049 66.1341 7.73984C66.4107 7.32526 66.9638 7.18708 67.4248 7.46347C70.3288 9.35212 72.9563 11.6093 75.3533 14.0968C75.7221 14.4653 75.676 15.0641 75.3072 15.3866C75.1228 15.6169 74.8923 15.663 74.6618 15.663ZM28.1048 5.39055C27.736 5.39055 27.4134 5.1602 27.229 4.79168C27.0446 4.33104 27.2751 3.77827 27.736 3.59401C30.9167 2.3042 34.2817 1.38288 37.7389 0.92223C38.2459 0.8301 38.7069 1.19865 38.7991 1.70537C38.8913 2.21208 38.5225 2.67269 38.0155 2.76482C34.7426 3.22547 31.5159 4.10069 28.4736 5.34444C28.3353 5.34444 28.197 5.39055 28.1048 5.39055ZM57.8368 4.69958C57.7446 4.69958 57.6524 4.69953 57.5141 4.65347C54.3796 3.54791 51.1529 2.85695 47.8339 2.5345C47.3269 2.48843 46.9581 2.02781 47.0042 1.52109C47.0503 1.01438 47.5113 0.645841 48.0183 0.691906C51.4755 1.01436 54.8405 1.75142 58.1134 2.90304C58.5743 3.0873 58.8509 3.59401 58.6665 4.05466C58.5743 4.46924 58.2516 4.69958 57.8368 4.69958Z" fill="#ffffff"/>
<path d="M32.4378 65.1365C31.2854 61.912 30.1791 58.6875 29.0267 55.4629C32.2074 54.3574 35.388 53.2518 38.5225 52.1463L38.5686 52.1923C38.3843 52.6069 38.1999 53.0215 38.0155 53.4361C37.7389 54.081 37.4162 54.7259 37.1397 55.3708C37.0475 55.5551 37.0936 55.6472 37.2779 55.7854C38.4764 56.4303 39.721 56.8449 41.0578 57.1213C43.2704 57.5819 45.483 57.4898 47.6496 56.8909C50.1848 56.1539 52.3514 54.818 54.103 52.8833C55.0249 51.916 55.7625 50.8104 56.3617 49.6127C56.961 48.415 57.3297 47.1252 57.5602 45.7893C57.6524 45.1444 57.7446 44.4534 57.8368 43.8085C57.8829 43.4861 57.929 43.4861 58.2517 43.4861C60.1416 43.6243 62.0316 43.7625 63.9215 43.9007C64.3364 43.9467 64.3825 43.9468 64.3364 44.3153C64.1981 46.2961 63.8754 48.2308 63.2301 50.1194C62.0777 53.4822 60.1877 56.3381 57.5602 58.7335C54.7484 61.2671 51.4755 62.8793 47.7879 63.6164C46.5433 63.8928 45.2526 63.9389 44.008 63.9389C42.5329 63.9389 41.0117 63.8467 39.5827 63.5243C37.8311 63.1097 36.1255 62.5108 34.5122 61.6817C34.2817 61.5435 34.2356 61.5896 34.0973 61.8199C33.6363 62.7873 33.1293 63.8006 32.6683 64.768C32.5761 64.8601 32.4839 64.9523 32.4378 65.1365Z" fill="#ffffff"/>
<path d="M53.6882 25.659C54.2874 24.4153 54.8406 23.1715 55.4859 21.9277C55.7625 22.7108 55.993 23.4018 56.2695 24.1389C57.0993 26.4882 57.929 28.8375 58.7126 31.1868C58.8509 31.5553 58.897 31.5093 58.4822 31.6475C55.532 32.707 52.5358 33.7664 49.5856 34.8259C49.4934 34.872 49.3551 34.872 49.2168 34.9181C49.77 33.7664 50.2771 32.6609 50.8302 31.5092C50.4614 31.325 50.0927 31.0947 49.6778 30.9565C48.5715 30.4958 47.4652 30.0812 46.3128 29.8509C45.9901 29.8049 45.6674 29.7588 45.3448 29.7588C44.3767 29.7588 43.3626 29.7588 42.3946 29.7588C41.15 29.8048 40.0437 30.1734 38.8913 30.5879C35.6646 31.8317 33.2676 34.0428 31.6081 37.0831C30.9167 38.3268 30.5018 39.7088 30.2713 41.1368C30.133 41.966 30.0408 42.749 29.9487 43.5782C29.9487 43.6243 29.9487 43.6704 29.9026 43.7164C27.7821 43.394 25.6617 43.0715 23.4491 42.7491C23.8179 36.4843 26.3992 31.3711 31.2854 27.5016C34.4661 24.9681 38.1077 23.494 42.1641 23.2176C46.2206 23.0333 50.0466 23.7704 53.6882 25.659Z" fill="#ffffff"/>
</svg>
