<svg width="87" height="87" viewBox="0 0 87 87" fill="none" xmlns="http://www.w3.org/2000/svg">
<g clip-path="url(#clip0)">
<path d="M42.6891 50.3394C38.7709 50.3394 35.6364 47.1609 35.6364 43.2915C35.6364 39.422 38.817 36.2435 42.6891 36.2435C46.6072 36.2435 49.7418 39.422 49.7418 43.2915C49.7418 47.1609 46.6072 50.3394 42.6891 50.3394ZM42.6891 38.7311C40.1999 38.7311 38.1716 40.7579 38.1716 43.2454C38.1716 45.7329 40.1999 47.7598 42.6891 47.7598C45.1783 47.7598 47.2065 45.7329 47.2065 43.2454C47.2526 40.7579 45.2243 38.7311 42.6891 38.7311Z" fill="#ffffff"/>
<path d="M42.6891 50.5697C38.6787 50.5697 35.4059 47.2991 35.4059 43.2915C35.4059 39.2838 38.6787 36.0132 42.6891 36.0132C46.6994 36.0132 49.9723 39.2838 49.9723 43.2915C49.9723 47.2991 46.7455 50.5697 42.6891 50.5697ZM42.6891 36.4278C38.9092 36.4278 35.8668 39.5141 35.8668 43.2454C35.8668 46.9766 38.9553 50.063 42.6891 50.063C46.469 50.063 49.5113 46.9766 49.5113 43.2454C49.5113 39.5141 46.469 36.4278 42.6891 36.4278ZM42.6891 48.0362C40.0616 48.0362 37.9412 45.9172 37.9412 43.2915C37.9412 40.6658 40.0616 38.5468 42.6891 38.5468C45.3166 38.5468 47.437 40.6658 47.437 43.2915C47.437 45.9172 45.3166 48.0362 42.6891 48.0362ZM42.6891 38.9614C40.3382 38.9614 38.4021 40.8961 38.4021 43.2454C38.4021 45.5947 40.3382 47.5294 42.6891 47.5294C45.04 47.5294 46.976 45.5947 46.976 43.2454C46.976 40.8961 45.0861 38.9614 42.6891 38.9614Z" fill="#ffffff"/>
<path d="M59.2376 56.3278H42.5508V55.4526H41.2601V53.7943H59.1915C59.6064 53.7943 59.9751 53.4718 59.9751 53.0111V34.9537C59.9751 34.5391 59.6525 34.2167 59.1915 34.2167H51.2169C50.2489 34.2167 49.1426 33.6639 48.5894 32.8808L46.5151 30.0248C46.4229 29.9327 46.1002 29.7484 45.9619 29.7484H42.5508V27.2148H45.9619C46.976 27.2148 48.0824 27.8137 48.6355 28.5968L50.6637 31.3607C50.7559 31.4989 51.1247 31.6831 51.263 31.6831H59.2376C61.0354 31.6831 62.5565 33.1572 62.5565 34.9998V53.0572C62.5565 54.8077 61.0815 56.3278 59.2376 56.3278Z" fill="#ffffff"/>
<path d="M59.2376 56.5582H42.3203V55.6829H41.0297V53.5639H59.1915C59.4681 53.5639 59.7447 53.3336 59.7447 53.0112V34.9537C59.7447 34.6773 59.5142 34.4009 59.1915 34.4009H51.2169C50.2028 34.4009 49.0043 33.8021 48.405 32.9729L46.3307 30.1169C46.2846 30.0708 46.008 29.9326 45.9619 29.9326H42.3203V26.9384H45.9619C47.0682 26.9384 48.2206 27.5373 48.8199 28.4125L50.8481 31.1764C50.8942 31.2685 51.1708 31.4067 51.263 31.4067H59.2376C61.1736 31.4067 62.787 32.9729 62.787 34.9537V53.0112C62.787 54.9459 61.1736 56.5582 59.2376 56.5582ZM42.7813 56.0975H59.2376C60.9432 56.0975 62.326 54.7156 62.326 53.0112V34.9537C62.326 33.2493 60.9432 31.8674 59.2376 31.8674H51.263C51.0325 31.8674 50.6176 31.637 50.4794 31.4528L48.4511 28.6889C47.9441 27.9519 46.8839 27.3991 45.9619 27.3991H42.7813V29.472H45.9619C46.1924 29.472 46.6073 29.6563 46.6995 29.8405L48.7738 32.6965C49.327 33.4336 50.3411 33.9403 51.2169 33.9403H59.1915C59.7447 33.9403 60.2056 34.3549 60.2056 34.9537V53.0112C60.2056 53.5639 59.7908 54.0246 59.1915 54.0246H41.4906V55.2223H42.7813V56.0975Z" fill="#ffffff"/>
<path d="M42.6891 56.3278H26.0023C24.2045 56.3278 22.6833 54.8537 22.6833 53.0111V34.9537C22.6833 33.1572 24.1584 31.6371 26.0023 31.6371H33.9769C34.1152 31.6371 34.484 31.4528 34.5761 31.3146L36.5583 28.5507C37.1114 27.7216 38.2177 27.1688 39.2319 27.1688H42.643V29.7023H39.2319C39.0936 29.7023 38.7248 29.8405 38.6787 29.9787L38.6326 30.0248L36.6044 32.8347C36.0051 33.6178 34.8988 34.2167 33.9308 34.2167H25.9562C25.5413 34.2167 25.1725 34.5391 25.1725 34.9537V53.0111C25.1725 53.4257 25.4952 53.7942 25.9562 53.7942H43.8876V55.4525H42.5969V56.3278H42.6891Z" fill="#ffffff"/>
<path d="M42.9196 56.5582H26.0023C24.0662 56.5582 22.4529 54.9919 22.4529 53.0112V34.9537C22.4529 33.019 24.0201 31.4067 26.0023 31.4067H33.9769C34.0691 31.4067 34.3457 31.2685 34.3918 31.1764L36.3739 28.4125C36.9732 27.5373 38.1256 26.9384 39.2319 26.9384H42.8735V29.9326H39.2319C39.1397 29.9326 38.9092 30.0708 38.8631 30.1169L38.817 30.163L36.7888 32.9729C36.1434 33.8482 34.991 34.447 33.9308 34.447H25.9562C25.6796 34.447 25.403 34.6773 25.403 34.9998V53.0572C25.403 53.3336 25.6335 53.61 25.9562 53.61H44.2103V55.729H42.9196V56.5582ZM39.278 27.3991C38.356 27.3991 37.2958 27.9519 36.7888 28.6889L34.7605 31.4528C34.6223 31.637 34.2074 31.8674 33.9769 31.8674H26.0023C24.2967 31.8674 22.9138 33.2493 22.9138 34.9537V53.0112C22.9138 54.7156 24.2967 56.0975 26.0023 56.0975H42.4586V55.2223H43.7493V54.0246H26.0484C25.4952 54.0246 25.0343 53.61 25.0343 53.0112V34.9537C25.0343 34.4009 25.4491 33.9403 26.0484 33.9403H34.023C34.8988 33.9403 35.959 33.3875 36.5122 32.6505L38.5865 29.8405C38.7248 29.6563 39.1397 29.472 39.3702 29.472H42.5508V27.3991H39.278Z" fill="#ffffff"/>
<path d="M43.1039 86.7766C41.4906 86.7766 39.8772 86.6845 38.2638 86.5002C37.7568 86.4542 37.388 85.9935 37.4341 85.4868C37.4802 84.9801 37.9412 84.6116 38.4482 84.6576C41.721 85.0262 45.0861 84.9801 48.3589 84.5655C48.8659 84.5194 49.3269 84.8419 49.373 85.3486C49.4191 85.8553 49.0964 86.3159 48.5894 86.362C46.7916 86.6384 44.9478 86.7766 43.1039 86.7766ZM28.5376 84.197C28.4454 84.197 28.3071 84.197 28.2149 84.1509C24.9882 82.9532 21.8997 81.387 18.9957 79.4523C18.5808 79.1759 18.4425 78.5771 18.7652 78.1625C19.0418 77.7479 19.641 77.6097 20.0559 77.9322C22.8216 79.7747 25.7718 81.2949 28.8602 82.4465C29.3212 82.6308 29.5978 83.1375 29.4134 83.6442C29.2751 83.9667 28.9063 84.197 28.5376 84.197ZM58.3156 83.9667C57.9469 83.9667 57.5781 83.7363 57.4398 83.3678C57.2554 82.9072 57.4859 82.3544 57.9469 82.1701C61.0353 80.9724 63.9394 79.4062 66.659 77.5176C67.0739 77.2412 67.6731 77.3333 67.9497 77.7479C68.2263 78.1625 68.1341 78.7613 67.7192 79.0377C64.8613 81.0185 61.8189 82.6308 58.5922 83.8745C58.5 83.9206 58.4078 83.9667 58.3156 83.9667ZM11.8969 72.9572C11.6664 72.9572 11.3898 72.865 11.2054 72.6347C8.90062 70.0551 6.87239 67.2451 5.21293 64.2048C4.98245 63.7442 5.12074 63.1914 5.5817 62.9611C6.04266 62.7308 6.59581 62.869 6.82629 63.3296C8.39356 66.2317 10.3296 68.9495 12.5422 71.3909C12.8649 71.7595 12.8649 72.3583 12.4961 72.6808C12.3117 72.865 12.1273 72.9572 11.8969 72.9572ZM74.7719 72.4505C74.5415 72.4505 74.3571 72.3583 74.1727 72.2201C73.8039 71.8977 73.7578 71.2988 74.0805 70.9303C76.247 68.4428 78.1369 65.725 79.7042 62.7768C79.9347 62.3162 80.4879 62.1319 80.9488 62.4083C81.4098 62.6386 81.5942 63.1914 81.3176 63.6521C79.7042 66.6923 77.7682 69.5484 75.4634 72.1741C75.279 72.3583 75.0024 72.4505 74.7719 72.4505ZM2.30888 55.3143C1.89402 55.3143 1.52525 55.038 1.43305 54.6234C0.557228 51.3067 0.096267 47.8518 0.0501709 44.397C0.0501709 43.8903 0.465036 43.4757 0.972093 43.4757C1.47915 43.4757 1.89401 43.8903 1.89401 44.397C1.94011 47.7136 2.40108 51.0303 3.23081 54.2088C3.36909 54.7155 3.04642 55.2222 2.58546 55.3143C2.49326 55.3143 2.40108 55.3143 2.30888 55.3143ZM84.0833 54.6694C83.9911 54.6694 83.9451 54.6694 83.8529 54.6234C83.3458 54.4852 83.0692 54.0245 83.1614 53.5178C83.9451 50.3393 84.3599 47.0227 84.3599 43.706C84.3599 43.2914 84.3599 42.8768 84.3599 42.4622C84.3599 41.9555 84.7287 41.541 85.2357 41.4949C85.7428 41.4949 86.1577 41.8634 86.2038 42.3701C86.2038 42.7847 86.2038 43.2454 86.2038 43.706C86.2038 47.1609 85.7889 50.6157 84.9592 53.9785C84.867 54.393 84.4982 54.6694 84.0833 54.6694ZM2.0323 35.2301C1.98621 35.2301 1.89402 35.2301 1.84792 35.184C1.34087 35.0919 1.01819 34.5852 1.15648 34.0785C1.94011 30.7157 3.09251 27.4451 4.65978 24.3588C4.89026 23.8981 5.44341 23.7139 5.90437 23.9442C6.36533 24.1745 6.54972 24.7273 6.31924 25.1879C4.84417 28.1361 3.69176 31.2685 2.95423 34.493C2.81594 34.9537 2.44717 35.2301 2.0323 35.2301ZM83.7146 33.3875C83.2997 33.3875 82.9309 33.1111 82.8387 32.6965C81.9629 29.518 80.6722 26.4317 79.0589 23.5757C78.8284 23.115 78.9667 22.5623 79.4276 22.3319C79.8886 22.1016 80.4418 22.2398 80.6722 22.7004C82.3778 25.6947 83.7146 28.9192 84.6365 32.2359C84.7748 32.7426 84.4982 33.2493 83.9911 33.3875C83.899 33.3414 83.8068 33.3875 83.7146 33.3875ZM11.021 17.3109C10.7906 17.3109 10.6062 17.2187 10.4218 17.0805C10.053 16.7581 10.0069 16.1592 10.3296 15.7907C12.5883 13.165 15.1236 10.8157 17.9355 8.78887C18.3503 8.51249 18.9035 8.60462 19.2261 9.0192C19.5027 9.43378 19.4105 9.98655 18.9957 10.309C16.3221 12.2437 13.879 14.5009 11.7125 16.9884C11.5742 17.2187 11.2976 17.3109 11.021 17.3109ZM73.8961 15.8829C73.6656 15.8829 73.389 15.7907 73.2047 15.6065C70.946 13.2111 68.4107 11.0461 65.6449 9.24952C65.23 8.97313 65.0918 8.42035 65.3683 7.9597C65.6449 7.54512 66.1981 7.40692 66.659 7.68331C69.5631 9.57196 72.1906 11.8292 74.5875 14.3167C74.9563 14.6852 74.9102 15.284 74.5415 15.6065C74.3571 15.7907 74.1266 15.8829 73.8961 15.8829ZM27.3391 5.56434C26.9703 5.56434 26.6476 5.334 26.4632 4.96549C26.2788 4.50484 26.5093 3.95206 26.9703 3.7678C30.1509 2.47798 33.5159 1.55669 36.9731 1.09604C37.4802 1.00391 37.9412 1.37244 38.0334 1.87915C38.1255 2.38586 37.7568 2.84651 37.2497 2.93864C33.9769 3.39928 30.7502 4.27452 27.7078 5.51827C27.5695 5.56433 27.4312 5.56434 27.3391 5.56434ZM57.071 4.87336C56.9788 4.87336 56.8867 4.87336 56.7484 4.8273C53.6138 3.72174 50.3871 3.03077 47.0682 2.70831C46.5611 2.66225 46.1924 2.20159 46.2385 1.69488C46.2845 1.18817 46.7455 0.819654 47.2526 0.865719C50.7098 1.18817 54.0748 1.9252 57.3476 3.07682C57.8086 3.26108 58.0852 3.7678 57.9008 4.22845C57.8086 4.64303 57.4859 4.87336 57.071 4.87336Z" fill="#ffffff"/>
</g>
</svg>
