<svg width="87" height="87" viewBox="0 0 87 87" fill="none" xmlns="http://www.w3.org/2000/svg">
<g clip-path="url(#clip0)">
<path d="M43.7493 86.4685C42.1359 86.4685 40.5226 86.3764 38.9092 86.1921C38.4022 86.1461 38.0334 85.6854 38.0795 85.1787C38.1256 84.672 38.5865 84.3035 39.0936 84.3495C42.3664 84.7181 45.7314 84.672 49.0043 84.2574C49.5113 84.2113 49.9723 84.5338 50.0184 85.0405C50.0645 85.5472 49.7418 86.0079 49.2347 86.0539C47.437 86.3764 45.5931 86.4685 43.7493 86.4685ZM29.1829 83.8889C29.0907 83.8889 28.9525 83.8889 28.8603 83.8428C25.6335 82.6451 22.5451 81.0789 19.641 79.1442C19.2262 78.8678 19.0879 78.269 19.4106 77.8544C19.6871 77.4398 20.2864 77.3016 20.7013 77.6241C23.467 79.4667 26.4172 80.9868 29.5056 82.1384C29.9666 82.3227 30.2431 82.8294 30.0588 83.3361C29.9205 83.6586 29.5517 83.8889 29.1829 83.8889ZM58.9149 83.6586C58.5461 83.6586 58.1774 83.4282 58.0391 83.0597C57.8547 82.5991 58.0852 82.0463 58.5462 81.862C61.6346 80.6643 64.5386 79.0981 67.2583 77.2095C67.6732 76.9331 68.2724 77.0252 68.549 77.4398C68.8256 77.8544 68.7334 78.4532 68.3185 78.7296C65.4606 80.7104 62.4182 82.3227 59.1915 83.5664C59.1454 83.6586 59.0532 83.6586 58.9149 83.6586ZM12.5423 72.6491C12.3118 72.6491 12.0352 72.5569 11.8508 72.3266C9.546 69.747 7.51778 66.937 5.85832 63.8967C5.62784 63.4361 5.76613 62.8833 6.22709 62.653C6.68805 62.4227 7.2412 62.5609 7.47168 63.0215C9.03895 65.9236 10.975 68.6414 13.1876 71.0829C13.5103 71.4514 13.5103 72.0502 13.1415 72.3727C12.9571 72.603 12.7266 72.6491 12.5423 72.6491ZM75.4173 72.1884C75.1868 72.1884 75.0024 72.0963 74.8181 71.9581C74.4493 71.6356 74.4032 71.0368 74.7259 70.6683C76.8924 68.1808 78.7823 65.4629 80.3496 62.5148C80.5801 62.0541 81.1332 61.8699 81.5942 62.1463C82.0552 62.3766 82.2395 62.9294 81.963 63.39C80.3496 66.4303 78.4136 69.2863 76.1088 71.912C75.9244 72.0963 75.6478 72.1884 75.4173 72.1884ZM2.95426 55.0062C2.5394 55.0062 2.17063 54.7298 2.07844 54.3153C1.20261 50.9986 0.741653 47.5437 0.695557 44.0889C0.695557 43.5821 1.11042 43.1676 1.61748 43.1676C2.12454 43.1676 2.5394 43.5821 2.5394 44.0889C2.5855 47.4055 3.04645 50.7222 3.87618 53.9007C4.01447 54.4074 3.6918 54.9141 3.23084 55.0062C3.09255 55.0062 3.04645 55.0062 2.95426 55.0062ZM84.6826 54.4074C84.5904 54.4074 84.5443 54.4074 84.4521 54.3613C83.9451 54.2231 83.6685 53.7625 83.7607 53.2558C84.5443 50.0773 84.9592 46.7606 84.9592 43.444C84.9592 43.0294 84.9592 42.6148 84.9592 42.2002C84.9592 41.6935 85.328 41.2789 85.835 41.2329C86.3421 41.1868 86.757 41.6014 86.803 42.1081C86.803 42.5227 86.803 42.9833 86.803 43.3979C86.803 46.8528 86.3882 50.3076 85.5585 53.6704C85.5124 54.131 85.0975 54.4074 84.6826 54.4074ZM2.63159 34.968C2.58549 34.968 2.4933 34.968 2.4472 34.968C1.94015 34.8759 1.61747 34.3692 1.75576 33.8625C2.53939 30.4998 3.6918 27.2291 5.25907 24.1428C5.48955 23.6821 6.0427 23.4979 6.50366 23.7282C6.96462 23.9586 7.14901 24.5113 6.91853 24.972C5.44345 27.9201 4.29105 31.0525 3.55351 34.2771C3.46132 34.6456 3.09255 34.968 2.63159 34.968ZM84.36 33.0794C83.9451 33.0794 83.5763 32.803 83.4841 32.3884C82.6083 29.2099 81.3176 26.1236 79.7043 23.2676C79.4738 22.8069 79.6121 22.2542 80.073 22.0238C80.534 21.7935 81.0871 21.9317 81.3176 22.3923C83.0232 25.3866 84.36 28.6111 85.2819 31.9278C85.4202 32.4345 85.1436 32.9412 84.6365 33.0794C84.5443 33.0794 84.4521 33.0794 84.36 33.0794ZM11.6664 17.0488C11.4359 17.0488 11.2516 16.9567 11.0672 16.8185C10.6984 16.4961 10.6523 15.8972 10.975 15.5287C13.2337 12.903 15.769 10.5537 18.5808 8.52684C18.9957 8.25045 19.5489 8.34258 19.8715 8.75716C20.1481 9.17174 20.0559 9.72452 19.641 10.047C16.9675 11.9817 14.5244 14.2389 12.3579 16.7264C12.2196 16.9106 11.943 17.0488 11.6664 17.0488ZM74.5415 15.5747C74.311 15.5747 74.0344 15.4826 73.85 15.2983C71.5913 12.903 69.0561 10.7379 66.2903 8.9414C65.8754 8.66501 65.7371 8.11224 66.0137 7.65159C66.2903 7.23701 66.8434 7.09883 67.3044 7.37522C70.2085 9.26387 72.8359 11.521 75.2329 14.0085C75.6017 14.3771 75.5556 14.9759 75.1868 15.2983C75.0025 15.5287 74.772 15.5747 74.5415 15.5747ZM27.9844 5.3023C27.6157 5.3023 27.293 5.07195 27.1086 4.70343C26.9242 4.24278 27.1547 3.69002 27.6157 3.50576C30.7963 2.21594 34.1613 1.29465 37.6185 0.834004C38.1256 0.741875 38.5865 1.1104 38.6787 1.61711C38.7709 2.12383 38.4021 2.58447 37.8951 2.6766C34.6223 3.13725 31.3956 4.01247 28.3532 5.25622C28.2149 5.25622 28.0766 5.3023 27.9844 5.3023ZM57.7164 4.61133C57.6242 4.61133 57.532 4.61131 57.3937 4.56524C54.2592 3.45969 51.0325 2.76873 47.7136 2.44627C47.2065 2.40021 46.8377 1.93955 46.8838 1.43284C46.9299 0.926128 47.3909 0.557615 47.8979 0.60368C51.3552 0.926134 54.7202 1.66317 57.993 2.81479C58.454 2.99905 58.7305 3.50576 58.5462 3.96641C58.454 4.38099 58.0852 4.61133 57.7164 4.61133Z" fill="#444444"/>
<path d="M40.246 41.6475C40.246 41.4632 40.246 41.325 40.246 41.1868C40.246 34.1389 40.246 27.0449 40.246 19.997C40.246 19.8588 40.246 19.7206 40.246 19.5824C40.3382 19.2139 40.6148 18.9375 40.9835 18.9375C43.4266 18.9375 45.8236 18.9375 48.2667 18.9375C48.7277 18.9375 49.0043 19.26 49.0504 19.7206C49.0504 19.8127 49.0504 19.9049 49.0504 19.997C49.0504 27.0449 49.0504 34.0929 49.0504 41.1408C49.0504 41.279 49.0504 41.4172 49.0504 41.6014C49.1886 41.6014 49.2808 41.6014 49.373 41.6014C50.7098 41.6014 52.0466 41.6014 53.3373 41.6014C53.9365 41.6014 54.3053 42.0621 54.167 42.5688C54.1209 42.707 54.0287 42.8452 53.9366 42.9373C51.0325 45.8394 48.1284 48.7415 45.2244 51.6436C44.8095 52.0582 44.3947 52.0121 44.0259 51.6436C41.1218 48.7415 38.2639 45.8394 35.3598 42.9834C35.0832 42.707 34.991 42.4306 35.1293 42.0621C35.2676 41.6936 35.5903 41.6014 35.9591 41.6014C37.2498 41.6014 38.5865 41.6014 39.8772 41.6014C40.0155 41.6475 40.1077 41.6475 40.246 41.6475ZM44.6712 49.9853C46.9299 47.7281 49.2347 45.4248 51.5395 43.1216C51.4935 43.1216 51.4013 43.1216 51.3091 43.1216C50.341 43.1216 49.3269 43.1216 48.3589 43.1216C47.9441 43.1216 47.6214 42.8452 47.5753 42.4306C47.5753 42.2924 47.5753 42.2003 47.5753 42.0621C47.5753 35.0142 47.5753 27.9662 47.5753 20.9644C47.5753 20.8262 47.5753 20.688 47.5753 20.5498C45.6392 20.5498 43.7493 20.5498 41.8133 20.5498C41.8133 20.734 41.8133 20.8722 41.8133 21.0104C41.8133 28.0584 41.8133 35.0602 41.8133 42.1081C41.8133 42.2003 41.8133 42.2924 41.8133 42.3845C41.8133 42.9373 41.5367 43.2137 40.9835 43.2137C40.0155 43.2137 39.0475 43.2137 38.0795 43.2137C37.9873 43.2137 37.8951 43.2137 37.8029 43.2137C40.1077 45.4709 42.4125 47.7741 44.6712 49.9853Z" fill="#444444"/>
<path d="M44.6712 52.4267C44.3485 52.4267 44.0258 52.2885 43.7492 52.0121L41.214 49.4785C39.1857 47.4517 37.1114 45.3787 35.0832 43.3519C34.5761 42.8452 34.6222 42.2924 34.7605 41.9699C34.8988 41.6014 35.2215 41.2329 36.0051 41.2329C36.927 41.2329 37.895 41.2329 38.817 41.2329H39.8311V20.0891C39.8311 19.9049 39.8311 19.7667 39.8772 19.5824C39.9694 18.9836 40.4764 18.569 41.0757 18.569C43.5188 18.569 45.9158 18.569 48.3588 18.569C49.0503 18.569 49.5574 19.0757 49.6034 19.7667C49.6034 19.8588 49.6034 19.9049 49.6034 19.997V20.0891V41.2329H50.6637C51.5856 41.2329 52.5536 41.2329 53.4755 41.2329C53.9365 41.2329 54.3052 41.4172 54.5818 41.7396C54.8123 42.016 54.8584 42.4306 54.7662 42.7991C54.7201 42.9834 54.5818 43.2137 54.3974 43.3979C51.4934 46.3 48.5893 49.2021 45.6853 52.1042C45.3165 52.2885 44.9938 52.4267 44.6712 52.4267ZM35.959 42.1081C35.6363 42.1081 35.6363 42.2003 35.5902 42.2924C35.5441 42.3845 35.5441 42.5227 35.7285 42.707C37.7568 44.7338 39.8311 46.8068 41.8593 48.8336L44.3946 51.3672C44.6251 51.5975 44.7634 51.5514 44.9477 51.3672C47.8518 48.4651 50.7558 45.563 53.6599 42.6609C53.706 42.6148 53.7521 42.5227 53.7982 42.4766C53.8443 42.3845 53.7982 42.2924 53.7521 42.2463C53.706 42.1542 53.5677 42.1081 53.3833 42.1081C52.4614 42.1081 51.4934 42.1081 50.5715 42.1081H48.5893V19.9509C48.5893 19.9049 48.5893 19.8588 48.5893 19.7667C48.5893 19.4903 48.4049 19.4442 48.2667 19.4442C45.8236 19.4442 43.4266 19.4442 40.9835 19.4442C40.7991 19.4442 40.7069 19.5363 40.7069 19.6745C40.7069 19.7667 40.7069 19.8588 40.7069 19.9509V42.0621H38.7709C37.849 42.1081 36.927 42.1081 35.959 42.1081ZM44.6712 50.6762L36.6966 42.707H38.9553C39.6467 42.707 40.3381 42.707 40.9835 42.707C41.2601 42.707 41.3522 42.6148 41.3522 42.3385C41.3522 42.2924 41.3522 42.2003 41.3522 42.1542V42.0621V20.0431H48.0362V42.1542C48.0362 42.2463 48.0362 42.2924 48.0362 42.3845C48.0362 42.5688 48.1284 42.6609 48.3588 42.6609C49.0503 42.6609 49.7417 42.6609 50.4793 42.6609H52.6919L44.6712 50.6762ZM38.9092 43.5822L44.6712 49.3403L50.4332 43.5822C49.7417 43.5822 49.0503 43.5822 48.3588 43.5822C47.7135 43.5822 47.2064 43.1215 47.1603 42.4766C47.1603 42.3845 47.1603 42.2463 47.1603 42.1542V42.0621V20.9644H42.3203V42.1081C42.3203 42.2003 42.3203 42.2463 42.3203 42.3385C42.3203 43.1216 41.8132 43.5822 41.0296 43.5822C40.292 43.5822 39.6006 43.5822 38.9092 43.5822Z" fill="#444444"/>
<path d="M22.1762 59.0139C37.2036 59.0139 52.1848 59.0139 67.2121 59.0139C67.2121 58.8758 67.2121 58.7836 67.2121 58.6454C67.2121 54.4535 67.2121 50.2616 67.2121 46.1158C67.2121 45.9776 67.2121 45.8394 67.2582 45.7012C67.3504 45.3327 67.6731 45.1484 68.088 45.1945C68.4567 45.2406 68.7333 45.5169 68.7333 45.9315C68.7333 46.1618 68.7333 46.3461 68.7333 46.5764C68.7333 50.9526 68.7333 55.3288 68.7333 59.7049C68.7333 60.3959 68.5028 60.6262 67.8114 60.6262C52.4153 60.6262 37.0192 60.6262 21.6231 60.6262C20.9317 60.6262 20.7012 60.3959 20.7012 59.7049C20.7012 55.1906 20.7012 50.6301 20.7012 46.1158C20.7012 45.563 20.9778 45.2405 21.4387 45.2405C21.8536 45.2405 22.2223 45.5169 22.2223 45.9776C22.2223 46.0697 22.2223 46.1619 22.2223 46.2079C22.2223 50.3998 22.2223 54.5457 22.2223 58.7376C22.1762 58.7376 22.1762 58.8758 22.1762 59.0139Z" fill="#444444"/>
<path d="M67.7653 60.9947H21.577C20.6551 60.9947 20.1941 60.5341 20.1941 59.6128V46.0237C20.1941 45.2406 20.6551 44.7339 21.3465 44.6878C22.0379 44.6878 22.5911 45.1485 22.6372 45.8394C22.6372 45.9316 22.6372 45.9776 22.6372 46.0697V46.1619V58.5993H66.7511V56.895C66.7511 53.3019 66.7511 49.7088 66.7511 46.1619C66.7511 45.9776 66.7511 45.7934 66.7972 45.6091C66.9816 45.0563 67.4887 44.6878 68.0879 44.7339C68.6872 44.7799 69.102 45.2866 69.1481 45.8855C69.1481 46.0237 69.1481 46.2079 69.1481 46.3461V46.5304V59.6589C69.1481 60.5341 68.6872 60.9947 67.7653 60.9947ZM21.3926 45.6091C21.3004 45.6091 21.116 45.6091 21.116 46.0237V59.6128C21.116 60.0274 21.1621 60.0734 21.577 60.0734H67.7653C68.1801 60.0734 68.2262 60.0274 68.2262 59.6128V46.3001C68.2262 46.1619 68.2262 46.0237 68.2262 45.8855C68.2262 45.7473 68.134 45.6091 67.9957 45.6091C67.9035 45.6091 67.7191 45.6091 67.673 45.7933C67.673 45.8855 67.627 45.9776 67.627 46.1158C67.627 49.7089 67.627 53.3019 67.627 56.8489V59.4746H21.6692V46.0237C21.6692 45.9776 21.6692 45.9315 21.6692 45.8855C21.6692 45.7012 21.577 45.6091 21.3926 45.6091Z" fill="#444444"/>
</g>
</svg>
