<svg width="46" height="45" viewBox="0 0 46 45" fill="none" xmlns="http://www.w3.org/2000/svg">
<g filter="url(#filter0_b)">
<path d="M40.4788 36.2216C40.1716 36.6126 39.8644 37.0036 39.5293 37.3387C39.4455 37.3666 39.3338 37.3666 39.25 37.3666C38.0772 37.3666 36.9322 37.3666 35.7593 37.3666C35.6476 37.3666 35.5359 37.3666 35.4521 37.3387C35.4242 37.3107 35.3963 37.3107 35.3684 37.2549C35.3125 37.1432 35.3125 37.0315 35.3125 36.9198C35.3125 35.4676 35.3125 34.0434 35.3125 32.5913C35.3125 32.4796 35.3125 32.3958 35.3404 32.312C35.3404 32.2841 35.3684 32.2562 35.3963 32.2282C35.5359 32.1444 35.7035 32.1724 35.8431 32.1724C37.1835 32.1724 38.5519 32.1724 39.8923 32.1724C40.3112 32.1724 40.3112 32.1724 40.3112 31.7535C40.3112 30.4131 40.3112 29.0726 40.3112 27.7322C40.3112 27.5925 40.3112 27.4529 40.3392 27.3133C40.3671 27.2574 40.395 27.2295 40.4509 27.2295C40.4788 27.2574 40.5067 27.2854 40.5067 27.3133C40.5346 27.3971 40.5346 27.4808 40.5346 27.5646C40.5346 29.0726 40.5346 30.5527 40.5346 32.0607C40.5346 32.1445 40.5346 32.2003 40.5067 32.2841C40.4509 32.9822 40.4509 33.6525 40.5067 34.3506C40.5346 34.937 40.5626 35.5793 40.4788 36.2216Z" fill="#0B96A6"/>
<path d="M6.24177 37.2828C5.85081 36.8918 5.48777 36.445 5.18059 35.9982C5.06889 35.7748 5.06889 35.5235 5.09681 35.3001C5.18059 34.4344 5.12474 33.5407 5.15266 32.6471C5.15266 32.5075 5.12474 32.3678 5.20852 32.2282C5.34814 32.1165 5.48778 32.1444 5.65533 32.1444C6.99577 32.1444 8.30828 32.1444 9.64873 32.1444C9.87213 32.1444 10.0955 32.1444 10.1514 31.8373C10.1514 31.8093 10.2072 31.7814 10.2352 31.8093C10.3189 31.8931 10.3189 32.0048 10.3189 32.1165C10.291 33.7362 10.3189 35.328 10.3189 36.9477C10.3189 37.0594 10.3189 37.1432 10.291 37.2269C10.2631 37.2549 10.2631 37.2828 10.2352 37.3107C10.1235 37.3666 9.98384 37.3666 9.84421 37.3666C8.81095 37.3666 7.74977 37.3666 6.71651 37.3666C6.52103 37.3666 6.3814 37.3666 6.24177 37.2828Z" fill="#C1215D"/>
<path d="M39.1943 7.12289C39.6132 7.5697 40.0041 8.04444 40.3951 8.51918C40.423 8.54711 40.451 8.60295 40.4789 8.63088C40.5347 9.02184 40.5347 9.38488 40.4789 9.77585C40.423 10.4181 40.4789 11.0884 40.451 11.7307C40.451 11.8703 40.4789 12.0099 40.3672 12.1495C40.2555 12.2333 40.1438 12.2054 40.0321 12.2054C38.5799 12.2054 37.1557 12.2054 35.7036 12.2054C35.5919 12.2054 35.4801 12.2054 35.3684 12.1216C35.2847 12.0378 35.2847 11.8982 35.2847 11.7865C35.2847 10.3064 35.2847 8.82636 35.2847 7.37421C35.2847 7.29044 35.2847 7.20667 35.3126 7.12289C35.3405 7.09496 35.3405 7.06704 35.3684 7.03912C35.5081 6.98326 35.6477 6.98326 35.7873 6.98326C36.7089 6.98326 37.6025 6.98326 38.5241 6.98326C38.8033 6.98326 38.9988 7.01119 39.1943 7.12289Z" fill="#8AD1DE"/>
<path d="M5.15263 8.82636C5.40396 8.40747 5.73907 8.07236 6.04625 7.70933C6.21381 7.51385 6.38136 7.29045 6.60477 7.12289C6.7444 7.03911 6.88403 6.98326 7.05158 6.98326C8.00106 6.98326 8.95054 6.98326 9.90002 6.98326C9.9838 6.98326 10.0676 6.98325 10.1514 7.01118C10.1793 7.03911 10.2072 7.0391 10.2351 7.09495C10.291 7.23458 10.291 7.34629 10.291 7.48592C10.291 8.88222 10.291 10.2785 10.291 11.6748C10.291 11.8144 10.3189 11.982 10.2072 12.1216C10.1234 12.2054 9.9838 12.2054 9.8721 12.2054C8.39203 12.2054 6.91195 12.2054 5.45981 12.2054C5.37603 12.2054 5.29225 12.2054 5.20848 12.1775C5.18055 12.1495 5.15263 12.1495 5.1247 12.1216C5.06885 12.0099 5.06885 11.8703 5.06885 11.7307C5.06885 10.9208 5.06885 10.1389 5.06885 9.32902C5.06885 9.13354 5.09677 8.96599 5.15263 8.82636Z" fill="#F38FB0"/>
<path d="M35.3963 40.9411C35.0612 41.1924 34.7261 41.3879 34.3631 41.6113C33.9163 41.8906 33.4415 42.1419 32.9668 42.3653C32.2966 42.4491 31.6543 42.4212 30.984 42.3932C30.8444 42.3374 30.7048 42.3653 30.5651 42.3653C30.3697 42.3653 30.2859 42.2815 30.2859 42.0861C30.2859 40.5501 30.2859 39.0142 30.2859 37.4783C30.2859 37.3945 30.3138 37.3387 30.3417 37.2828C30.4534 37.199 30.5931 37.199 30.7327 37.199C32.1569 37.199 33.5811 37.199 35.0054 37.199C35.145 37.199 35.2846 37.1711 35.3963 37.2828H35.4242C35.508 37.3666 35.508 37.5062 35.508 37.6179C35.508 38.5953 35.508 39.6006 35.508 40.578C35.4801 40.7177 35.4801 40.8294 35.3963 40.9411Z" fill="#1278BA"/>
<path d="M12.8604 42.3932C11.9389 41.9464 11.0452 41.4158 10.2354 40.8294C10.1795 40.7456 10.1516 40.6339 10.1516 40.5222C10.1516 39.5448 10.1516 38.5674 10.1516 37.59C10.1516 37.4783 10.1516 37.3945 10.2354 37.3107H10.2633C10.2912 37.2828 10.3192 37.2549 10.3471 37.2549C10.4588 37.2269 10.5705 37.227 10.6543 37.227C12.0506 37.227 13.4748 37.227 14.8711 37.227C15.0107 37.227 15.1503 37.199 15.29 37.3107C15.3737 37.3945 15.3737 37.5341 15.3737 37.6458C15.3737 39.1259 15.3737 40.578 15.3737 42.0581C15.3737 42.1419 15.3737 42.2257 15.3458 42.3095C15.3458 42.3374 15.3179 42.3653 15.29 42.3932C15.2341 42.4212 15.1503 42.4491 15.0945 42.4491C14.3126 42.4212 13.5865 42.477 12.8604 42.3932Z" fill="#6B308E"/>
<path d="M40.451 27.2574C40.451 27.2295 40.451 27.2295 40.451 27.2016C40.3672 27.1178 40.3672 26.9782 40.3672 26.8665C40.3672 26.5314 40.3672 26.1683 40.3672 25.8332C40.3951 24.772 40.3114 23.7108 40.3114 22.6497C40.3114 22.51 40.2834 22.3704 40.3672 22.2308C40.3951 22.2029 40.4231 22.1749 40.451 22.1749C40.5627 22.147 40.6744 22.147 40.7861 22.147C42.1265 22.147 43.439 22.147 44.7795 22.147C44.8353 22.147 44.8912 22.147 44.975 22.147C45.1705 22.147 45.2822 22.2308 45.2542 22.4263C45.2263 22.7055 45.2822 22.9848 45.2263 23.264C45.2263 24.1577 45.1146 25.0513 44.975 25.9449C44.9191 26.3917 44.8074 26.8106 44.7236 27.2574C44.7236 27.3133 44.7236 27.3412 44.6678 27.3691C44.0813 27.3133 43.467 27.3412 42.8805 27.3412C42.1824 27.3412 41.5122 27.3412 40.814 27.3412C40.7023 27.3412 40.5627 27.3412 40.451 27.2574Z" fill="#009689"/>
<path d="M45.2263 23.2361C45.2263 22.9848 45.2263 22.7334 45.2263 22.4821C45.2263 22.2029 45.2263 22.2029 44.947 22.2029C44.2768 22.2029 43.5787 22.2029 42.9084 22.2029C42.0986 22.2029 41.2608 22.2029 40.451 22.2029C40.3672 22.0911 40.3672 21.9795 40.3672 21.8398C40.3672 20.3877 40.3672 18.9355 40.3672 17.4834C40.3672 17.3717 40.3672 17.26 40.423 17.1483C40.5347 17.0645 40.6744 17.0645 40.814 17.0645C41.959 17.0645 43.1039 17.0645 44.2489 17.0645C44.3885 17.0645 44.5281 17.0366 44.6398 17.1483C44.7795 17.6509 44.8632 18.1815 44.975 18.6842C45.1704 19.8571 45.2542 21.03 45.2821 22.2308C45.2821 22.5938 45.2821 22.901 45.2263 23.2361Z" fill="#23A69A"/>
<path d="M32.1848 2.06831C33.1622 2.51512 34.1117 3.04573 35.0332 3.63217C35.1728 3.71595 35.2845 3.77179 35.3962 3.88349C35.4521 3.96727 35.48 4.07898 35.48 4.19069C35.48 5.05639 35.48 5.92209 35.48 6.78779C35.48 6.89949 35.48 6.98327 35.3962 7.06705C35.3125 7.1229 35.2287 7.15082 35.117 7.15082C33.5531 7.15082 31.9893 7.15082 30.4254 7.15082C30.3696 7.12289 30.3417 7.09498 30.3137 7.03913C30.2579 6.8995 30.2579 6.78779 30.2579 6.64816C30.2579 5.25186 30.2579 3.85557 30.2579 2.4872C30.2579 2.34757 30.23 2.20794 30.3137 2.06831C30.3696 2.01246 30.4534 1.98454 30.5092 1.98454C31.0677 1.98454 31.6263 1.92868 32.1848 2.06831Z" fill="#B7E0F3"/>
<path d="M0.600804 23.7108C0.544952 23.4874 0.544953 23.264 0.544953 23.0406C0.489101 21.0858 0.684582 19.1589 1.1314 17.26C1.1314 17.2041 1.15932 17.1762 1.18725 17.1483C1.27103 17.0645 1.38273 17.0645 1.49443 17.0645C2.63939 17.0645 3.75643 17.0645 4.90139 17.0645C4.98516 17.0645 5.06894 17.0645 5.12479 17.0924C5.15272 17.1203 5.18064 17.1203 5.20857 17.1762C5.26442 17.2879 5.26442 17.3996 5.26442 17.5113C5.26442 18.9635 5.26442 20.3877 5.26442 21.8398C5.26442 21.9515 5.26442 22.0353 5.2365 22.1191C5.2365 22.147 5.20857 22.1749 5.18064 22.2028C5.04101 22.2866 4.87346 22.2587 4.73383 22.2587C3.53302 22.2587 2.33221 22.2587 1.1314 22.2587C0.684582 22.2587 0.684582 22.2587 0.684582 22.6776C0.684582 22.901 0.684582 23.1244 0.684582 23.3478C0.684582 23.5154 0.684582 23.6271 0.600804 23.7108Z" fill="#EC5652"/>
<path d="M0.600923 23.7108C0.600923 23.2919 0.600923 22.8731 0.600923 22.4542C0.600923 22.2028 0.600924 22.2029 0.852257 22.2029C2.27647 22.2029 3.72862 22.2029 5.15284 22.2029C5.23662 22.3146 5.23662 22.4263 5.23662 22.5659C5.23662 23.9901 5.23662 25.4423 5.23662 26.8665C5.23662 26.9782 5.23661 27.062 5.20869 27.1457C5.18076 27.1737 5.18076 27.2016 5.12491 27.2295C5.01321 27.2854 4.9015 27.2854 4.7898 27.2854C3.67277 27.2854 2.55573 27.2854 1.4387 27.2854C1.29907 27.2854 1.15944 27.2853 1.04774 27.2016C0.936035 26.8385 0.880183 26.4755 0.824331 26.1125C0.712628 25.3864 0.600924 24.6603 0.572998 23.9063C0.600924 23.8505 0.600923 23.7667 0.600923 23.7108Z" fill="#EB4739"/>
<path d="M10.2072 3.9952C11.2683 3.2412 12.3854 2.62684 13.5303 2.09625C13.5583 2.06832 13.5862 2.06831 13.642 2.06831C14.1168 1.92868 14.6194 1.98454 15.0942 1.98454C15.15 1.98454 15.2059 2.01247 15.2617 2.04039C15.3455 2.1521 15.3455 2.2638 15.3455 2.40342C15.3455 3.82764 15.3455 5.25186 15.3455 6.67608C15.3455 6.78778 15.3455 6.92742 15.2617 7.03913C15.15 7.1229 15.0104 7.1229 14.8708 7.1229C13.4186 7.1229 11.9944 7.1229 10.5423 7.1229C10.4306 7.1229 10.2909 7.1229 10.1792 7.03913C10.0955 6.95535 10.0955 6.84364 10.0955 6.73193C10.0955 5.92208 10.0955 5.11223 10.0955 4.30238C10.1234 4.2186 10.1513 4.10691 10.2072 3.9952Z" fill="#DDBCD6"/>
<path d="M40.451 27.2574C41.7915 27.2574 43.104 27.2574 44.4444 27.2574C44.5561 27.2574 44.6678 27.2295 44.6958 27.3691C44.612 27.8718 44.4723 28.3745 44.3048 28.8771C43.9697 30.0221 43.5229 31.1391 42.9923 32.2282C42.9643 32.2841 42.9643 32.3399 42.9085 32.3678C42.2103 32.312 41.5401 32.3399 40.842 32.3399C40.7024 32.3399 40.5627 32.3679 40.4231 32.2562C40.451 30.5806 40.451 28.933 40.451 27.2574Z" fill="#0C887B"/>
<path d="M1.07568 27.2016C2.44405 27.2016 3.81242 27.2016 5.18078 27.2016C5.32041 27.2574 5.32041 27.3971 5.32041 27.5367C5.29249 28.4862 5.37626 29.4356 5.29249 30.3851C5.26456 30.8599 5.29249 31.3625 5.29249 31.8652C5.29249 32.0048 5.32041 32.1445 5.23664 32.2562C5.18078 32.3399 5.06908 32.3399 4.9853 32.3399C4.34301 32.3399 3.70071 32.3399 3.03049 32.3399C2.97464 32.3399 2.94672 32.312 2.89086 32.312C2.58368 31.7814 2.36027 31.2508 2.16479 30.6923C1.7459 29.6311 1.41079 28.5141 1.13153 27.3971C1.07568 27.3412 1.07568 27.2574 1.07568 27.2016Z" fill="#E63C36"/>
<path d="M44.64 17.1483C43.2437 17.1483 41.8474 17.1483 40.4511 17.1483C40.3394 17.0366 40.3674 16.9249 40.3674 16.7852C40.3674 16.0312 40.3674 15.2772 40.3674 14.5232C40.3674 13.8251 40.3674 13.099 40.3674 12.4009C40.3674 12.2892 40.3674 12.1775 40.4511 12.0937C40.5349 12.0099 40.6187 12.0099 40.7304 12.0099C41.3168 12.0099 41.8754 12.0099 42.4618 12.0099C42.5735 12.0099 42.6852 12.0378 42.769 12.0937C43.3275 13.099 43.7464 14.1602 44.1094 15.2493C44.3049 15.8916 44.5004 16.506 44.64 17.1483Z" fill="#4CB4AA"/>
<path d="M5.18065 17.1483C3.84021 17.1483 2.5277 17.1483 1.18726 17.1483C1.24311 16.6735 1.41066 16.2546 1.55029 15.8078C1.94125 14.5512 2.41599 13.3504 3.03036 12.2054C3.05829 12.1775 3.05829 12.1495 3.08621 12.1216C3.16999 12.0658 3.25377 12.0378 3.36547 12.0378C3.86814 12.0378 4.39873 12.0378 4.90139 12.0378C5.0131 12.0378 5.09687 12.0378 5.18065 12.1216C5.32028 12.2333 5.32028 12.4009 5.32028 12.5405C5.29235 13.3504 5.34821 14.1881 5.29236 14.998C5.2365 15.5844 5.29236 16.1988 5.29236 16.7852C5.26443 16.8969 5.26443 17.0366 5.18065 17.1483Z" fill="#E47474"/>
<path d="M25.3151 44.6273C24.3657 44.739 23.3882 44.7669 22.4388 44.7669C21.7965 44.7669 21.1821 44.7111 20.5398 44.6552C20.484 44.6552 20.4281 44.6273 20.3443 44.6273C20.2606 44.5714 20.2326 44.4877 20.2326 44.4039C20.2326 43.7616 20.2047 43.1193 20.2326 42.477C20.2326 42.4491 20.2606 42.4212 20.2606 42.3653C20.2885 42.3374 20.3164 42.3094 20.3443 42.2815C20.456 42.2257 20.5957 42.2536 20.7074 42.2536C22.1037 42.2536 23.5 42.2536 24.8962 42.2536C25.0359 42.2536 25.1755 42.2257 25.3151 42.3095C25.3989 42.3932 25.3989 42.5049 25.3989 42.6166C25.3989 43.1751 25.3989 43.7616 25.3989 44.3201C25.3989 44.4597 25.3989 44.5435 25.3151 44.6273Z" fill="#2E3379"/>
<path d="M20.3166 0.197282C20.7355 0.169356 21.1264 0.169349 21.5453 0.0855713C21.6012 0.0855713 21.685 0.0855713 21.7687 0.0855713C22.4669 0.0855713 23.165 0.0855713 23.8632 0.0855713C24.31 0.0855713 24.7289 0.113504 25.1478 0.197282C25.2315 0.197282 25.3153 0.197282 25.3991 0.197282C25.427 0.225207 25.4549 0.281059 25.4549 0.336911C25.4549 0.895428 25.5108 1.48186 25.427 2.04038C25.3991 2.06831 25.3991 2.09623 25.3432 2.12416C25.2315 2.18001 25.1478 2.18001 25.0361 2.18001C23.5839 2.18001 22.1318 2.18001 20.6796 2.18001C20.5958 2.18001 20.5121 2.18002 20.4004 2.15209C20.3724 2.15209 20.3445 2.12416 20.3166 2.09624C20.2887 2.06831 20.2887 2.04039 20.2607 2.01246C20.2049 1.5098 20.2328 0.979205 20.2328 0.47654C20.2328 0.364837 20.2607 0.281059 20.3166 0.197282Z" fill="#E7E8F3"/>
<path d="M25.3152 44.6273C25.3152 43.8733 25.3152 43.0914 25.3152 42.3374C25.2314 42.2536 25.2314 42.1419 25.2314 42.0302C25.2314 41.3879 25.2314 40.7456 25.2314 40.1033C25.2314 40.0195 25.2314 39.9078 25.3152 39.8241C25.5107 39.852 25.4549 40.0195 25.4549 40.1312C25.4549 40.7177 25.4549 41.3041 25.4549 41.8626C25.4549 42.2257 25.4828 42.2257 25.8458 42.2257C27.2142 42.2257 28.5826 42.2257 29.9509 42.2257C30.0905 42.2257 30.2302 42.1977 30.3698 42.2815C30.5094 42.5887 30.4815 43.2869 30.314 43.4823C29.6158 43.7616 28.9177 43.9292 28.1916 44.1246C27.27 44.348 26.3485 44.5156 25.4269 44.5994C25.3711 44.6552 25.3431 44.6273 25.3152 44.6273Z" fill="#194C9B"/>
<path d="M20.3164 42.3374C20.3164 43.0076 20.3164 43.6778 20.3164 44.3201C20.3164 44.4039 20.2884 44.5156 20.3443 44.5994C18.6129 44.4318 16.9373 44.0129 15.3176 43.4265C15.2897 43.4265 15.2618 43.3986 15.2618 43.3706C15.1501 43.0076 15.1221 42.6446 15.2618 42.2815C15.3735 42.1978 15.4852 42.1978 15.6248 42.1978C17.077 42.1978 18.5012 42.1978 19.9533 42.1978C20.065 42.2536 20.2047 42.2536 20.3164 42.3374Z" fill="#383389"/>
<path d="M35.3962 40.9411C35.3962 39.7124 35.3962 38.5116 35.3962 37.2828C36.6808 37.2828 37.9375 37.2828 39.2221 37.2828C39.3338 37.2828 39.4455 37.2549 39.5293 37.3387C39.0545 37.8972 38.5239 38.3998 37.9933 38.9025C37.2393 39.6007 36.4574 40.215 35.6196 40.8015C35.5359 40.8573 35.48 40.9132 35.3962 40.9411Z" fill="#07838F"/>
<path d="M25.3711 2.06831C25.3711 1.45394 25.3711 0.811657 25.3711 0.197289C26.5161 0.364844 27.6331 0.532395 28.7222 0.83958C29.6437 1.09091 30.5374 1.39809 31.431 1.76113C31.6823 1.87283 31.9337 1.98454 32.185 2.09624C31.5706 2.09624 30.9563 2.09624 30.3698 2.09624C30.2581 2.18002 30.1464 2.18002 30.0068 2.18002C28.5826 2.18002 27.1583 2.18002 25.7341 2.18002C25.5945 2.15209 25.4549 2.18001 25.3711 2.06831Z" fill="#E4F0F7"/>
<path d="M10.2072 37.2828C10.2072 38.4557 10.2351 39.6286 10.2072 40.8015C9.64865 40.4384 9.14599 40.0475 8.6154 39.6286C7.80555 38.9583 7.02362 38.2323 6.32548 37.4224C6.29755 37.3945 6.26963 37.3387 6.2417 37.2828C7.55421 37.2828 8.89465 37.2828 10.2072 37.2828Z" fill="#AD235A"/>
<path d="M20.3165 0.197289C20.3165 0.811657 20.3165 1.42603 20.3165 2.01247C20.2048 2.12417 20.0651 2.09624 19.9255 2.09624C18.5013 2.09624 17.0771 2.09624 15.6529 2.09624C15.1781 2.09624 15.0385 1.87283 15.2619 1.42602C15.4015 1.31431 15.597 1.28638 15.7366 1.23053C16.7699 0.895421 17.8031 0.616173 18.8923 0.420692C19.3111 0.336914 19.73 0.253127 20.1489 0.253127C20.2048 0.253127 20.2606 0.197289 20.3165 0.197289Z" fill="#EBE5EF"/>
<path d="M35.3962 7.06702C35.3962 6.00584 35.3962 4.94466 35.3962 3.91141C35.8151 4.13481 36.2061 4.442 36.5691 4.74918C37.1556 5.22392 37.742 5.69865 38.3005 6.25717C38.5519 6.5085 38.8311 6.73191 39.0545 7.01117C39.0825 7.06702 39.1662 7.09495 39.2221 7.1508C38.9987 7.06702 38.7753 7.09494 38.5239 7.09494C37.4907 7.06702 36.4295 7.06702 35.3962 7.06702Z" fill="#B6DFE9"/>
<path d="M10.2074 3.99519C10.2074 5.00052 10.2074 6.03379 10.2074 7.03912C9.28586 7.03912 8.36431 7.03912 7.41483 7.03912C7.13557 7.03912 6.85631 7.01118 6.60498 7.09496C7.05179 6.62022 7.49861 6.17341 7.97335 5.75452C8.53186 5.25185 9.14623 4.74918 9.7606 4.30237C9.92816 4.21859 10.0678 4.1069 10.2074 3.99519Z" fill="#F3B9CC"/>
<path d="M40.4511 32.2562C41.1772 32.2562 41.9312 32.2562 42.6572 32.2562C42.741 32.2562 42.8806 32.2003 42.9086 32.3679C42.6852 32.8984 42.378 33.4011 42.0987 33.9038C41.624 34.7136 41.0934 35.4956 40.479 36.2216C40.4232 36.1658 40.4232 36.082 40.4232 36.0262C40.4511 34.8812 40.3394 33.7362 40.3673 32.5913C40.3952 32.4796 40.3673 32.3679 40.4511 32.2562Z" fill="#047A6C"/>
<path d="M2.86279 32.2841C2.94657 32.2003 3.05827 32.2282 3.14205 32.2282C3.81227 32.2282 4.51042 32.2282 5.18064 32.2282C5.20856 32.2003 5.20856 32.2003 5.23649 32.2282C5.23649 33.0939 5.26442 33.9596 5.23649 34.8253C5.23649 35.2163 5.20856 35.5793 5.20856 35.9703C4.8176 35.5235 4.51042 35.0487 4.20323 34.574C3.75642 33.9038 3.36546 33.2056 3.00242 32.4796C2.91864 32.4237 2.89072 32.3679 2.86279 32.2841Z" fill="#D2302E"/>
<path d="M42.7409 12.1216C41.9869 12.1216 41.205 12.1216 40.451 12.1216C40.4231 12.1495 40.4231 12.1495 40.3951 12.1216C40.3951 11.7586 40.3951 11.3956 40.3951 11.0325C40.3672 10.2785 40.4789 9.52452 40.451 8.79845C40.451 8.7426 40.451 8.68675 40.5069 8.65882C41.1491 9.46867 41.7356 10.3344 42.2662 11.228C42.4337 11.5073 42.6013 11.7865 42.7409 12.1216Z" fill="#80C9C3"/>
<path d="M5.18062 12.1216C4.48247 12.1216 3.78433 12.1216 3.08618 12.1216C3.30959 11.6469 3.56092 11.228 3.81225 10.7812C4.20322 10.1389 4.6221 9.5245 5.06892 8.93806C5.09684 8.91013 5.12477 8.88221 5.1527 8.85429C5.18062 9.91547 5.18062 11.0046 5.18062 12.1216Z" fill="#ED999B"/>
<path d="M30.2859 43.5103C30.3417 43.4265 30.3417 43.3427 30.3417 43.231C30.3417 42.9238 30.3417 42.6446 30.3417 42.3374C30.5651 42.2815 30.7606 42.3095 30.984 42.3374C31.5705 42.3374 32.129 42.3374 32.7154 42.3374C32.7992 42.3374 32.883 42.3095 32.9668 42.3653C32.1011 42.8121 31.2354 43.2031 30.2859 43.5103Z" fill="#02589A"/>
<path d="M15.2618 42.3374C15.2618 42.7004 15.2618 43.0635 15.2618 43.4265C14.7312 43.2589 14.2286 43.0355 13.698 42.8121C13.4187 42.6725 13.1115 42.5329 12.8323 42.3932C12.9161 42.3374 13.0278 42.3653 13.1115 42.3653C13.8376 42.3374 14.5637 42.3374 15.2618 42.3374Z" fill="#4C3086"/>
<path d="M15.2619 1.42601C15.2619 1.56564 15.2619 1.70527 15.2619 1.8449C15.2619 1.9566 15.2899 2.01246 15.4295 2.01246C15.5133 2.01246 15.5691 2.01246 15.6529 2.01246C17.2168 2.01246 18.7806 2.01246 20.3444 2.01246C20.3444 2.04039 20.3444 2.04038 20.3444 2.0683C20.2327 2.18 20.121 2.15209 19.9814 2.15209C18.5293 2.15209 17.0771 2.15209 15.6529 2.15209C15.5412 2.15209 15.4016 2.15208 15.2899 2.0683C14.7593 2.0683 14.2287 2.0683 13.6702 2.0683C13.6981 2.04038 13.726 2.01246 13.7819 2.01246C13.8098 1.98454 13.8098 1.98453 13.8377 1.95661C14.2008 1.81698 14.5638 1.67735 14.8989 1.53772C15.0106 1.48187 15.1223 1.42601 15.2619 1.42601Z" fill="#F2E4ED"/>
<path d="M13.8098 1.95661C13.7818 1.98454 13.7818 1.98454 13.7539 2.01247C13.7818 2.01247 13.7818 1.98454 13.8098 1.95661Z" fill="#EBE5EF"/>
<path d="M35.3965 37.2828C33.7209 37.2828 32.0454 37.2828 30.3698 37.2828L30.3419 37.2549C30.2861 37.1432 30.2861 37.0036 30.2861 36.8639C30.2861 35.4676 30.2861 34.0713 30.2861 32.675C30.2861 32.5354 30.2581 32.3678 30.3698 32.2282C30.4815 32.1444 30.6212 32.1444 30.7608 32.1444C32.185 32.1444 33.6092 32.1444 35.0055 32.1444C35.1452 32.1444 35.3127 32.1165 35.4244 32.2841C35.4244 33.5687 35.4244 34.8253 35.4244 36.1099C35.3965 36.5009 35.3965 36.8918 35.3965 37.2828Z" fill="#2386C7"/>
<path d="M40.395 22.2028C40.395 22.6776 40.3671 23.1523 40.395 23.6271C40.4788 24.8279 40.395 26.0007 40.423 27.2016C40.395 27.2295 40.395 27.2295 40.3671 27.2574C40.2554 27.3412 40.1437 27.3412 40.0041 27.3412C38.5798 27.3412 37.1277 27.3412 35.7035 27.3412C35.5918 27.3412 35.508 27.3412 35.4242 27.3133C35.3963 27.2853 35.3684 27.2853 35.3405 27.2295C35.2846 27.0899 35.2846 26.9782 35.2846 26.8385C35.2846 25.4422 35.2846 24.0459 35.2846 22.6497C35.2846 22.51 35.2567 22.3425 35.3684 22.2028C35.4801 22.1191 35.6197 22.1191 35.7593 22.1191C37.1836 22.1191 38.5798 22.1191 40.0041 22.1191C40.1437 22.1191 40.2833 22.0911 40.395 22.2028Z" fill="#1BBAD2"/>
<path d="M35.3963 32.312C35.2846 32.2562 35.1729 32.2562 35.0612 32.2562C33.4974 32.2562 31.9335 32.2562 30.3697 32.2562L30.3417 32.2282C30.2859 32.1165 30.2859 32.0048 30.2859 31.8931C30.2859 30.4689 30.2859 29.0168 30.2859 27.5925C30.2859 27.4808 30.2859 27.3971 30.3138 27.3133C30.3138 27.2854 30.3417 27.2574 30.3697 27.2295C30.5372 27.1737 30.7048 27.2016 30.8723 27.2016C32.2407 27.2016 33.6091 27.2016 34.9774 27.2016C35.1171 27.2016 35.2846 27.1737 35.4242 27.2854C35.508 27.3971 35.508 27.5088 35.508 27.6484C35.508 29.0726 35.508 30.4968 35.508 31.921C35.508 32.0328 35.508 32.1724 35.4242 32.2841C35.3963 32.2562 35.3963 32.2841 35.3963 32.312Z" fill="#3397D0"/>
<path d="M35.3962 32.2561C35.3962 30.5806 35.3962 28.933 35.3962 27.2574C37.0718 27.2574 38.7194 27.2574 40.395 27.2574C40.395 28.8213 40.395 30.413 40.395 31.9769C40.395 32.0327 40.395 32.0607 40.395 32.1165C40.395 32.2003 40.367 32.2561 40.2553 32.2561C40.1716 32.2561 40.1157 32.2561 40.0319 32.2561C38.496 32.2561 36.9601 32.2561 35.3962 32.2561Z" fill="#00ABC0"/>
<path d="M5.20857 32.2562C5.18064 32.2562 5.18064 32.2562 5.15271 32.2562C5.12479 30.8319 5.23649 29.4077 5.20857 27.9835C5.20857 27.8159 5.20857 27.6484 5.20857 27.4808C5.20857 27.397 5.20857 27.3133 5.15271 27.2295H5.18064C5.29234 27.1178 5.4599 27.1457 5.59953 27.1457C6.91204 27.1457 8.25248 27.1457 9.565 27.1457C9.81633 27.1457 10.0677 27.1737 10.0956 26.8106C10.0956 26.7548 10.1514 26.7268 10.2073 26.7548C10.2911 26.8385 10.2911 26.9782 10.2911 27.0899C10.2631 28.5699 10.2911 30.05 10.2911 31.5301C10.2911 31.6139 10.2911 31.6976 10.2631 31.7814C10.2631 31.8093 10.2352 31.8373 10.2073 31.8652C10.1794 31.8931 10.1794 31.949 10.1794 32.0048C10.1514 32.312 10.1514 32.312 9.84426 32.312C8.28041 32.2562 6.74449 32.2562 5.20857 32.2562Z" fill="#D71E62"/>
<path d="M10.2632 37.2828C10.2353 37.2828 10.2353 37.2828 10.2074 37.2828C10.2074 35.719 10.2074 34.1551 10.2074 32.5633C10.2074 32.312 10.1794 32.0607 10.1794 31.7814H10.2074C10.2632 31.6976 10.2353 31.5859 10.2353 31.5022C10.2353 30.2176 10.2353 28.9051 10.2353 27.6205C10.2353 27.1457 10.2353 27.1457 10.71 27.1457C11.9946 27.1457 13.2792 27.1457 14.5638 27.1457C15.0944 27.1457 15.0944 27.1457 15.0944 26.5872C15.0944 26.3917 15.0944 26.1683 15.0944 25.9729C15.0944 25.8611 15.0944 25.7494 15.234 25.7215C15.3178 25.8053 15.3178 25.917 15.3178 26.0287C15.3178 26.4197 15.3178 26.8106 15.3178 27.2016C15.3457 28.7934 15.3178 30.3572 15.3178 31.949C15.3178 32.0607 15.3178 32.1724 15.234 32.2562C15.0944 32.3679 14.9268 32.3399 14.7593 32.3399C13.4188 32.3399 12.1063 32.3399 10.7659 32.3399C10.2911 32.3399 10.2911 32.3399 10.2911 32.7867C10.2911 34.1551 10.2911 35.4956 10.2911 36.8639C10.347 37.0036 10.3749 37.1711 10.2632 37.2828Z" fill="#853E95"/>
<path d="M30.3977 7.12289C30.5095 7.09496 30.5932 7.06703 30.7049 7.06703C32.2688 7.06703 33.8326 7.06703 35.3965 7.06703C35.3965 8.74258 35.3965 10.4181 35.3965 12.1216L35.3685 12.1495C35.2568 12.2054 35.1172 12.2054 34.9776 12.2054C33.5813 12.2054 32.185 12.2054 30.7887 12.2054C30.6491 12.2054 30.4815 12.2333 30.3419 12.1216C30.2581 12.0099 30.2581 11.8703 30.2581 11.7307C30.2581 10.3064 30.2581 8.91014 30.2581 7.48592C30.2581 7.37422 30.2023 7.17874 30.3977 7.12289Z" fill="#85D0EF"/>
<path d="M40.395 12.1216C40.4229 12.1216 40.4229 12.1216 40.4509 12.1216C40.4509 12.9315 40.4509 13.7413 40.4509 14.5512C40.395 15.2772 40.4509 16.0033 40.4229 16.7294C40.4229 17.26 40.4229 17.26 39.8644 17.2879C38.524 17.2879 37.1835 17.2879 35.8431 17.2879C35.7035 17.2879 35.5359 17.3158 35.3963 17.2041C35.3125 17.0924 35.3125 16.9528 35.3125 16.8132C35.3125 15.389 35.3125 13.9647 35.3125 12.5126C35.3125 12.373 35.3125 12.2333 35.3963 12.1216C37.0718 12.1216 38.7195 12.1216 40.395 12.1216Z" fill="#5DC4D7"/>
<path d="M10.2073 7.06703C11.8828 7.06703 13.5584 7.06703 15.2619 7.06703L15.2898 7.09495C15.3456 7.20665 15.3456 7.34629 15.3456 7.48592C15.3456 8.88221 15.3456 10.2785 15.3456 11.6748C15.3456 11.8144 15.3736 11.982 15.2619 12.1216C15.1502 12.2054 15.0105 12.2054 14.8709 12.2054C13.4467 12.2054 11.9945 12.2054 10.5703 12.2054C10.4586 12.2054 10.3469 12.2054 10.2352 12.1495L10.2073 12.1216C10.2073 10.4181 10.2073 8.74258 10.2073 7.06703Z" fill="#C493BE"/>
<path d="M5.18062 17.1483C5.18062 16.4222 5.1527 15.6682 5.18062 14.9421C5.23648 14.1044 5.18062 13.2666 5.20855 12.4288C5.20855 12.3171 5.20855 12.2054 5.18062 12.1216C6.85618 12.1216 8.53173 12.1216 10.2073 12.1216C10.2911 12.2333 10.2911 12.345 10.2911 12.4847C10.2911 13.9368 10.2911 15.361 10.2911 16.8132C10.2911 16.9249 10.2911 17.0645 10.2073 17.1762C10.0956 17.26 9.95594 17.26 9.81632 17.26C8.3921 17.26 6.96788 17.26 5.54366 17.26C5.43196 17.2321 5.29233 17.26 5.18062 17.1483Z" fill="#EC6491"/>
<path d="M30.984 42.3374C30.7606 42.3374 30.5651 42.3374 30.3417 42.3374C28.8058 42.3374 27.2978 42.3374 25.7619 42.3374C25.3151 42.3374 25.343 42.3932 25.343 41.9185C25.343 41.3041 25.343 40.6898 25.343 40.1033C25.343 40.0195 25.3709 39.9078 25.2871 39.8241C25.2034 39.7403 25.2034 39.6565 25.2034 39.5448C25.2034 38.8746 25.2034 38.2323 25.2034 37.5621C25.2034 37.4783 25.2034 37.3945 25.2592 37.3107C25.2871 37.2828 25.3151 37.2549 25.343 37.2549C25.4268 37.227 25.5106 37.227 25.5943 37.227C27.0465 37.227 28.4986 37.227 29.9508 37.227C30.0625 37.227 30.2021 37.227 30.3138 37.3107C30.3138 38.8746 30.3138 40.4384 30.3138 42.0023C30.3138 42.0581 30.3138 42.114 30.3138 42.1698C30.3138 42.2815 30.3697 42.3095 30.4534 42.3095C30.5651 42.3095 30.6489 42.3095 30.7606 42.3095C30.8723 42.2815 30.9282 42.2815 30.984 42.3374Z" fill="#2D67AE"/>
<path d="M20.3163 42.3374C18.6407 42.3374 16.9652 42.3374 15.2617 42.3374C15.2617 40.6618 15.2617 38.9863 15.2617 37.2828L15.2896 37.2549C15.4013 37.199 15.5131 37.199 15.6248 37.199C17.049 37.199 18.5011 37.199 19.9253 37.199C20.037 37.199 20.1487 37.199 20.2325 37.227C20.2604 37.2549 20.2884 37.2549 20.3163 37.3107C20.3722 37.4504 20.3722 37.5621 20.3722 37.7017C20.3722 39.098 20.3722 40.4943 20.3722 41.8906C20.4001 42.0581 20.428 42.1978 20.3163 42.3374Z" fill="#4C3893"/>
<path d="M10.2632 37.2828C10.2632 35.719 10.2632 34.1551 10.2632 32.5913C10.2632 32.5075 10.2632 32.4516 10.2632 32.3679C10.2632 32.2841 10.2911 32.2282 10.4028 32.2282C10.4866 32.2282 10.5424 32.2282 10.6262 32.2282C12.1621 32.2282 13.726 32.2282 15.2619 32.2282L15.2898 32.2562C15.3457 32.3679 15.3457 32.5075 15.3457 32.6192C15.3457 34.0434 15.3457 35.4397 15.3457 36.8639C15.3457 37.0036 15.3736 37.1432 15.2619 37.2828C13.5864 37.2828 11.9387 37.2828 10.2632 37.2828Z" fill="#793691"/>
<path d="M35.3963 17.1483C36.9322 17.1483 38.496 17.1483 40.032 17.1483C40.0878 17.1483 40.1437 17.1483 40.2275 17.1483C40.3671 17.1483 40.395 17.0924 40.395 16.9807C40.395 16.7573 40.395 16.506 40.395 16.2826C40.395 15.752 40.395 15.2493 40.395 14.7187C40.395 14.6629 40.3671 14.5791 40.4509 14.5232C40.4509 15.3889 40.4509 16.2826 40.4509 17.1483C40.4509 18.8238 40.4509 20.4994 40.4509 22.2028C40.4229 22.2028 40.4229 22.2028 40.395 22.2028C38.7195 22.2028 37.0718 22.2028 35.3963 22.2028L35.3684 22.1749C35.3125 22.0632 35.3125 21.9236 35.3125 21.8119C35.3125 20.3877 35.3125 18.9914 35.3125 17.5671C35.3125 17.4554 35.3125 17.3158 35.3684 17.2041C35.3684 17.1762 35.3963 17.1762 35.3963 17.1483Z" fill="#3BC0D5"/>
<path d="M30.3976 7.12289C30.3138 7.20666 30.3417 7.29043 30.3417 7.37421C30.3417 8.96598 30.3417 10.5298 30.3417 12.1216L30.3138 12.1495C30.2021 12.2054 30.0625 12.2054 29.9228 12.2054C28.5265 12.2054 27.1303 12.2054 25.734 12.2054C25.5943 12.2054 25.4268 12.2333 25.2871 12.1216C25.2034 12.0378 25.2034 11.9261 25.2034 11.8144C25.2871 10.3064 25.2592 8.79843 25.2592 7.29043C25.2592 7.23458 25.2592 7.17874 25.2871 7.12289C25.2871 7.09496 25.3151 7.06704 25.343 7.03911C25.4547 6.95533 25.5943 6.98326 25.734 6.98326C27.1303 6.98326 28.5265 6.98326 29.9228 6.98326C30.0625 6.98326 30.2021 6.95533 30.3417 7.06703C30.3696 7.09496 30.3976 7.09496 30.3976 7.12289Z" fill="#96C7E8"/>
<path d="M30.342 7.06702C28.6664 7.06702 27.0188 7.06702 25.3432 7.06702C25.2315 6.95532 25.2595 6.84362 25.2595 6.70399C25.2595 5.27977 25.2595 3.85556 25.2595 2.43134C25.2595 2.31964 25.2595 2.17999 25.3432 2.06829C27.0188 2.06829 28.6664 2.06829 30.342 2.06829C30.342 3.74384 30.342 5.39147 30.342 7.06702Z" fill="#BDDDF4"/>
<path d="M5.18066 17.1483C6.85622 17.1483 8.53177 17.1483 10.2073 17.1483L10.2352 17.1762C10.2911 17.2879 10.2911 17.4275 10.2911 17.5392C10.2911 18.9634 10.2911 20.3877 10.2911 21.8119C10.2911 21.9515 10.319 22.0911 10.2352 22.2028C10.1235 22.2866 10.0118 22.2866 9.87221 22.2866C8.44799 22.2866 7.02377 22.2866 5.57163 22.2866C5.432 22.2866 5.26444 22.3145 5.18066 22.147C5.18066 21.8119 5.18066 21.4768 5.18066 21.1696C5.18066 19.9129 5.18066 18.6842 5.18066 17.4275C5.18066 17.3437 5.18066 17.232 5.18066 17.1483Z" fill="#EA407A"/>
<path d="M5.18066 22.147C5.26444 22.2029 5.37614 22.2029 5.48785 22.2029C7.0517 22.2029 8.64347 22.2029 10.2073 22.2029C10.3749 22.3983 10.2632 22.6497 10.2911 22.8731C10.2911 24.046 10.2911 25.1909 10.2911 26.3638C10.2911 26.5034 10.319 26.6431 10.2073 26.7268C10.1235 26.8386 10.1794 26.9502 10.1794 27.0619C10.1794 27.1736 10.1235 27.2016 10.0398 27.2016C9.95598 27.2016 9.90013 27.2016 9.81635 27.2016C8.28043 27.2016 6.74451 27.2016 5.20859 27.2016C5.18066 27.0899 5.18066 26.9782 5.18066 26.8944C5.18066 25.3305 5.18066 23.7667 5.18066 22.2029C5.18066 22.1749 5.18066 22.1749 5.18066 22.147Z" fill="#E62465"/>
<path d="M15.2618 2.06829C16.9374 2.06829 18.6129 2.06829 20.3164 2.06829C20.4002 2.17999 20.4002 2.29171 20.4002 2.43134C20.4002 3.85556 20.4002 5.27977 20.4002 6.70399C20.4002 6.8157 20.4002 6.95532 20.3164 7.06703C20.2047 7.1508 20.0651 7.1508 19.9254 7.1508C18.4733 7.1508 17.0491 7.1508 15.5969 7.1508C15.4852 7.1508 15.3456 7.1508 15.2339 7.06703C15.2618 5.39147 15.2618 3.74384 15.2618 2.06829Z" fill="#D0C3DD"/>
<path d="M20.3164 42.3374C20.3164 40.6618 20.3164 38.9863 20.3164 37.2828C20.4281 37.1711 20.5398 37.199 20.6794 37.199C22.1037 37.199 23.5279 37.199 24.9521 37.199C25.0638 37.199 25.2034 37.199 25.3151 37.2828C25.3151 38.1206 25.3151 38.9584 25.3151 39.7961C25.3151 40.6339 25.3151 41.4717 25.3151 42.3095C23.6396 42.3374 21.964 42.3374 20.3164 42.3374Z" fill="#2B3D8E"/>
<path d="M20.3164 7.06703C20.3164 5.39147 20.3164 3.74384 20.3164 2.06829C21.992 2.06829 23.6675 2.06829 25.371 2.06829C25.371 3.74384 25.371 5.39147 25.371 7.06703C25.371 7.09495 25.371 7.09495 25.371 7.12288C25.2872 7.15081 25.2034 7.1508 25.1476 7.1508C23.6675 7.1508 22.2154 7.1508 20.7353 7.1508C20.6236 7.1508 20.484 7.1508 20.3723 7.09494C20.3443 7.09494 20.3164 7.06703 20.3164 7.06703Z" fill="#C5C8E1"/>
<path d="M30.3419 37.2828C28.6663 37.2828 27.0187 37.2828 25.3431 37.2828C25.2873 37.227 25.2873 37.1711 25.2593 37.1152C25.2593 37.0594 25.2593 37.0035 25.2593 36.9477C25.2873 35.5514 25.1756 34.1272 25.2035 32.7309C25.2035 32.5913 25.2035 32.4516 25.2314 32.312C25.2593 32.2562 25.2873 32.2282 25.3431 32.2003C25.4548 32.1444 25.5945 32.1724 25.7062 32.1724C27.1025 32.1724 28.4987 32.1724 29.895 32.1724C30.0347 32.1724 30.2022 32.1444 30.3419 32.2561C30.3419 33.9317 30.3419 35.6073 30.3419 37.2828Z" fill="#3975B6"/>
<path d="M35.3965 27.2574C33.8326 27.2574 32.2688 27.2574 30.7049 27.2574C30.5932 27.2574 30.4815 27.2853 30.3698 27.2016C30.2581 27.0899 30.2861 26.9782 30.2861 26.8385C30.2861 25.4143 30.2861 23.9901 30.2861 22.5659C30.2861 22.4542 30.2861 22.3145 30.3698 22.2028C30.4815 22.1191 30.6212 22.1191 30.7608 22.1191C32.185 22.1191 33.6092 22.1191 35.0614 22.1191C35.201 22.1191 35.3406 22.0911 35.4523 22.2028C35.4523 23.7667 35.4523 25.3585 35.4523 26.9223C35.3965 27.034 35.3965 27.1457 35.3965 27.2574Z" fill="#3BA3D8"/>
<path d="M30.3419 22.2029C30.3419 23.8784 30.3419 25.526 30.3419 27.2016C30.3419 27.2295 30.3419 27.2295 30.3419 27.2574C30.2301 27.3412 30.1184 27.3412 29.9788 27.3412C28.5546 27.3412 27.1304 27.3412 25.7062 27.3412C25.5665 27.3412 25.4269 27.3691 25.3152 27.2295C25.2593 27.1457 25.2593 27.034 25.2593 26.9503C25.2873 25.4981 25.1756 24.0739 25.2035 22.6217C25.2035 22.51 25.2035 22.3704 25.2314 22.2587C25.2593 22.2029 25.2873 22.1749 25.3431 22.147C26.907 22.147 28.4987 22.147 30.0626 22.147C30.1464 22.147 30.2301 22.147 30.286 22.2029C30.3139 22.1749 30.3419 22.2029 30.3419 22.2029Z" fill="#4A8EC9"/>
<path d="M25.3431 27.2016C25.4268 27.2853 25.5385 27.2574 25.6502 27.2574C27.2141 27.2574 28.7779 27.2574 30.3418 27.2574C30.3418 28.933 30.3418 30.5806 30.3418 32.2562C28.6662 32.2562 27.0186 32.2562 25.3431 32.2562C25.2872 32.2282 25.2872 32.1724 25.2872 32.1165C25.2872 32.0607 25.2872 32.0048 25.2872 31.949C25.3151 30.4968 25.2034 29.0447 25.2313 27.6205C25.2593 27.4808 25.1476 27.2853 25.3431 27.2016Z" fill="#4182C0"/>
<path d="M10.2074 26.7268C10.2074 26.6431 10.2074 26.5314 10.2074 26.4476C10.2074 25.3305 10.2074 24.2414 10.2074 23.1244C10.2074 23.0406 10.2074 22.9568 10.2074 22.8451C10.2353 22.7055 10.2353 22.538 10.2074 22.3983C10.1795 22.2029 10.2912 22.147 10.4587 22.147C10.5425 22.147 10.6263 22.147 10.738 22.147C12.1064 22.147 13.4468 22.147 14.8152 22.147C14.9548 22.147 15.1224 22.1191 15.262 22.2308C15.3458 22.3425 15.3458 22.4821 15.3458 22.6217C15.3458 23.5433 15.3458 24.4928 15.3458 25.4143C15.3458 25.554 15.3737 25.6936 15.262 25.8053C15.1782 25.8891 15.2061 25.9728 15.2061 26.0566C15.2061 26.3638 15.2061 26.671 15.2061 27.0061C15.2061 27.3133 15.2061 27.3133 14.8989 27.3133C14.3125 27.3133 13.7261 27.3133 13.1396 27.3133C12.3018 27.3133 11.4361 27.3133 10.5984 27.3133C10.5425 27.3133 10.4867 27.3133 10.4029 27.3133C10.3191 27.3133 10.2633 27.3412 10.2633 27.4529C10.2633 27.5367 10.2633 27.5925 10.2633 27.6763C10.2633 28.9888 10.2633 30.3014 10.2633 31.6139C10.2633 31.6976 10.2912 31.8093 10.2074 31.8931C10.2074 30.4689 10.2074 29.0726 10.2074 27.6484C10.2353 27.2854 10.2074 27.0061 10.2074 26.7268Z" fill="#8F4195"/>
<path d="M15.2617 32.2561C15.2617 30.5806 15.2617 28.905 15.2617 27.2016C15.3455 27.1178 15.4851 27.1178 15.5968 27.1178C17.0769 27.1178 18.529 27.1178 20.0091 27.1178C20.1208 27.1178 20.2046 27.1178 20.2884 27.1736C20.3163 27.2016 20.3442 27.2295 20.3442 27.2574C20.3721 27.3691 20.3722 27.4808 20.3722 27.5925C20.3722 29.0167 20.3722 30.413 20.3722 31.8373C20.3722 31.949 20.3721 32.0886 20.3442 32.2003C20.3163 32.2282 20.3163 32.2561 20.2604 32.2841C20.1487 32.3399 20.0091 32.3399 19.8974 32.3399C18.4732 32.3399 17.0769 32.3399 15.6527 32.3399C15.541 32.3399 15.3734 32.3399 15.2617 32.2561Z" fill="#604698"/>
<path d="M20.3163 27.2016C18.6407 27.2016 16.9652 27.2016 15.2617 27.2016C15.2617 26.7268 15.2617 26.2242 15.2617 25.7494C15.2617 24.5765 15.2617 23.3757 15.2617 22.2028L15.2896 22.1749C15.4013 22.1191 15.4851 22.1191 15.5968 22.1191C17.049 22.1191 18.5011 22.1191 19.9533 22.1191C20.065 22.1191 20.1487 22.1191 20.2325 22.147C20.2604 22.1749 20.2884 22.1749 20.3163 22.2308C20.3722 22.3425 20.3722 22.4821 20.3722 22.5938C20.3722 23.9901 20.3722 25.3864 20.3722 26.7827C20.4001 26.9223 20.428 27.0899 20.3163 27.2016Z" fill="#674A9B"/>
<path d="M35.3964 12.1216C35.3964 13.7972 35.3964 15.4727 35.3964 17.1762C35.2847 17.26 35.173 17.26 35.0334 17.26C33.5812 17.26 32.157 17.26 30.7049 17.26C30.5932 17.26 30.4535 17.26 30.3418 17.1762C30.2581 17.0645 30.2581 16.9249 30.2581 16.7852C30.2581 15.361 30.2581 13.9368 30.2581 12.4847C30.2581 12.345 30.2581 12.2054 30.3418 12.0937C32.0453 12.1216 33.7209 12.1216 35.3964 12.1216Z" fill="#5DC0E9"/>
<path d="M10.2073 17.1483C10.2073 15.5844 10.2073 14.0206 10.2073 12.4567C10.2073 12.345 10.2073 12.2333 10.2073 12.1216C11.8828 12.1216 13.5584 12.1216 15.2339 12.1216L15.2619 12.1495C15.3177 12.2613 15.3177 12.373 15.3177 12.4847C15.3177 13.9089 15.3177 15.361 15.3177 16.7852C15.3177 16.8969 15.3177 17.0087 15.2898 17.0924C15.2619 17.1204 15.2619 17.1483 15.206 17.1762C15.0943 17.2321 14.9547 17.2321 14.843 17.2321C13.4187 17.2321 12.0225 17.2321 10.5982 17.2321C10.4865 17.2321 10.3469 17.26 10.2073 17.1483Z" fill="#AA6CA9"/>
<path d="M15.2617 7.06703C16.9373 7.06703 18.6128 7.06703 20.3163 7.06703C20.4001 7.17874 20.4001 7.29044 20.4001 7.43006C20.4001 8.88221 20.4001 10.3064 20.4001 11.7586C20.4001 11.8703 20.4001 12.0099 20.3163 12.1216C20.2046 12.2054 20.065 12.2054 19.9253 12.2054C18.5011 12.2054 17.049 12.2054 15.6248 12.2054C15.5131 12.2054 15.3734 12.2054 15.2617 12.1216C15.2617 10.4181 15.2617 8.74258 15.2617 7.06703Z" fill="#B29CC8"/>
<path d="M25.3152 32.312C25.3152 33.9876 25.3989 35.6352 25.371 37.3107C25.3431 37.3107 25.3431 37.3107 25.3152 37.3107C23.6396 37.3107 21.992 37.3107 20.3164 37.3107C20.2327 37.199 20.2327 37.0873 20.2327 36.9477C20.2327 35.4955 20.2327 34.0434 20.2327 32.6192C20.2327 32.5075 20.2327 32.3679 20.3164 32.2562C20.4002 32.1724 20.5119 32.1724 20.6236 32.1724C22.0758 32.1724 23.5279 32.1724 24.9801 32.1724C25.0918 32.1724 25.2314 32.1724 25.3152 32.312Z" fill="#364598"/>
<path d="M20.3163 32.2561C20.3163 33.9317 20.3163 35.6072 20.3163 37.3107C18.6407 37.3107 16.9652 37.3107 15.2617 37.3107C15.2617 35.6352 15.2617 33.9317 15.2617 32.2561C16.9373 32.2561 18.6407 32.2561 20.3163 32.2561Z" fill="#553F94"/>
<path d="M30.3418 17.1483C32.0174 17.1483 33.6929 17.1483 35.3964 17.1483C35.3964 18.8238 35.3964 20.5273 35.3964 22.2028C33.7209 22.2028 32.0453 22.2028 30.3418 22.2028C30.2581 22.0911 30.2581 21.9794 30.2581 21.8398C30.2581 20.3877 30.2581 18.9355 30.2581 17.5113C30.2581 17.3996 30.2581 17.2879 30.3139 17.2041C30.3418 17.1762 30.3418 17.1762 30.3418 17.1483Z" fill="#4AB1E1"/>
<path d="M30.3418 12.1216C30.3418 13.7972 30.3418 15.4727 30.3418 17.1762C30.2301 17.26 30.1184 17.26 29.9788 17.26C28.5545 17.26 27.1024 17.26 25.6782 17.26C25.5386 17.26 25.371 17.26 25.2593 17.1483C25.1755 17.0366 25.2034 16.8969 25.2034 16.7573C25.2034 15.361 25.2034 13.9368 25.2034 12.5405C25.2034 12.4288 25.2034 12.2892 25.2593 12.1775L25.2872 12.1495C26.9907 12.1216 28.6662 12.1216 30.3418 12.1216Z" fill="#73B1DE"/>
<path d="M20.3164 12.1216C20.3164 10.4461 20.3164 8.77051 20.3164 7.06703C21.9082 7.06703 23.5279 7.06703 25.1197 7.06703C25.2034 7.06703 25.2872 7.06704 25.3431 7.12289C25.3431 8.26785 25.371 9.44072 25.3431 10.5857C25.3151 11.0883 25.2872 11.591 25.3151 12.0937C25.2034 12.1775 25.0917 12.1775 24.9521 12.1775C23.5279 12.1775 22.1037 12.1775 20.6794 12.1775C20.5677 12.1775 20.456 12.1775 20.3723 12.1216C20.3443 12.1495 20.3164 12.1216 20.3164 12.1216Z" fill="#A1A8D2"/>
<path d="M10.2352 17.1483C11.9108 17.1483 13.5863 17.1483 15.2619 17.1483C15.3736 17.26 15.3456 17.3717 15.3456 17.5113C15.3456 18.9634 15.3456 20.4156 15.3456 21.8398C15.3456 21.9515 15.3456 22.0911 15.2619 22.2028C13.7539 22.2028 12.2179 22.2028 10.7099 22.2028C10.6541 22.2028 10.5982 22.2028 10.5145 22.2028C10.2911 22.2028 10.2911 22.2028 10.2631 22.4542C10.2631 22.5938 10.2911 22.7334 10.2352 22.8451C10.2073 22.6217 10.2631 22.4263 10.2073 22.2028C10.2073 20.5831 10.2073 18.9634 10.2352 17.3437C10.2352 17.2879 10.2352 17.232 10.2352 17.1483Z" fill="#9A539E"/>
<path d="M25.3151 32.312C25.2034 32.2562 25.0917 32.2562 24.98 32.2562C23.4162 32.2562 21.8803 32.2562 20.3164 32.2562C20.3164 30.5806 20.3164 28.933 20.3164 27.2574C20.456 27.1457 20.5957 27.1737 20.7632 27.1737C22.1037 27.1737 23.472 27.1737 24.8125 27.1737C25.2593 27.1737 25.2593 27.1737 25.3151 27.5925C25.3151 29.1564 25.3989 30.7202 25.371 32.2562C25.3431 32.2562 25.3151 32.2841 25.3151 32.312Z" fill="#404F9F"/>
<path d="M25.3153 27.5646L25.2874 27.5367C25.2315 27.2574 25.2315 27.2574 24.9522 27.2574C23.4163 27.2574 21.8804 27.2574 20.3445 27.2574C20.3445 27.2295 20.3445 27.2295 20.3445 27.2016C20.3445 25.526 20.3445 23.8784 20.3445 22.2028C20.4562 22.0911 20.5679 22.1191 20.7075 22.1191C22.1317 22.1191 23.556 22.1191 24.9802 22.1191C25.0919 22.1191 25.2315 22.0911 25.3432 22.2028C25.3432 23.8784 25.427 25.526 25.3991 27.2016C25.2594 27.3133 25.3153 27.4529 25.3153 27.5646Z" fill="#4757A2"/>
<path d="M25.3152 22.2029C23.6396 22.2029 21.992 22.2029 20.3164 22.2029C20.2327 22.0911 20.2327 21.9795 20.2327 21.8398C20.2327 20.3877 20.2327 18.9355 20.2327 17.4834C20.2327 17.3717 20.2327 17.2879 20.2606 17.2041C20.2885 17.1762 20.2885 17.1483 20.3444 17.1203C20.484 17.0645 20.5957 17.0645 20.7353 17.0645C22.1316 17.0645 23.5 17.0645 24.8963 17.0645C25.0359 17.0645 25.1755 17.0366 25.3152 17.1483C25.3989 17.232 25.3989 17.3717 25.3989 17.4834C25.3989 18.9076 25.4827 20.3039 25.4548 21.7281C25.4548 21.8677 25.4827 22.0353 25.371 22.1749C25.3431 22.1749 25.3152 22.1749 25.3152 22.2029Z" fill="#5F6BAF"/>
<path d="M25.3432 22.147C25.3711 20.4714 25.2873 18.8238 25.2873 17.1483C25.2873 17.1483 25.2594 17.1203 25.2873 17.1203C25.2873 17.1203 25.2873 17.0924 25.3152 17.0924C25.4269 17.1762 25.5386 17.1483 25.6503 17.1483C27.2142 17.1483 28.778 17.1483 30.3419 17.1483C30.3419 18.8238 30.3419 20.4994 30.3419 22.2028C28.778 22.2028 27.1863 22.2028 25.6224 22.2028C25.5386 22.2028 25.4269 22.2308 25.3432 22.147Z" fill="#599FD3"/>
<path d="M20.3163 17.1483C20.3163 18.8238 20.3163 20.4994 20.3163 22.2028C18.6407 22.2028 16.9652 22.2028 15.2617 22.2028C15.2617 20.5273 15.2617 18.8517 15.2617 17.1483C15.3734 17.0645 15.4851 17.0645 15.6248 17.0645C17.0769 17.0645 18.529 17.0645 19.9533 17.0645C20.0929 17.0645 20.2046 17.0645 20.3163 17.1483Z" fill="#785DA4"/>
<path d="M20.3163 17.1483C18.6407 17.1483 16.9652 17.1483 15.2617 17.1483C15.2617 15.4727 15.2617 13.7972 15.2617 12.1216C16.9373 12.1216 18.6128 12.1216 20.3163 12.1216C20.428 12.2333 20.4001 12.345 20.4001 12.4847C20.4001 13.9368 20.4001 15.361 20.4001 16.8132C20.4001 16.9249 20.4001 17.0645 20.3163 17.1483Z" fill="#9076B4"/>
<path d="M20.3164 17.1483C20.3164 15.4727 20.3164 13.7972 20.3164 12.1216C21.5731 12.1216 22.8577 12.1216 24.1143 12.1216C24.5053 12.1216 24.9242 12.1216 25.3151 12.1216C25.3151 13.6575 25.3151 15.2214 25.3151 16.7573C25.3151 16.869 25.3151 16.9807 25.3151 17.0924C25.3151 17.1204 25.3151 17.1203 25.3151 17.1483C23.6396 17.1483 21.964 17.1483 20.3164 17.1483Z" fill="#7C85BE"/>
</g>
<defs>
<filter id="filter0_b" x="-3.46436" y="-3.91443" width="52.7465" height="52.6814" filterUnits="userSpaceOnUse" color-interpolation-filters="sRGB">
<feFlood flood-opacity="0" result="BackgroundImageFix"/>
<feGaussianBlur in="BackgroundImage" stdDeviation="2"/>
<feComposite in2="SourceAlpha" operator="in" result="effect1_backgroundBlur"/>
<feBlend mode="normal" in="SourceGraphic" in2="effect1_backgroundBlur" result="shape"/>
</filter>
</defs>
</svg>
