<?xml version="1.0" encoding="UTF-8" standalone="no"?>
<svg
   xmlns:dc="http://purl.org/dc/elements/1.1/"
   xmlns:cc="http://creativecommons.org/ns#"
   xmlns:rdf="http://www.w3.org/1999/02/22-rdf-syntax-ns#"
   xmlns:svg="http://www.w3.org/2000/svg"
   xmlns="http://www.w3.org/2000/svg"
   viewBox="0 0 1518.9733 341.33334"
   height="341.33334"
   width="1518.9733"
   xml:space="preserve"
   id="svg2"
   version="1.1"><metadata
     id="metadata8"><rdf:RDF><cc:Work
         rdf:about=""><dc:format>image/svg+xml</dc:format><dc:type
           rdf:resource="http://purl.org/dc/dcmitype/StillImage" /></cc:Work></rdf:RDF></metadata><defs
     id="defs6" /><g
     transform="matrix(1.3333333,0,0,-1.3333333,0,341.33333)"
     id="g10"><g
       transform="scale(0.1)"
       id="g12"><path
         id="path14"
         style="fill:#211d1d;fill-opacity:1;fill-rule:nonzero;stroke:none"
         d="M 6263.54,1280 C 6263.54,585.621 5700.64,22.7188 5006.27,22.7188 4311.89,22.7188 3748.99,585.621 3748.99,1280 c 0,694.38 562.9,1257.28 1257.28,1257.28 694.37,0 1257.27,-562.9 1257.27,-1257.28" /><path
         id="path16"
         style="fill:#82cc2a;fill-opacity:1;fill-rule:nonzero;stroke:none"
         d="m 5006.25,2514.55 c -680.74,0 -1234.54,-553.82 -1234.54,-1234.55 0,-680.719 553.8,-1234.5391 1234.54,-1234.5391 680.76,0 1234.55,553.8201 1234.55,1234.5391 0,680.73 -553.79,1234.55 -1234.55,1234.55 z M 5006.25,0 c -705.78,0 -1280,574.219 -1280,1280 0,705.79 574.22,1280 1280,1280 705.79,0 1280.01,-574.21 1280.01,-1280 C 6286.26,574.219 5712.04,0 5006.25,0" /><path
         id="path18"
         style="fill:#82cc2a;fill-opacity:1;fill-rule:nonzero;stroke:none"
         d="m 4405.54,930.699 c -35.25,0 -68.8,20.653 -83.58,55.09 -98.02,228.521 -76.13,489.521 58.54,698.191 222.83,345.04 684.75,444.56 1029.78,221.75 26.28,-16.98 41.99,-46.3 41.59,-77.62 -0.44,-31.29 -16.95,-60.18 -43.67,-76.43 l -396.84,-241.17 c -43.01,-26.12 -98.86,-12.45 -124.91,30.48 -26.1,42.9 -12.43,98.81 30.45,124.89 l 252.04,153.18 c -234.02,70.51 -496.58,-18.22 -635.65,-233.68 -101.83,-157.74 -118.38,-355.1 -44.25,-527.9 19.79,-46.14 -1.56,-99.609 -47.72,-119.378 -11.68,-5.024 -23.84,-7.403 -35.78,-7.403" /><path
         id="path20"
         style="fill:#82cc2a;fill-opacity:1;fill-rule:nonzero;stroke:none"
         d="m 5005.1,535.398 c -138.36,-0.027 -278.19,38.422 -402.83,118.872 -26.28,16.98 -41.99,46.3 -41.59,77.609 0.44,31.301 16.96,60.199 43.68,76.441 l 396.83,241.17 c 43.11,26.1 98.9,12.38 124.92,-30.48 26.1,-42.901 12.42,-98.799 -30.46,-124.881 l -252.04,-153.16 c 234.06,-70.629 496.54,18.211 635.61,233.66 102.14,158.081 118.52,355.821 43.85,528.931 -19.93,46.1 1.34,99.59 47.46,119.48 45.94,19.89 99.61,-1.34 119.45,-47.48 98.76,-228.89 77.06,-490.42 -58.02,-699.56 C 5489.7,655.609 5249.77,535.398 5005.1,535.398" /><path
         id="path22"
         style="fill:#211d1d;fill-opacity:1;fill-rule:nonzero;stroke:none"
         d="M 2537.3,1280 C 2537.3,585.621 1974.4,22.7188 1280.02,22.7188 585.648,22.7188 22.7422,585.621 22.7422,1280 c 0,694.38 562.9058,1257.28 1257.2778,1257.28 694.38,0 1257.28,-562.9 1257.28,-1257.28" /><path
         id="path24"
         style="fill:#ec1e27;fill-opacity:1;fill-rule:nonzero;stroke:none"
         d="M 1280,2514.55 C 599.254,2514.55 45.4531,1960.73 45.4531,1280 45.4531,599.281 599.254,45.4609 1280,45.4609 c 680.75,0 1234.59,553.8201 1234.59,1234.5391 0,680.73 -553.84,1234.55 -1234.59,1234.55 z M 1280,0 C 574.219,0 0,574.219 0,1280 0,1985.79 574.219,2560 1280,2560 1985.83,2560 2560.04,1985.79 2560.04,1280 2560.04,574.219 1985.83,0 1280,0" /><path
         id="path26"
         style="fill:#ec1e27;fill-opacity:1;fill-rule:nonzero;stroke:none"
         d="m 1502.79,1389.15 c -29.08,0 -58.15,11.1 -80.35,33.3 -44.38,44.36 -44.38,116.31 0,160.7 l 305.49,305.47 c 44.39,44.34 116.3,44.36 160.69,-0.03 44.39,-44.36 44.39,-116.32 0,-160.7 l -305.49,-305.47 c -22.19,-22.17 -51.27,-33.27 -80.34,-33.27" /><path
         id="path28"
         style="fill:#ec1e27;fill-opacity:1;fill-rule:nonzero;stroke:none"
         d="m 1280,1166.37 c -29.07,0 -58.15,11.09 -80.34,33.29 l -528.23,528.25 c -44.391,44.36 -44.391,116.32 0,160.68 44.383,44.39 116.297,44.39 160.687,0 l 528.233,-528.25 c 44.38,-44.36 44.38,-116.32 0,-160.68 -22.2,-22.2 -51.27,-33.29 -80.35,-33.29" /><path
         id="path30"
         style="fill:#ec1e27;fill-opacity:1;fill-rule:nonzero;stroke:none"
         d="m 1808.27,638.121 c -29.07,0 -58.14,11.09 -80.34,33.289 L 1280,1119.29 832.117,671.41 c -44.39,-44.398 -116.304,-44.398 -160.687,0 -44.391,44.36 -44.391,116.309 0,160.68 l 528.23,528.25 c 42.61,42.66 118.07,42.66 160.69,0 l 528.27,-528.25 c 44.39,-44.371 44.39,-116.32 0,-160.68 -22.2,-22.199 -51.27,-33.289 -80.35,-33.289" /><path
         id="path32"
         style="fill:#82cc2a;fill-opacity:1;fill-rule:nonzero;stroke:none"
         d="m 10046.6,1000.13 c -35.2,0 -68.79,20.64 -83.56,55.08 -98.02,228.54 -76.14,489.55 58.56,698.22 222.8,345.05 684.7,444.51 1029.8,221.75 26.2,-16.98 41.9,-46.3 41.6,-77.62 -0.5,-31.29 -17,-60.19 -43.7,-76.43 l -396.9,-241.17 c -43,-26.17 -98.8,-12.48 -124.9,30.47 -26.1,42.91 -12.4,98.81 30.5,124.89 l 252,153.19 c -234,70.47 -496.6,-18.23 -635.6,-233.69 -101.9,-157.74 -118.4,-355.11 -44.3,-527.92 19.8,-46.14 -1.5,-99.61 -47.7,-119.38 -11.7,-5.02 -23.8,-7.39 -35.8,-7.39" /><path
         id="path34"
         style="fill:#82cc2a;fill-opacity:1;fill-rule:nonzero;stroke:none"
         d="m 10646.2,604.82 c -138.4,-0.031 -278.2,38.418 -402.9,118.871 -26.2,16.981 -41.9,46.297 -41.5,77.618 0.4,31.3 16.9,60.191 43.6,76.429 l 396.9,241.182 c 43.1,26.09 98.9,12.42 124.9,-30.48 26.1,-42.9 12.4,-98.811 -30.5,-124.889 l -252,-153.16 c 234.1,-70.621 496.5,18.218 635.6,233.659 102.1,158.12 118.5,355.84 43.8,528.94 -19.9,46.1 1.4,99.59 47.5,119.47 45.9,19.89 99.6,-1.33 119.5,-47.47 98.7,-228.89 77,-490.41 -58.1,-699.568 -142.2,-220.391 -382.2,-340.602 -626.8,-340.602" /><path
         id="path36"
         style="fill:#ec1e27;fill-opacity:1;fill-rule:nonzero;stroke:none"
         d="m 8317.12,1458.58 c -29.07,0 -58.16,11.09 -80.34,33.29 -44.4,44.37 -44.4,116.32 0,160.69 l 305.47,305.48 c 44.4,44.39 116.3,44.39 160.7,0 44.38,-44.36 44.38,-116.32 0,-160.68 l -305.49,-305.49 c -22.2,-22.2 -51.27,-33.29 -80.34,-33.29" /><path
         id="path38"
         style="fill:#ec1e27;fill-opacity:1;fill-rule:nonzero;stroke:none"
         d="m 8094.32,1235.81 c -29.07,0 -58.14,11.09 -80.34,33.29 l -528.22,528.26 c -44.39,44.36 -44.39,116.32 0,160.68 44.39,44.39 116.3,44.39 160.68,0 l 528.24,-528.25 c 44.38,-44.37 44.38,-116.32 0,-160.69 -22.2,-22.2 -51.27,-33.29 -80.36,-33.29" /><path
         id="path40"
         style="fill:#ec1e27;fill-opacity:1;fill-rule:nonzero;stroke:none"
         d="m 7566.1,707.539 c -29.07,0 -58.15,11.09 -80.34,33.27 -44.39,44.39 -44.39,116.339 0,160.703 l 528.22,528.278 c 42.62,42.61 118.08,42.66 160.7,0 l 528.27,-528.278 c 44.38,-44.364 44.38,-116.313 0,-160.684 -44.4,-44.379 -116.3,-44.379 -160.7,0 L 8094.32,1188.74 7646.44,740.828 c -22.19,-22.199 -51.27,-33.289 -80.34,-33.289" /></g></g></svg>