<svg width="69" height="133" viewBox="0 0 69 133" fill="none" xmlns="http://www.w3.org/2000/svg">
<path d="M46.946 68.3135C46.946 70.2274 46.946 71.626 46.946 73.0246C46.946 91.2802 46.946 109.609 46.946 127.865C46.946 132.502 46.7986 132.576 42.156 132.576C35.5236 132.576 28.8913 132.576 22.2589 132.576C17.6163 132.576 17.4689 132.429 17.4689 127.865C17.4689 109.609 17.4689 91.2802 17.4689 73.0246C17.4689 71.5524 17.4689 70.1538 17.4689 68.2399C12.6788 68.2399 8.25728 68.1663 3.9094 68.2399C1.18277 68.3135 -0.0700136 67.5038 0.00367922 64.4858C0.224758 58.7441 0.151065 52.9288 0.00367922 47.1872C-0.0700136 44.758 0.961681 43.8747 3.24616 43.8747C7.88881 43.9483 12.5315 43.8747 17.7636 43.8747C17.7636 40.0469 17.7636 36.5135 17.7636 32.9802C17.8373 29.4469 17.69 25.8399 18.0584 22.3066C19.606 9.35104 26.6068 1.84271 39.4293 0.591321C48.1988 -0.292012 57.0419 0.0760455 65.8851 0.0760455C66.6957 0.0760455 68.1695 1.62188 68.1695 2.4316C68.3906 9.0566 68.3906 15.6816 68.1695 22.3066C68.1695 23.1163 66.4009 24.5149 65.3692 24.5885C61.4635 24.883 57.4841 24.6622 53.5784 24.7358C48.4936 24.8094 47.1671 25.9135 46.946 30.8455C46.7986 34.9677 46.8723 39.0899 46.8723 43.801C52.5467 43.801 57.9262 43.801 63.3058 43.801C67.58 43.801 67.6537 43.9483 67.0641 48.1441C66.4009 53.1497 65.8851 58.0816 65.3692 63.0871C64.9271 67.2094 64.1164 68.0191 59.8422 68.0927C55.7154 68.3135 51.5887 68.3135 46.946 68.3135ZM45.7669 131.177C45.7669 109.609 45.7669 88.483 45.7669 66.9885C50.9991 66.9885 55.7891 66.9149 60.5055 66.9885C62.79 66.9885 63.8217 65.958 64.0427 63.7496C64.6323 57.7135 65.2955 51.6774 66.0324 45.126C59.2527 45.126 52.5467 45.126 45.6195 45.126C45.6195 39.9733 45.4721 35.3358 45.6932 30.7719C45.988 25.1038 47.7566 23.6316 53.5047 23.558C57.8525 23.558 62.2741 23.558 66.7694 23.558C66.7694 15.976 66.7694 8.83576 66.7694 1.84271C57.6315 1.84271 48.862 1.32743 40.0926 1.98993C29.4071 2.72604 21.8904 9.49826 19.9007 19.2885C19.2375 22.601 19.3112 26.1344 19.2375 29.5205C19.1638 34.5997 19.2375 39.7524 19.2375 45.2733C13.121 45.2733 7.52034 45.2733 1.7723 45.2733C1.7723 52.6344 1.7723 59.5538 1.7723 67.0621C7.44665 67.0621 13.0473 67.0621 19.0164 67.0621C19.0164 88.7774 19.0164 109.904 19.0164 131.177C27.9333 131.177 36.4816 131.177 45.7669 131.177Z" fill="white"/>
</svg>
