<svg width="82" height="69" viewBox="0 0 82 69" fill="none" xmlns="http://www.w3.org/2000/svg">
<path d="M40.6271 68.6869C28.3191 68.6869 15.9897 68.6869 3.6817 68.6869C1.34853 68.6869 0 67.3346 0 64.995C0 50.4419 0 35.8889 0 21.3573C0 19.7046 0.642156 18.5025 2.18333 17.8371C2.31176 17.7727 2.4402 17.4937 2.4402 17.3005C2.4616 14.7247 2.4402 12.149 2.4616 9.5947C2.4616 7.4697 3.72451 6.18182 5.84363 6.18182C17.2954 6.18182 28.7472 6.20329 40.2204 6.20329C40.5629 6.20329 40.9054 6.18182 41.2479 6.13889C42.2111 5.98864 42.7248 5.45202 42.8105 4.48611C42.8533 4.05682 42.8319 3.60606 42.8319 3.17677C42.8747 1.35227 44.2018 0 46.0212 0C55.9319 0 65.8425 0 75.7745 0C77.6154 0 78.9639 1.41667 78.9639 3.28409C78.9639 10.1099 78.9639 16.9571 78.9639 23.7828C78.9639 24.1692 79.0495 24.3624 79.4348 24.5341C80.6549 25.0922 81.2971 26.101 81.3827 27.4533C81.3827 27.5821 81.3827 27.7109 81.3827 27.8397C81.3827 40.2248 81.3827 52.6099 81.3827 64.995C81.3827 67.3346 80.0341 68.6869 77.701 68.6869C65.3074 68.7083 52.9779 68.6869 40.6271 68.6869ZM40.6485 67.8712C52.9779 67.8712 65.3074 67.8498 77.6368 67.8927C79.3278 67.8927 80.5265 66.7336 80.5265 65.0164C80.5051 52.6313 80.5051 40.2462 80.5051 27.8611C80.5051 26.0581 79.499 25.0492 77.701 25.0492C75.0039 25.0492 72.3069 25.0707 69.6098 25.0707C60.0417 25.0707 50.4521 25.0707 40.884 25.0707C40.6271 25.0707 40.3703 25.0707 40.1134 25.0492C38.6578 24.9205 37.7588 24.0619 37.5662 22.6237C37.502 22.1515 37.5234 21.6793 37.5234 21.2071C37.5234 19.5328 36.4959 18.4811 34.8263 18.4811C24.402 18.4811 13.9562 18.4811 3.53186 18.4811C3.12516 18.4811 2.69706 18.524 2.35458 18.6957C1.2415 19.1679 0.813399 20.0909 0.813399 21.2715C0.813399 35.846 0.834803 50.4419 0.791993 65.0164C0.791993 66.6263 1.88366 67.8927 3.6817 67.8927C16.0111 67.8498 28.3191 67.8712 40.6485 67.8712ZM3.25359 17.6654C3.81013 17.6654 4.30245 17.6439 4.79477 17.6654C5.11585 17.6869 5.22288 17.5581 5.22288 17.2361C5.20147 16.12 5.22288 14.9823 5.22288 13.8662C5.22288 13.1578 5.28709 13.0934 5.99346 13.0934C29.1111 13.0934 52.2502 13.0934 75.3678 13.0934C76.0528 13.0934 76.117 13.1578 76.117 13.8447C76.117 17.1073 76.117 20.3485 76.117 23.6111C76.117 23.8043 76.117 23.976 76.117 24.1692C76.8234 24.1692 77.4441 24.1692 78.0649 24.1692C78.0863 24.0619 78.0863 23.9975 78.0863 23.9331C78.0863 17 78.0863 10.0669 78.0863 3.13384C78.0863 1.78157 77.0802 0.837123 75.7103 0.837123C73.4842 0.837123 71.258 0.837123 69.0319 0.837123C61.3474 0.837123 53.6843 0.837123 45.9998 0.837123C44.6085 0.837123 43.6453 1.78157 43.6239 3.17677C43.6239 3.54167 43.6239 3.8851 43.6239 4.25C43.581 5.58081 43.0245 6.46086 41.89 6.80429C41.3977 6.95455 40.8412 6.99747 40.306 6.99747C28.79 6.99747 17.2954 6.99748 5.77941 6.97601C4.17402 6.97601 3.23219 7.92046 3.23219 9.53031C3.23219 12.0631 3.23219 14.5745 3.23219 17.1073C3.2536 17.279 3.25359 17.4293 3.25359 17.6654ZM75.2822 13.952C52.186 13.952 29.1539 13.952 6.05768 13.952C6.05768 15.1755 6.05768 16.399 6.05768 17.6654C6.29314 17.6654 6.50719 17.6654 6.69984 17.6654C16.0539 17.6654 25.4294 17.6654 34.7835 17.6869C35.4043 17.6869 36.0892 17.8371 36.6458 18.1162C37.823 18.7386 38.3582 19.8333 38.3582 21.1856C38.3582 23.8472 38.7863 24.2765 41.4405 24.2765C52.5498 24.2551 63.6377 24.2551 74.7471 24.2336C74.9183 24.2336 75.0895 24.2121 75.2608 24.2121C75.2822 20.7563 75.2822 17.3864 75.2822 13.952Z" fill="white"/>
</svg>
