<svg xmlns="http://www.w3.org/2000/svg" viewBox="0 0 82.65 86.71"><defs><style>.cls-1{fill:none;stroke:#c2c1c1;stroke-miterlimit:10;stroke-width:2px;}</style></defs><title>icon-4</title><g id="Layer_2" data-name="Layer 2"><g id="Layer_1-2" data-name="Layer 1"><path class="cls-1" d="M25.54,32.18a3.46,3.46,0,0,1-2.12-.86,13.12,13.12,0,0,0-8.1-2.88,14.4,14.4,0,0,0-5.4,1.1C3.24,32.22,0,38.51,1.27,45.6A14.21,14.21,0,0,0,14.53,56.86h.39a13.67,13.67,0,0,0,8.85-3.06,2.33,2.33,0,0,1,1.47-.59,2.36,2.36,0,0,1,1.22.39c1,.61,2,1.18,3.05,1.75,7.11,3.93,14.2,7.93,21.39,11.75,1.86,1,2.61,2,2.49,4.27a13.91,13.91,0,0,0,14,14.33A14.23,14.23,0,0,0,81,67.36a14.28,14.28,0,0,0-13.54-10,13.86,13.86,0,0,0-8.38,2.85,2.9,2.9,0,0,1-1.77.7,3,3,0,0,1-1.52-.46c-5.25-3-10.54-5.84-15.81-8.74l-9.23-5.09c-1.56-.86-1.78-1.31-1.54-3.06a6.77,6.77,0,0,0,0-1.56c-.2-1.67,0-2.1,1.49-2.88,1.95-1,3.91-2.06,5.87-3.1L55.8,25.94a2.61,2.61,0,0,1,1.26-.36,2.73,2.73,0,0,1,1.68.69,14.09,14.09,0,0,0,8.65,3.15,29.1,29.1,0,0,0,3.37-.49A14.17,14.17,0,0,0,67.9,1,14,14,0,0,0,56.44,6.27a13,13,0,0,0-3,10.09,1.93,1.93,0,0,1-1.1,2.09L49.47,20c-7.38,3.88-14.79,7.72-22.11,11.68a3.93,3.93,0,0,1-1.82.54"/></g></g></svg>