<svg xmlns="http://www.w3.org/2000/svg" viewBox="0 0 86.65 125.81"><defs><style>.cls-1{fill:#bcbcbc;}.cls-2{fill:#c2c1c1;}</style></defs><title>icon-2</title><g id="Layer_2" data-name="Layer 2"><g id="Layer_1-2" data-name="Layer 1"><path class="cls-1" d="M54.84,56.89A5.67,5.67,0,0,1,52,55.76a3,3,0,0,1-.77-1.11A4.76,4.76,0,0,1,51,52.91c0-.24,0-.5,0-.77l0-.5h-.51c-1,0-1.82,0-2.64,0a13.3,13.3,0,0,1-1.43-.07,5.13,5.13,0,0,1-3.54-2,7.21,7.21,0,0,1-1.45-4.48q0-7.47,0-14.93,0-11.26.09-22.53A7.44,7.44,0,0,1,43.2,2.84a5.31,5.31,0,0,1,4-1.85q6-.06,12.08-.06,6.39,0,12.79.07a4.93,4.93,0,0,1,4,1.94,8.41,8.41,0,0,1,1.52,5.17q.08,18.08.08,36.17h0c0,2.45-.54,4.16-1.5,5.28a4.57,4.57,0,0,1-1.8,1.27,7.45,7.45,0,0,1-2.56.52l-1.32.07H68.23v.46a7.12,7.12,0,0,1-.43,2.65,3.27,3.27,0,0,1-1.6,1.81,5.09,5.09,0,0,1-1.88.45l-.43,0v.43h.46l-.41-.2a.42.42,0,0,0,0,.2h.46l-.41-.2.41.2-.25-.38a.49.49,0,0,0-.16.18l.41.2-.25-.38.24.36-.12-.42a.4.4,0,0,0-.12.06l.24.36-.12-.42.09.31-.06-.31h0l.09.31-.06-.31,0,.13,0-.14h0l0,.13,0-.14a.83.83,0,0,1-.25,0c-1,0-4.44.06-6.8.06H54.78v0h0v0l0,.37,0-.37h0l0,.37,0-.37,0,.45.1-.44H54.8l0,.45.1-.44-.21.9H57.2c1.42,0,3.21,0,4.65,0l1.8,0,.54,0,.17,0h.09l.11,0a.43.43,0,0,0,.12-.09.31.31,0,0,0,.09-.12.43.43,0,0,0,0-.21h-.47l0,.46a5.22,5.22,0,0,0,3-1,4.39,4.39,0,0,0,1.26-1.79,7.86,7.86,0,0,0,.5-3h-.47v.46h1.69c.13,0,.31,0,1.48-.08a8.46,8.46,0,0,0,2.87-.59A5.61,5.61,0,0,0,77.65,49a10.26,10.26,0,0,0,1-4.76h0q0-18.09-.08-36.18a9.3,9.3,0,0,0-1.72-5.73A5.84,5.84,0,0,0,72.13.08Q65.72,0,59.33,0q-6,0-12.09.06A6.24,6.24,0,0,0,42.5,2.24a8.29,8.29,0,0,0-1.87,5.44q-.1,11.28-.1,22.54,0,7.47,0,14.93a8.18,8.18,0,0,0,1.65,5.06,6.16,6.16,0,0,0,4.17,2.33c.51.05,1,.07,1.53.07.85,0,1.72,0,2.64,0V52.1l-.46,0a8.32,8.32,0,0,0,0,.85A5.7,5.7,0,0,0,50.41,55a3.85,3.85,0,0,0,1.71,2,7.82,7.82,0,0,0,2.55.85l.17-.91Zm4.69-29.14v.47l7.06,0q2.52,0,5,0h.06A4,4,0,0,0,73.15,28a2.88,2.88,0,0,0,1.51-1.39,5.2,5.2,0,0,0,.5-2.35c0-3.34.09-6.67.09-10,0-1.91,0-3.83,0-5.74A8,8,0,0,0,75,6.66a3.62,3.62,0,0,0-.44-1,2.61,2.61,0,0,0-1.22-1,4.57,4.57,0,0,0-1.72-.28l-13.93,0H47.61a4.39,4.39,0,0,0-1.55.24,2.49,2.49,0,0,0-.9.54,2.89,2.89,0,0,0-.81,1.39,7.46,7.46,0,0,0-.23,2c0,1.7,0,3.4,0,5.1,0,3.37,0,6.75,0,10.12a9.62,9.62,0,0,0,.18,2,3.48,3.48,0,0,0,.42,1.12A2.46,2.46,0,0,0,46,27.92a5.18,5.18,0,0,0,1.86.3H59.53v-.93H47.85a4.41,4.41,0,0,1-1.4-.18,2,2,0,0,1-.63-.35,2.08,2.08,0,0,1-.56-1,8,8,0,0,1-.19-2q0-5.07,0-10.12c0-1.7,0-3.4,0-5.1a7.18,7.18,0,0,1,.15-1.6,2.7,2.7,0,0,1,.31-.78,1.64,1.64,0,0,1,.75-.65,3.51,3.51,0,0,1,1.35-.22l10.07,0,13.93,0a4,4,0,0,1,1.26.17,1.78,1.78,0,0,1,.61.33,2,2,0,0,1,.57,1,6.28,6.28,0,0,1,.23,1.77c0,1.9,0,3.81,0,5.72,0,3.33,0,6.66-.08,10a3.66,3.66,0,0,1-.68,2.36,1.92,1.92,0,0,1-.76.54,3,3,0,0,1-1.11.19h0c-1.69,0-3.37,0-5,0H59.53Zm4.33,30.13v-.62l-.93,0v.11c0,.11,0,.23,0,.36v.15l.93,0Z"/><path class="cls-2" d="M59.75,81.29A16.66,16.66,0,1,1,43.1,97.94,16.68,16.68,0,0,1,59.75,81.29m0-.93A17.58,17.58,0,1,0,77.33,97.94,17.58,17.58,0,0,0,59.75,80.36Z"/><path class="cls-2" d="M65.38,61.44c2.22,0,4.54,4,5.17,5.43v0l3.74,7.24.23.45.51,0a11.47,11.47,0,0,1,8,4,11.17,11.17,0,0,1,2.69,7.07v34a5.14,5.14,0,0,1-5.07,5.19H25.36V113.26a2.68,2.68,0,0,0-2.8-2.63,2.64,2.64,0,0,0-2.71,2.63v11.62H8.11c-2.71,0-3.78-.44-5.13-5.37-1.41-5.12-1.59-9.66-2-19.6A64.12,64.12,0,0,1,2.86,80.54L3,80c1-4.51,2.35-5.24,5.12-5.24h37l.26-.5L49.12,67v0c.64-1.42,3-5.49,5.19-5.49h11m-5.63,59.33A22.83,22.83,0,1,0,36.92,97.94a22.85,22.85,0,0,0,22.83,22.83M32.9,87.58A4.54,4.54,0,1,0,28.36,83a4.55,4.55,0,0,0,4.54,4.54M65.38,60.51h-11c-3.33,0-6,6.05-6,6.05L44.59,73.8H8.11c-3.33,0-4.92,1.15-6,6A65.7,65.7,0,0,0,.07,100c.41,10.16.61,14.68,2,19.8s2.7,6.06,6,6.06H20.77V113.26a1.71,1.71,0,0,1,1.79-1.7h0a1.75,1.75,0,0,1,1.85,1.7v12.55H80.65a6.08,6.08,0,0,0,6-6.12v-34a12.3,12.3,0,0,0-11.52-12L71.4,66.49S68.71,60.51,65.38,60.51Zm-5.63,59.33a21.9,21.9,0,1,1,21.9-21.9A21.89,21.89,0,0,1,59.75,119.84ZM32.9,86.66A3.62,3.62,0,1,1,36.52,83,3.62,3.62,0,0,1,32.9,86.66Z"/></g></g></svg>