<svg xmlns="http://www.w3.org/2000/svg" viewBox="0 0 75.48 89.34"><defs><style>.cls-1{fill:#c2c1c1;stroke:#c2c1c1;stroke-miterlimit:10;}</style></defs><title>icon-3</title><g id="Layer_2" data-name="Layer 2"><g id="Layer_1-2" data-name="Layer 1"><path class="cls-1" d="M73.46,1,73,1l.93,21.47L72.27,21.1l-.3.36.46-.06a25.21,25.21,0,0,0-2-7.89h0a13.38,13.38,0,0,0-5.51-5.7A19,19,0,0,0,56,6H47.2a4,4,0,0,0-4,4V73.23a41,41,0,0,0,.44,6.62,7.77,7.77,0,0,0,1.42,3.74h0a7.92,7.92,0,0,0,3.3,2.16,13.67,13.67,0,0,0,4.59.7h2.56v1.46H19.38V86.45H22a12.47,12.47,0,0,0,4.92-.87,7.54,7.54,0,0,0,3.33-2.68h0a8.89,8.89,0,0,0,1.14-3.58,42.33,42.33,0,0,0,.36-6.09V9.41A3.42,3.42,0,0,0,28.33,6H20.79a50.34,50.34,0,0,0-5.29.23,16.06,16.06,0,0,0-3.57.7h0a12.39,12.39,0,0,0-6,4.88,19.56,19.56,0,0,0-2.92,9.64l.46,0-.3-.35-1.64,1.4,1-21.08H73.46V1L73,1l.47,0V.5H1.65L.55,24.6,4,21.69V21.5a18.65,18.65,0,0,1,2.76-9.19,11.45,11.45,0,0,1,5.52-4.53l-.16-.44.15.44a15.7,15.7,0,0,1,3.36-.65,51,51,0,0,1,5.19-.22h7.54a2.49,2.49,0,0,1,2.5,2.5V73.23a40.29,40.29,0,0,1-.35,6,8,8,0,0,1-1,3.19h0a6.64,6.64,0,0,1-2.93,2.36,11.75,11.75,0,0,1-4.56.8H18.46v3.31h38V85.53H53a12.68,12.68,0,0,1-4.28-.65A7.12,7.12,0,0,1,45.76,83l-.35.31.35-.3a7.09,7.09,0,0,1-1.2-3.29,39.78,39.78,0,0,1-.42-6.46V10A3,3,0,0,1,47.2,6.91H56A18,18,0,0,1,64.5,8.62a12.52,12.52,0,0,1,5.13,5.32h0a24.24,24.24,0,0,1,1.88,7.58l0,.18,3.39,2.77-1-24h-.44Z"/></g></g></svg>