<svg width="393" height="39" viewBox="0 0 393 39" fill="none" xmlns="http://www.w3.org/2000/svg">
<path d="M0 7.80003C0 3.36472 3.36471 0.152954 7.95295 0.152954C12.5412 0.152954 15.9059 3.36472 15.9059 7.80003C15.9059 12.2353 12.5412 15.4471 7.95295 15.4471C3.36471 15.4471 0 12.0824 0 7.80003ZM13.7647 7.80003C13.7647 4.43531 11.3177 1.98825 7.95295 1.98825C4.58824 1.98825 2.14118 4.43531 2.14118 7.80003C2.14118 11.1647 4.58824 13.6118 7.95295 13.6118C11.3177 13.4589 13.7647 11.0118 13.7647 7.80003Z" fill="#A5A5A5"/>
<path d="M42.5179 15.2942L39.3061 10.7059C39.0002 10.7059 38.6943 10.7059 38.3884 10.7059H34.7178V15.2942H32.5767V0.305908H38.3884C42.3649 0.305908 44.659 2.29415 44.659 5.50592C44.659 7.80004 43.4355 9.48239 41.2943 10.2471L44.812 15.2942H42.5179ZM42.5179 5.50592C42.5179 3.36474 41.1414 2.14121 38.3884 2.14121H34.7178V8.87063H38.3884C40.9884 8.87063 42.5179 7.6471 42.5179 5.50592Z" fill="#A5A5A5"/>
<path d="M61.4824 0.152954H63.6236V15.1412H61.4824V0.152954Z" fill="#A5A5A5"/>
<path d="M91.7647 7.64707H93.7529V13.4588C92.2235 14.6824 90.2352 15.2941 88.0941 15.2941C83.5058 15.2941 80.1411 12.0824 80.1411 7.64707C80.1411 3.21177 83.5058 0 88.247 0C90.6941 0 92.6823 0.764707 94.0588 2.29412L92.6823 3.6706C91.4588 2.44707 90.0823 1.98824 88.4 1.98824C84.8823 1.98824 82.4352 4.4353 82.4352 7.80002C82.4352 11.1647 84.8823 13.6118 88.4 13.6118C89.6235 13.6118 90.847 13.3059 91.9176 12.6941V7.64707H91.7647Z" fill="#A5A5A5"/>
<path d="M111.341 0.152954H113.482V15.1412H111.341V0.152954Z" fill="#A5A5A5"/>
<path d="M144.223 0.152954V15.1412H142.388L133.365 3.97649V15.1412H131.223V0.152954H133.059L142.082 11.3177V0.152954H144.223V0.152954Z" fill="#A5A5A5"/>
<path d="M171.6 11.4706H163.647L161.965 15.2942H159.824L166.706 0.305908H168.847L175.73 15.2942H173.436L171.6 11.4706ZM170.836 9.78828L167.624 2.44709L164.412 9.78828H170.836Z" fill="#A5A5A5"/>
<path d="M191.024 0.152954H193.165V13.3059H201.271V15.1412H191.024V0.152954V0.152954Z" fill="#A5A5A5"/>
<path d="M239.2 2.14121H234V0.305908H246.389V2.14121H241.189V15.2942H239.048V2.14121H239.2Z" fill="#A5A5A5"/>
<path d="M274.989 0.152954V15.1412H272.848V8.41179H264.283V15.1412H262.142V0.152954H264.283V6.57649H272.848V0.152954H274.989V0.152954Z" fill="#A5A5A5"/>
<path d="M302.977 15.2942L299.765 10.7059C299.459 10.7059 299.153 10.7059 298.848 10.7059H295.177V15.2942H292.883V0.305908H298.695C302.671 0.305908 304.965 2.29415 304.965 5.50592C304.965 7.80004 303.742 9.48239 301.6 10.2471L305.118 15.2942H302.977ZM302.824 5.50592C302.824 3.36474 301.448 2.14121 298.695 2.14121H295.024V8.87063H298.695C301.448 8.87063 302.824 7.6471 302.824 5.50592Z" fill="#A5A5A5"/>
<path d="M332.647 13.4589V15.2942H321.789V0.305908H332.342V2.14121H323.93V6.72945H331.424V8.56475H323.93V13.4589H332.647V13.4589Z" fill="#A5A5A5"/>
<path d="M359.106 11.4706H351.001L349.318 15.2942H347.177L354.059 0.305908H356.201L363.083 15.2942H360.789L359.106 11.4706ZM358.342 9.78828L355.13 2.44709L351.918 9.78828H358.342Z" fill="#A5A5A5"/>
<path d="M378.53 0.152954H384.801C389.695 0.152954 392.907 3.21178 392.907 7.64708C392.907 12.0824 389.695 15.1412 384.801 15.1412H378.53V0.152954ZM384.648 13.4589C388.318 13.4589 390.765 11.1647 390.765 7.80003C390.765 4.43531 388.318 2.14119 384.648 2.14119H380.518V13.4589H384.648V13.4589Z" fill="#A5A5A5"/>
<path d="M9.0237 35.9413C9.0237 37.6237 7.64723 38.6942 5.20017 38.6942H0.458984V28.7531H4.89428C7.1884 28.7531 8.41193 29.6707 8.41193 31.3531C8.41193 32.4237 7.80017 33.1884 7.03546 33.6472C8.25899 33.8001 9.0237 34.7178 9.0237 35.9413ZM1.83545 29.8236V33.0354H4.74134C6.27075 33.0354 7.03546 32.4237 7.03546 31.506C7.03546 30.4354 6.27075 29.9766 4.74134 29.9766H1.83545V29.8236ZM7.64723 35.9413C7.64723 34.7178 6.72958 34.2589 5.20017 34.2589H1.83545V37.6237H5.20017C6.72958 37.4707 7.64723 37.0119 7.64723 35.9413Z" fill="#A5A5A5"/>
<path d="M15.753 28.7531H17.1295V37.4707H22.4825V38.6942H15.6001V28.7531H15.753Z" fill="#A5A5A5"/>
<path d="M27.6826 33.6472C27.6826 30.7413 29.9767 28.6001 33.0356 28.6001C36.0944 28.6001 38.3885 30.7413 38.3885 33.6472C38.3885 36.5531 36.0944 38.6942 33.0356 38.6942C29.9767 38.8472 27.6826 36.706 27.6826 33.6472ZM37.012 33.6472C37.012 31.506 35.3297 29.8236 33.1885 29.8236C30.8944 29.8236 29.212 31.506 29.212 33.6472C29.212 35.9413 30.8944 37.4707 33.1885 37.4707C35.3297 37.4707 37.012 35.9413 37.012 33.6472Z" fill="#A5A5A5"/>
<path d="M44.2004 33.6472C44.2004 30.7413 46.4946 28.6001 49.5534 28.6001C51.0828 28.6001 52.4593 29.0589 53.3769 30.1295L52.4593 31.0472C51.6946 30.2825 50.7769 29.8236 49.7063 29.8236C47.4122 29.8236 45.7299 31.506 45.7299 33.6472C45.7299 35.9413 47.4122 37.4707 49.7063 37.4707C50.7769 37.4707 51.6946 37.0119 52.4593 36.2472L53.3769 37.1648C52.4593 38.2354 51.0828 38.6942 49.5534 38.6942C46.4946 38.8472 44.2004 36.706 44.2004 33.6472Z" fill="#A5A5A5"/>
<path d="M63.1649 34.2589L61.3296 36.0942V38.6942H59.9531V28.7531H61.3296V34.4119L66.8355 28.7531H68.5179L64.2355 33.1884L68.8237 38.6942H67.1414L63.1649 34.2589Z" fill="#A5A5A5"/>
<path d="M73.5649 33.6472C73.5649 30.7413 75.8591 28.6001 78.9179 28.6001C80.4473 28.6001 81.8238 29.0589 82.7414 30.1295L81.8238 31.0472C81.0591 30.2825 80.1414 29.8236 79.0708 29.8236C76.7767 29.8236 75.0944 31.506 75.0944 33.6472C75.0944 35.9413 76.7767 37.4707 79.0708 37.4707C80.1414 37.4707 81.0591 37.0119 81.8238 36.2472L82.7414 37.1648C81.8238 38.2354 80.4473 38.6942 78.9179 38.6942C75.8591 38.8472 73.5649 36.706 73.5649 33.6472Z" fill="#A5A5A5"/>
<path d="M97.7293 28.7531V38.6942H96.3528V34.2589H90.541V38.6942H89.1646V28.7531H90.541V33.0354H96.3528V28.7531H97.7293Z" fill="#A5A5A5"/>
<path d="M111.647 36.2472H106.294L105.224 38.6942H103.694L108.282 28.7531H109.659L114.247 38.6942H112.718L111.647 36.2472ZM111.188 35.0236L109.047 30.1295L106.906 35.0236H111.188Z" fill="#A5A5A5"/>
<path d="M120.212 28.7531H121.589V38.6942H120.212V28.7531Z" fill="#A5A5A5"/>
<path d="M137.8 28.7531V38.6942H136.577L130.612 31.2001V38.6942H129.236V28.7531H130.459L136.424 36.2472V28.7531H137.8Z" fill="#A5A5A5"/>
<path d="M169.612 33.6472C169.612 30.7413 171.906 28.6001 174.965 28.6001C176.494 28.6001 177.871 29.0589 178.788 30.1295L177.871 31.0472C177.106 30.2825 176.188 29.8236 175.118 29.8236C172.824 29.8236 171.141 31.506 171.141 33.6472C171.141 35.9413 172.824 37.4707 175.118 37.4707C176.188 37.4707 177.106 37.0119 177.871 36.2472L178.788 37.1648C177.871 38.2354 176.494 38.6942 174.965 38.6942C171.753 38.8472 169.612 36.706 169.612 33.6472Z" fill="#A5A5A5"/>
<path d="M185.059 34.4119V28.7531H186.436V34.4119C186.436 36.5531 187.506 37.6237 189.189 37.6237C190.871 37.6237 192.095 36.5531 192.095 34.4119V28.7531H193.471V34.4119C193.471 37.3178 191.942 38.8472 189.189 38.8472C186.742 38.8472 185.059 37.3178 185.059 34.4119Z" fill="#A5A5A5"/>
<path d="M200.047 37.6237L200.506 36.5531C201.271 37.1648 202.494 37.7766 203.871 37.7766C205.553 37.7766 206.318 37.1648 206.318 36.2472C206.318 33.8001 200.2 35.3295 200.2 31.6589C200.2 30.1295 201.424 28.7531 204.024 28.7531C205.247 28.7531 206.471 29.0589 207.235 29.6707L206.777 30.7413C205.859 30.1295 204.941 29.9766 204.024 29.9766C202.341 29.9766 201.577 30.7413 201.577 31.506C201.577 33.9531 207.694 32.4237 207.694 36.0942C207.694 37.6237 206.471 39.0001 203.871 39.0001C202.341 38.8472 200.812 38.2354 200.047 37.6237Z" fill="#A5A5A5"/>
<path d="M216.259 29.9766H212.895V28.7531H221.154V29.9766H217.789V38.6942H216.412V29.9766H216.259Z" fill="#A5A5A5"/>
<path d="M226.2 33.6472C226.2 30.7413 228.494 28.6001 231.553 28.6001C234.612 28.6001 236.906 30.7413 236.906 33.6472C236.906 36.5531 234.612 38.6942 231.553 38.6942C228.494 38.8472 226.2 36.706 226.2 33.6472ZM235.377 33.6472C235.377 31.506 233.694 29.8236 231.553 29.8236C229.259 29.8236 227.577 31.506 227.577 33.6472C227.577 35.9413 229.259 37.4707 231.553 37.4707C233.694 37.4707 235.377 35.9413 235.377 33.6472Z" fill="#A5A5A5"/>
<path d="M252.813 38.6942V31.3531L249.142 37.4707H248.53L244.86 31.506V38.6942H243.483V28.7531H244.707L248.836 35.7884L252.966 28.7531H254.189V38.6942H252.813Z" fill="#A5A5A5"/>
<path d="M285.847 33.6472C285.847 30.7413 288.142 28.6001 291.2 28.6001C292.73 28.6001 294.106 29.0589 295.024 30.1295L294.106 31.0472C293.342 30.2825 292.424 29.8236 291.353 29.8236C289.059 29.8236 287.377 31.506 287.377 33.6472C287.377 35.9413 289.059 37.4707 291.353 37.4707C292.424 37.4707 293.342 37.0119 294.106 36.2472L295.024 37.1648C294.106 38.2354 292.73 38.6942 291.2 38.6942C288.142 38.8472 285.847 36.706 285.847 33.6472Z" fill="#A5A5A5"/>
<path d="M301.601 28.7531H302.977V37.4707H308.33V38.6942H301.448V28.7531H301.601Z" fill="#A5A5A5"/>
<path d="M313.53 33.6472C313.53 30.7413 315.824 28.6001 318.883 28.6001C321.942 28.6001 324.236 30.7413 324.236 33.6472C324.236 36.5531 321.942 38.6942 318.883 38.6942C315.824 38.8472 313.53 36.706 313.53 33.6472ZM322.707 33.6472C322.707 31.506 321.024 29.8236 318.883 29.8236C316.589 29.8236 314.906 31.506 314.906 33.6472C314.906 35.9413 316.589 37.4707 318.883 37.4707C321.177 37.4707 322.707 35.9413 322.707 33.6472Z" fill="#A5A5A5"/>
<path d="M332.801 29.9766H329.436V28.7531H337.695V29.9766H334.177V38.6942H332.801V29.9766Z" fill="#A5A5A5"/>
<path d="M352.224 28.7531V38.6942H350.848V34.2589H345.036V38.6942H343.66V28.7531H345.036V33.0354H350.848V28.7531H352.224Z" fill="#A5A5A5"/>
<path d="M359.719 28.7531H361.095V38.6942H359.719V28.7531Z" fill="#A5A5A5"/>
<path d="M375.93 37.4707V38.6942H368.589V28.7531H375.624V29.9766H369.965V33.0354H375.012V34.2589H369.965V37.4707H375.93V37.4707Z" fill="#A5A5A5"/>
<path d="M389.542 38.6942L387.401 35.6354C387.248 35.6354 386.942 35.6354 386.789 35.6354H384.342V38.6942H382.965V28.7531H386.942C389.542 28.7531 391.071 30.1295 391.071 32.2707C391.071 33.8001 390.307 34.8707 388.93 35.4825L391.377 38.8472H389.542V38.6942ZM389.389 32.1178C389.389 30.7413 388.471 29.8236 386.636 29.8236H384.189V34.2589H386.636C388.471 34.4119 389.389 33.6472 389.389 32.1178Z" fill="#A5A5A5"/>
</svg>
