<svg width="48" height="52" viewBox="0 0 48 52" fill="none" xmlns="http://www.w3.org/2000/svg">
<path d="M23.5533 46.4742C23.4496 45.5217 24.2796 44.6106 23.4288 43.6581C23.3458 43.5545 23.4911 43.2025 23.5741 42.9954C23.9476 42.0015 24.3419 41.0076 24.6947 39.9929C24.9437 39.3096 25.421 38.6884 24.8607 37.8394C24.6117 37.4667 24.9437 36.7212 25.0682 36.1414C25.2757 35.1268 25.5662 34.1328 25.753 33.1182C25.8568 32.5591 26.1888 32 25.5455 31.3788C25.2342 31.0682 25.5455 30.1364 25.5662 29.4944C25.587 28.8939 25.9813 28.1899 25.1512 27.7757C25.0267 27.7136 25.0475 27.3202 25.0682 27.0924C25.1305 26.1399 25.2135 25.1667 25.3172 24.2141C25.3795 23.6757 25.6077 23.1374 24.8192 22.8889C24.6947 22.8475 24.6532 22.4126 24.6324 22.1434C24.5494 21.2116 24.4664 20.3005 24.3834 19.1823C24.0099 19.6793 23.7194 20.0313 23.4288 20.3833C22.495 21.5222 21.2292 21.4394 20.6481 20.0934C20.0671 18.7682 19.6935 17.3808 19.237 16.0141C19.1332 15.7035 19.071 15.3515 18.988 14.9995C16.7883 16.7389 9.77426 26.1606 7.05579 31.0268C6.72377 30.7161 6.37099 30.4677 6.14272 30.1364C4.83537 28.252 4.46184 26.0778 4.31658 23.8621C4.08831 20.2384 4.54485 16.7182 5.97671 13.3429C6.01821 13.2601 5.99746 13.1566 5.8107 12.8874C4.23357 14.6061 2.65645 16.304 0.975567 18.1677C0.871809 17.7535 0.768052 17.5672 0.788804 17.3808C1.49436 12.1833 3.42426 7.66919 7.94811 4.64596C11.3306 2.38889 15.1282 1.60202 19.1332 1.37424C20.4821 1.29141 21.8517 1.02222 23.1798 0.690909C24.2381 0.442424 25.1927 0.421717 26.1888 0.897979C27.3301 1.43636 28.513 1.72626 29.8618 1.62273C33.4519 1.37424 36.9589 1.78838 40.2584 3.40353C44.637 5.57777 46.7744 9.26363 47.1894 13.9434C47.397 16.2005 47.1272 18.4783 47.0442 20.7561C47.0442 21.0252 46.8989 21.3151 46.8159 21.5843C46.7122 21.605 46.6084 21.605 46.5046 21.6257C44.3257 18.2919 42.3128 14.8131 38.951 12.3904C39.4906 14.3783 40.0924 16.2626 40.4867 18.1884C41.0885 21.1081 40.9847 24.0278 39.9471 26.8439C39.8019 27.2167 39.4698 27.5273 39.2001 27.8793C38.9925 27.5894 38.785 27.2995 38.5568 27.0096C37.4984 25.6843 36.5439 24.2763 35.361 23.0752C33.4934 21.1702 31.4805 19.3894 29.7373 17.7742C30.1524 18.7061 30.6711 20.0106 31.2522 21.2737C31.5427 21.9157 31.6465 22.4333 30.6296 22.4747C31.2107 24.3177 31.7295 26.0571 32.269 27.7965C32.3313 28.0242 32.5388 28.3348 32.4558 28.4591C31.4182 30.0742 32.4558 31.7308 32.3728 33.3667C32.3313 33.9879 32.7878 34.6298 32.0408 35.1268C31.9162 35.2096 31.9993 35.6444 32.02 35.9136C32.1653 38.3985 32.3313 40.8626 32.4973 43.3475C32.5388 43.9065 32.6426 44.5278 31.7295 44.3828C31.7295 45.0868 31.7295 45.7081 31.7295 46.3293L23.5533 46.4742ZM31.7502 47.1161C31.688 47.8616 31.5842 48.3172 31.6465 48.752C31.8125 49.9323 31.2107 50.5121 30.1939 50.9055C27.8282 51.8374 25.6077 51.4232 23.4288 50.2636C22.7025 49.8702 22.3082 49.5389 22.8478 48.7106C23.076 48.3586 23.1176 47.8823 23.2836 47.3646L31.7502 47.1161ZM18.3032 6.55101C17.7844 6.8202 17.3278 7.00657 16.9128 7.29646C13.9246 9.22222 11.8494 11.9556 10.2515 15.0616C9.56674 16.4076 9.04795 17.8364 8.40465 19.203C8.21789 19.5758 7.88586 19.8864 7.61609 20.2177C7.63684 19.8242 7.59534 19.3894 7.71985 19.0167C8.03112 18.1055 8.3839 17.2151 8.79893 16.3454C10.8741 11.9763 13.4058 8.0005 18.0334 5.86767C18.2202 5.78484 18.3032 5.51565 18.4899 5.26717C18.1994 5.18434 18.1164 5.14292 18.0127 5.14292C13.6341 5.63989 10.1685 7.66919 7.8236 11.4379C5.1674 15.7242 4.50334 20.4247 5.16739 25.353C5.37491 26.906 5.74844 28.4384 6.78602 29.805C7.07654 29.2874 7.28406 28.8525 7.53308 28.4591C10.3346 23.8 13.8623 19.6793 17.3901 15.5793C18.2824 14.5232 18.9672 13.6121 18.656 12.0591C18.3239 10.299 18.4069 8.47677 18.3032 6.55101ZM24.1966 1.16717C22.993 1.49848 21.9555 1.76768 20.9386 2.07828C19.7143 2.45101 19.1747 3.05151 19.1955 4.31464C19.237 7.27575 19.1747 10.2576 19.5275 13.1773C19.7973 15.3722 20.5444 17.505 21.2499 19.6172C21.6027 20.6732 22.3082 20.6939 22.993 19.7621C26.1888 15.3515 28.3677 10.4853 29.4053 5.14292C29.5921 4.16969 29.4883 3.19646 28.5337 2.67878C27.4339 2.07828 26.251 1.66414 25.0267 1.14646C23.7609 5.10151 23.0138 8.95303 23.2213 13.1566C22.8478 12.9288 22.661 12.8874 22.661 12.8045C22.1007 8.84949 23.1175 5.10151 24.1966 1.16717ZM29.6751 7.66919C28.9903 9.49141 28.4507 11.2101 27.7037 12.8045C27.2886 13.6742 27.5169 14.0884 28.1394 14.7096C30.8579 17.4015 33.5349 20.1348 36.1703 22.9096C37.2494 24.0485 38.1832 25.2909 39.2208 26.5333C41.8978 19.555 37.9342 7.46212 30.2146 4.79091C29.7788 5.9505 29.8826 6.86161 30.8372 7.89697C33.4726 10.7338 35.693 13.8813 37.0626 17.5672C37.1872 17.8778 37.1872 18.2505 37.2287 18.6025C37.0834 18.6646 36.9381 18.7061 36.8136 18.7682C35.2365 14.5646 32.7463 11.003 29.6751 7.66919ZM46.4216 20.0106C46.9404 14.8338 46.8159 9.96767 42.9561 6.19899C39.2208 2.55454 34.4479 2.11969 29.4883 2.47171C29.8411 3.09293 30.1524 3.79697 30.6919 4.06616C33.7424 5.55707 36.0666 7.75202 37.7682 10.651C37.9342 10.9409 38.1625 11.2515 38.453 11.3965C40.4244 12.3283 41.8355 13.8813 43.1429 15.5379C44.2427 16.9045 45.2388 18.3747 46.4216 20.0106ZM19.0502 2.22323C11.1646 1.12576 1.51511 8.82879 1.86789 15.6621C3.40351 14.399 5.06364 13.053 6.72377 11.6864C6.93128 11.5207 7.03504 11.2515 7.20105 11.0237C8.36315 9.24293 9.79501 7.73131 11.6004 6.57172C13.6548 5.28788 15.9167 4.62525 18.2617 4.37677C18.5314 3.61061 18.8012 2.92727 19.0502 2.22323ZM26.8113 31.7929C26.3963 33.6358 26.002 35.3338 25.67 37.0525C25.6077 37.3631 25.7738 37.8394 26.0228 38.0672C27.0604 39.0818 28.1394 40.0343 29.2185 40.9869C29.9863 41.6702 30.7749 42.3535 31.7295 43.1818C31.5842 41.1525 31.3974 39.4131 31.3559 37.653C31.3144 35.8308 31.2107 34.2156 29.5298 32.9525C28.679 32.3313 27.9112 31.9172 26.8113 31.7929ZM23.4703 49.4146C25.5455 50.7192 27.6829 51.1126 29.9863 50.2015C30.9409 49.8288 31.3144 48.4207 30.5466 47.6959C28.8865 46.1015 26.8528 45.1283 24.6117 44.3207C24.4457 45.2318 24.3419 46.0394 24.1759 46.847C23.9891 47.6752 23.7401 48.4828 23.4703 49.4146ZM27.0811 14.5853C25.172 17.1323 24.6117 20.0106 25.5662 22.2263C27.2056 22.0606 28.8658 21.8949 30.7334 21.6879C29.3638 19.2859 28.8865 16.6768 27.0811 14.5853ZM24.2796 43.1611C26.5623 44.3828 28.7827 45.5631 31.0447 46.7641C31.0447 45.9151 31.0862 45.0454 31.0239 44.1964C31.0032 43.8651 30.8372 43.4303 30.6089 43.2232C29.094 41.8151 27.5376 40.4692 25.919 39.0197C25.338 40.4692 24.7984 41.8358 24.2796 43.1611ZM31.3975 27.6101C30.8994 25.8914 30.4221 24.2141 29.9241 22.5162C28.8035 22.6404 27.7867 22.7232 26.7698 22.8682C26.5416 22.9096 26.168 23.1581 26.1473 23.3444C26.002 24.5869 25.9398 25.85 25.8568 27.0924C27.7244 27.2788 29.4883 27.4444 31.3975 27.6101ZM31.6672 33.7601C31.5427 32.5384 31.3767 31.2959 31.2729 30.0742C31.1277 28.3763 31.1692 28.2313 29.4675 28.1278C25.919 27.9207 26.4586 27.1131 26.2303 30.7161C26.2303 30.7783 26.2925 30.8404 26.3756 31.0061C28.6997 30.7162 29.9656 32.5384 31.6672 33.7601Z" fill="white" stroke="white" stroke-width="0.25" stroke-miterlimit="10"/>
</svg>
