<svg width="62" height="68" viewBox="0 0 62 68" fill="none" xmlns="http://www.w3.org/2000/svg">
<path d="M30.1341 60.8264C29.9968 59.5657 31.0954 58.3597 29.9693 57.099C29.8595 56.962 30.0517 56.496 30.1616 56.222C30.656 54.9064 31.1778 53.5909 31.6448 52.2479C31.9744 51.3435 32.6061 50.5212 31.8645 49.3975C31.5349 48.9042 31.9744 47.9175 32.1392 47.1501C32.4138 45.8072 32.7983 44.4916 33.0455 43.1487C33.1829 42.4087 33.6223 41.6687 32.7709 40.8464C32.3589 40.4353 32.7709 39.202 32.7983 38.3524C32.8258 37.5575 33.3477 36.6257 32.249 36.0776C32.0842 35.9953 32.1117 35.4746 32.1392 35.1731C32.2216 33.9124 32.3314 32.6242 32.4687 31.3635C32.5511 30.6509 32.8533 29.9383 31.8096 29.6094C31.6448 29.5546 31.5898 28.979 31.5624 28.6228C31.4525 27.3894 31.3426 26.1835 31.2328 24.7035C30.7384 25.3613 30.3538 25.8272 29.9693 26.2931C28.7333 27.8005 27.0579 27.6909 26.2888 25.9094C25.5198 24.1554 25.0254 22.3191 24.4211 20.5102C24.2838 20.0991 24.2014 19.6331 24.0915 19.1672C21.1801 21.4694 11.8965 33.9398 8.29837 40.3805C7.85891 39.9694 7.39198 39.6405 7.08985 39.202C5.35947 36.7079 4.86508 33.8302 4.67281 30.8976C4.37068 26.1013 4.97494 21.442 6.87012 16.9746C6.92505 16.865 6.89759 16.728 6.65039 16.3717C4.56295 18.6465 2.4755 20.8939 0.250731 23.3605C0.113399 22.8124 -0.0239311 22.5657 0.00353521 22.3191C0.937391 15.4398 3.49176 9.46501 9.47942 5.46353C13.9564 2.47613 18.9828 1.43465 24.2838 1.13317C26.0691 1.02354 27.8819 0.667247 29.6397 0.228729C31.0405 -0.100159 32.304 -0.127566 33.6223 0.502803C35.133 1.21539 36.6986 1.5991 38.4839 1.46206C43.2356 1.13317 47.8774 1.68132 52.2445 3.81909C58.0399 6.69686 60.869 11.5754 61.4183 17.7694C61.6929 20.7568 61.3359 23.7717 61.226 26.7865C61.226 27.1428 61.0337 27.5265 60.9239 27.8828C60.7865 27.9102 60.6492 27.9102 60.5119 27.9376C57.6279 23.525 54.9637 18.9205 50.5141 15.7139C51.2283 18.345 52.0248 20.8391 52.5466 23.3879C53.3432 27.2524 53.2058 31.1168 51.8325 34.8442C51.6403 35.3376 51.2008 35.7487 50.8437 36.2146C50.5691 35.8309 50.2944 35.4472 49.9923 35.0635C48.5915 33.3094 47.328 31.4457 45.7625 29.8561C43.2905 27.3346 40.6263 24.9776 38.3191 22.8398C38.8684 24.0731 39.5551 25.7998 40.3241 27.4716C40.7087 28.3213 40.846 29.0065 39.5001 29.0613C40.2692 31.5005 40.9558 33.8027 41.67 36.105C41.7524 36.4064 42.027 36.8176 41.9172 36.982C40.5439 39.1198 41.9172 41.3124 41.8073 43.4775C41.7524 44.2998 42.3566 45.1494 41.3679 45.8072C41.2031 45.9168 41.3129 46.4923 41.3404 46.8486C41.5326 50.1375 41.7524 53.399 41.9721 56.6879C42.027 57.4279 42.1644 58.2501 40.9559 58.0583C40.9559 58.9901 40.9559 59.8123 40.9559 60.6346L30.1341 60.8264ZM40.9833 61.676C40.9009 62.6627 40.7636 63.2657 40.846 63.8412C41.0657 65.4034 40.2692 66.1708 38.9233 66.6916C35.7922 67.9249 32.8533 67.3768 29.9693 65.8419C29.008 65.3212 28.4861 64.8827 29.2003 63.7864C29.5024 63.3205 29.5573 62.6901 29.777 62.0049L40.9833 61.676ZM23.1851 7.98501C22.4985 8.34131 21.8942 8.58798 21.3449 8.97168C17.3897 11.5206 14.6431 15.1383 12.5282 19.2494C11.6218 21.0309 10.9351 22.922 10.0837 24.7309C9.83648 25.2242 9.39702 25.6354 9.03996 26.0739C9.06743 25.5531 9.01249 24.9776 9.17729 24.4842C9.58929 23.2783 10.0562 22.0998 10.6055 20.9487C13.3522 15.1657 16.7031 9.90352 22.8281 7.08057C23.0753 6.97094 23.1851 6.61464 23.4323 6.28575C23.0478 6.17612 22.9379 6.12131 22.8006 6.12131C17.0052 6.77908 12.4183 9.46501 9.31462 14.4532C5.79893 20.1265 4.92001 26.3479 5.79893 32.8709C6.07359 34.9264 6.56799 36.9546 7.94131 38.7635C8.32584 38.0783 8.6005 37.5027 8.9301 36.982C12.6381 30.8153 17.3073 25.3613 21.9766 19.9346C23.1577 18.5368 24.0641 17.3309 23.6521 15.2754C23.2126 12.9457 23.3225 10.5339 23.1851 7.98501ZM30.9856 0.8591C29.3925 1.29762 28.0192 1.65391 26.6734 2.06502C25.0528 2.55835 24.3387 3.35316 24.3662 5.02501C24.4211 8.94427 24.3387 12.8909 24.8056 16.7554C25.1627 19.6605 26.1515 22.4835 27.0854 25.2791C27.5523 26.6768 28.4861 26.7042 29.3925 25.4709C33.6223 19.6331 36.5063 13.1924 37.8796 6.12131C38.1268 4.83316 37.9895 3.54502 36.726 2.85983C35.2703 2.06502 33.7047 1.51687 32.0842 0.831691C30.4088 6.0665 29.42 11.1643 29.6947 16.728C29.2003 16.4265 28.9531 16.3717 28.9531 16.262C28.2115 11.0272 29.5573 6.0665 30.9856 0.8591ZM38.2367 9.46501C37.3303 11.8769 36.6162 14.1517 35.6274 16.262C35.0781 17.4131 35.3802 17.9613 36.2042 18.7835C39.8023 22.3465 43.3454 25.9642 46.8336 29.6368C48.2619 31.1442 49.4979 32.7887 50.8712 34.4331C54.4144 25.1968 49.1683 9.19094 38.9508 5.65539C38.374 7.1902 38.5113 8.39612 39.7748 9.76649C43.263 13.5213 46.2019 17.6872 48.0147 22.5657C48.1795 22.9768 48.1795 23.4702 48.2344 23.9361C48.0422 24.0183 47.8499 24.0731 47.6851 24.1554C45.5977 18.5917 42.3017 13.8776 38.2367 9.46501ZM60.402 25.7998C61.0887 18.948 60.9239 12.5072 55.8151 7.51908C50.8712 2.69539 44.5539 2.11983 37.9895 2.58576C38.4564 3.40798 38.8684 4.33983 39.5825 4.69613C43.6201 6.66946 46.6963 9.57464 48.9486 13.4117C49.1683 13.7954 49.4704 14.2065 49.8549 14.3983C52.4642 15.6317 54.332 17.6872 56.0623 19.8798C57.5181 21.6887 58.8364 23.6346 60.402 25.7998ZM24.1739 2.25687C13.7367 0.804282 0.964856 10.9998 1.43178 20.0443C3.46429 18.3724 5.6616 16.5909 7.85891 14.782C8.13357 14.5628 8.2709 14.2065 8.49063 13.905C10.0287 11.548 11.9239 9.54723 14.3135 8.01242C17.0327 6.31317 20.0265 5.43613 23.1302 5.10724C23.4873 4.09317 23.8443 3.18872 24.1739 2.25687ZM34.4463 41.3946C33.897 43.8338 33.3751 46.0812 32.9357 48.356C32.8533 48.7672 33.073 49.3975 33.4026 49.699C34.7759 51.042 36.2042 52.3027 37.6324 53.5634C38.6487 54.4679 39.6924 55.3723 40.9559 56.4686C40.7636 53.7827 40.5164 51.4805 40.4615 49.1509C40.4065 46.739 40.2692 44.6012 38.0444 42.9294C36.9183 42.1072 35.902 41.559 34.4463 41.3946ZM30.0242 64.7182C32.7709 66.4449 35.5999 66.9656 38.6487 65.7597C39.9121 65.2664 40.4065 63.4027 39.3903 62.4434C37.193 60.3331 34.5013 59.0449 31.5349 57.976C31.3152 59.182 31.1778 60.2509 30.9581 61.3197C30.7109 62.416 30.3813 63.4849 30.0242 64.7182ZM34.8034 18.6191C32.2765 21.9902 31.5349 25.7998 32.7983 28.7324C34.9682 28.5131 37.1655 28.2939 39.6375 28.0198C37.8247 24.8405 37.193 21.3872 34.8034 18.6191ZM31.0954 56.4412C34.1167 58.0583 37.0556 59.6205 40.0495 61.2101C40.0495 60.0864 40.1044 58.9353 40.022 57.8116C39.9945 57.3731 39.7748 56.7975 39.4727 56.5234C37.4676 54.6597 35.4076 52.8783 33.2653 50.9597C32.4962 52.8783 31.7821 54.6871 31.0954 56.4412ZM40.5164 35.8583C39.8572 33.5835 39.2255 31.3635 38.5663 29.1161C37.0831 29.2805 35.7372 29.3902 34.3914 29.582C34.0893 29.6368 33.5949 29.9657 33.5674 30.2124C33.3751 31.8568 33.2927 33.5287 33.1829 35.1731C35.6548 35.4198 37.9895 35.639 40.5164 35.8583ZM40.8735 43.9983C40.7087 42.3812 40.4889 40.7368 40.3516 39.1198C40.1593 36.8724 40.2143 36.6805 37.962 36.5435C33.2653 36.2694 33.9794 35.2005 33.6773 39.9694C33.6773 40.0516 33.7597 40.1338 33.8695 40.3531C36.9458 39.9694 38.6212 42.3812 40.8735 43.9983Z" fill="#989898"/>
</svg>
