<svg width="41" height="40" viewBox="0 0 41 40" fill="none" xmlns="http://www.w3.org/2000/svg">
<path d="M21.8777 34.5391C21.8777 34.9796 21.7151 35.4202 21.3667 35.7449L19.8106 37.2985C19.6016 37.5072 19.6016 37.8318 19.8106 38.0405L20.7396 38.9681C20.9719 39.1999 20.9719 39.571 20.7396 39.826C20.5074 40.0579 20.1358 40.0579 19.8803 39.826L18.9513 38.8985C18.2778 38.226 18.2778 37.1362 18.9513 36.4637L20.5074 34.9101C20.7164 34.7014 20.7164 34.3767 20.5074 34.1681L20.2055 33.8666C19.9732 33.6347 19.9732 33.2637 20.2055 33.0086C20.4377 32.7767 20.8093 32.7767 21.0648 33.0086L21.3667 33.3101C21.7151 33.6579 21.8777 34.0985 21.8777 34.5391Z" fill="white"/>
<path d="M34.7445 33.542C34.7445 33.8667 34.4659 34.1449 34.1407 34.1449H32.8169C31.8646 34.1449 31.0982 33.3797 31.0982 32.429V30.2493C31.0982 29.971 30.8659 29.7391 30.5872 29.7391H30.146C29.8208 29.7391 29.5421 29.4609 29.5421 29.1362C29.5421 28.8116 29.8208 28.5333 30.146 28.5333H30.5872C31.5395 28.5333 32.3059 29.2985 32.3059 30.2493V32.429C32.3059 32.7072 32.5382 32.9391 32.8169 32.9391H34.1407C34.4891 32.9391 34.7445 33.2174 34.7445 33.542Z" fill="white"/>
<path d="M11.473 29.7855V30.2261C11.473 31.1768 10.7066 31.942 9.75438 31.942H7.5712C7.2925 31.942 7.06025 32.1739 7.06025 32.4522V33.7739C7.06025 34.0986 6.78155 34.3768 6.4564 34.3768C6.13124 34.3768 5.85254 34.0986 5.85254 33.7739V32.4522C5.85254 31.5015 6.61897 30.7362 7.5712 30.7362H9.75438C10.0331 30.7362 10.2653 30.5044 10.2653 30.2261V29.7855C10.2653 29.4609 10.544 29.1826 10.8692 29.1826C11.1943 29.1826 11.473 29.4609 11.473 29.7855Z" fill="white"/>
<path d="M16.2571 33.4029C16.2571 33.6348 16.2106 33.8435 16.1177 34.0522C15.9319 34.4696 15.6068 34.7942 15.1887 34.9798L13.1682 35.8145C12.9127 35.9305 12.7733 36.2319 12.8895 36.487L13.4004 37.716C13.5398 38.0174 13.3772 38.3653 13.0753 38.5044C12.7733 38.6203 12.425 38.4812 12.2856 38.1797L11.7746 36.9508C11.403 36.0696 11.8211 35.0725 12.7037 34.7015L14.7242 33.8667C14.8636 33.8203 14.9565 33.7044 15.0029 33.5884C15.0494 33.4725 15.0494 33.3102 15.0029 33.1942L14.8404 32.8C14.7242 32.4986 14.8636 32.1508 15.1655 32.0116C15.4674 31.8957 15.8158 32.0348 15.9552 32.3363L16.1177 32.7305C16.2106 32.9624 16.2571 33.1942 16.2571 33.4029Z" fill="white"/>
<path d="M28.427 37.8319C28.427 37.9014 28.4038 37.9942 28.3806 38.0637C28.2645 38.3652 27.8929 38.5043 27.5909 38.3884L26.36 37.8782C25.4774 37.5072 25.0594 36.5101 25.431 35.629L26.2671 33.6116C26.3832 33.3565 26.2439 33.055 25.9884 32.9391L25.5936 32.7768C25.2916 32.6608 25.1523 32.2898 25.2684 31.9884C25.3845 31.6869 25.7561 31.5478 26.0581 31.6637L26.4529 31.8261C27.3355 32.1971 27.7535 33.1942 27.3819 34.0753L26.5458 36.0927C26.4993 36.2318 26.4993 36.371 26.5458 36.4869C26.5923 36.6261 26.7084 36.7188 26.8245 36.7652L28.0554 37.2753C28.2877 37.3681 28.427 37.6 28.427 37.8319Z" fill="white"/>
<path d="M38.9482 27.1653C38.9482 27.3972 38.8088 27.6291 38.5766 27.7219L37.3457 28.232C36.9276 28.4175 36.4631 28.4175 36.0218 28.232C35.6038 28.0465 35.2786 27.7219 35.0928 27.3045L34.2567 25.2871C34.2103 25.1479 34.0941 25.0552 33.978 25.0088C33.8387 24.9624 33.6993 24.9624 33.5832 25.0088L33.1884 25.1711C32.8864 25.2871 32.5381 25.1479 32.3987 24.8465C32.2594 24.545 32.4219 24.1972 32.7239 24.0581L33.1187 23.8958C34.0012 23.5248 34.9999 23.9421 35.3715 24.8233L36.2076 26.8407C36.2541 26.9798 36.3702 27.0726 36.4863 27.119C36.6024 27.1653 36.765 27.1653 36.8811 27.119L38.1121 26.6088C38.414 26.4929 38.7624 26.632 38.9017 26.9335C38.925 27.003 38.9482 27.0958 38.9482 27.1653Z" fill="white"/>
<path d="M8.36083 25.4725C8.36083 25.542 8.3376 25.6348 8.31437 25.7043L8.15179 26.0985C7.78019 26.9797 6.78151 27.3971 5.89896 27.0261L3.87837 26.1913C3.73902 26.1449 3.59967 26.1449 3.48355 26.1913C3.36742 26.2377 3.25129 26.3536 3.20484 26.4696L2.69389 27.6985C2.57776 28 2.20616 28.1391 1.90423 28.0232C1.60231 27.9072 1.46296 27.5362 1.57908 27.2348L2.09004 26.0058C2.27584 25.5884 2.60099 25.2638 3.01904 25.0783C3.4371 24.8927 3.90159 24.8927 4.34287 25.0783L6.36346 25.913C6.61894 26.029 6.92086 25.8898 7.03699 25.6348L7.19957 25.2406C7.31569 24.9391 7.68729 24.8 7.98922 24.9159C8.22147 25.0087 8.36083 25.2406 8.36083 25.4725Z" fill="white"/>
<path d="M18.4873 5.46087C18.4873 5.02029 18.6499 4.57971 18.9983 4.25507L20.5543 2.70145C20.7634 2.49275 20.7634 2.16812 20.5543 1.95942L19.6253 1.03188C19.3931 0.799999 19.3931 0.428986 19.6253 0.173913C19.8576 -0.057971 20.2292 -0.057971 20.4847 0.173913L21.4137 1.10145C22.0872 1.77391 22.0872 2.86377 21.4137 3.53623L19.8576 5.08986C19.6486 5.29855 19.6486 5.62319 19.8576 5.83188L20.1595 6.13333C20.3918 6.36522 20.3918 6.73623 20.1595 6.9913C19.9273 7.22319 19.5557 7.22319 19.3002 6.9913L18.9983 6.68985C18.6499 6.34203 18.4873 5.90145 18.4873 5.46087Z" fill="white"/>
<path d="M5.62036 6.43468C5.62036 6.11005 5.89906 5.83179 6.22422 5.83179H7.54805C8.50029 5.83179 9.26671 6.597 9.26671 7.54773V9.72744C9.26671 10.0057 9.49896 10.2376 9.77766 10.2376H10.2189C10.5441 10.2376 10.8228 10.5158 10.8228 10.8405C10.8228 11.1651 10.5441 11.4434 10.2189 11.4434H9.77766C8.82543 11.4434 8.059 10.6782 8.059 9.72744V7.54773C8.059 7.26947 7.82676 7.03758 7.54805 7.03758H6.22422C5.87584 7.03758 5.62036 6.78251 5.62036 6.43468Z" fill="white"/>
<path d="M33.2119 19.6986C33.2119 19.8609 33.2816 20 33.3977 20.116C33.63 20.3479 34.0016 20.3479 34.257 20.116L34.559 19.8145C34.6519 19.7218 34.7912 19.6522 34.9306 19.6522C35.0699 19.6522 35.2093 19.6986 35.3022 19.8145L36.8583 21.3682C37.5318 22.0406 38.6234 22.0406 39.2969 21.3682L40.2259 20.4406C40.4581 20.2087 40.4581 19.8377 40.2259 19.5826C39.9936 19.3508 39.622 19.3508 39.3666 19.5826L38.4376 20.5102C38.2285 20.7189 37.9034 20.7189 37.6944 20.5102L36.1383 18.9566C35.8131 18.6319 35.3718 18.4464 34.9306 18.4464C34.4661 18.4464 34.048 18.6319 33.7229 18.9566L33.4209 19.258C33.2584 19.3971 33.2119 19.5363 33.2119 19.6986Z" fill="white"/>
<path d="M0 20.3247C0 20.1624 0.069676 20.0233 0.185801 19.9073L1.11481 18.9798C1.78833 18.3073 2.87991 18.3073 3.55344 18.9798L5.10952 20.5334C5.31855 20.7421 5.6437 20.7421 5.85272 20.5334L6.15465 20.232C6.3869 20.0001 6.7585 20.0001 7.01398 20.232C7.24623 20.4639 7.24623 20.8349 7.01398 21.09L6.71205 21.3914C6.3869 21.716 5.94562 21.9016 5.50435 21.9016C5.06307 21.9016 4.6218 21.716 4.29665 21.3914L2.74056 19.8378C2.53154 19.6291 2.20638 19.6291 1.99736 19.8378L1.06835 20.7653C0.836101 20.9972 0.464504 20.9972 0.209028 20.7653C0.0464523 20.6262 0 20.4639 0 20.3247Z" fill="white"/>
<path d="M28.8918 10.2145V9.7739C28.8918 8.82317 29.6583 8.05795 30.6105 8.05795H32.7937C33.0724 8.05795 33.3046 7.82607 33.3046 7.54781V6.22607C33.3046 5.90143 33.5833 5.62317 33.9085 5.62317C34.2336 5.62317 34.5123 5.90143 34.5123 6.22607V7.54781C34.5123 8.49853 33.7459 9.26375 32.7937 9.26375H30.6105C30.3318 9.26375 30.0995 9.49564 30.0995 9.7739V10.2145C30.0995 10.5391 29.8209 10.8174 29.4957 10.8174C29.1705 10.8174 28.8918 10.5391 28.8918 10.2145Z" fill="white"/>
<path d="M24.1078 6.5739C24.1078 6.34202 24.1542 6.13332 24.2471 5.92462C24.4329 5.50723 24.7581 5.1826 25.1761 4.99709L27.1967 4.16231C27.4522 4.04637 27.5916 3.74491 27.4754 3.48984L26.9645 2.26086C26.8251 1.95941 26.9877 1.61158 27.2896 1.47245C27.5916 1.35651 27.9399 1.49564 28.0793 1.79709L28.5902 3.02607C28.9618 3.90723 28.5438 4.90433 27.6612 5.27535L25.6406 6.11013C25.5013 6.15651 25.4084 6.27245 25.3619 6.38839C25.3155 6.50433 25.3155 6.66665 25.3619 6.78259L25.5245 7.1768C25.6406 7.47825 25.5013 7.82607 25.1994 7.9652C24.8974 8.08115 24.5491 7.94202 24.4097 7.64057L24.2471 7.24636C24.1542 7.01448 24.1078 6.80578 24.1078 6.5739Z" fill="white"/>
<path d="M11.9375 2.14494C11.9375 2.07537 11.9607 1.98262 11.9839 1.91305C12.1001 1.6116 12.4717 1.47248 12.7736 1.58842L14.0045 2.09856C14.8871 2.46958 15.3052 3.46668 14.9335 4.34784L14.0974 6.36523C13.9813 6.6203 14.1207 6.92175 14.3761 7.03769L14.771 7.20001C15.0729 7.31595 15.2123 7.68697 15.0961 7.98842C14.98 8.28987 14.6084 8.429 14.3065 8.31306L13.9116 8.15074C13.0291 7.77972 12.611 6.78262 12.9826 5.90146L13.8187 3.88407C13.8652 3.74494 13.8652 3.60581 13.8187 3.48987C13.7723 3.35074 13.6562 3.25798 13.54 3.21161L12.3091 2.70146C12.0769 2.60871 11.9375 2.37682 11.9375 2.14494Z" fill="white"/>
<path d="M1.41663 12.8348C1.41663 12.6029 1.55598 12.3711 1.78823 12.2783L3.01917 11.7682C3.43722 11.5827 3.90172 11.5827 4.34299 11.7682C4.76105 11.9537 5.0862 12.2783 5.272 12.6957L6.10811 14.7131C6.15456 14.8522 6.27069 14.945 6.38681 14.9914C6.52616 15.0377 6.66551 15.0377 6.78163 14.9914L7.17646 14.829C7.47839 14.7131 7.82677 14.8522 7.96612 15.1537C8.10547 15.4551 7.94289 15.8029 7.64097 15.9421L7.24614 16.1044C6.36358 16.4754 5.36491 16.058 4.9933 15.1769L4.1572 13.1595C4.11075 13.0203 3.99462 12.9276 3.87849 12.8812C3.76237 12.8348 3.59979 12.8348 3.48367 12.8812L2.25273 13.3913C1.95081 13.5073 1.60243 13.3682 1.46308 13.0667C1.43985 12.974 1.41663 12.9044 1.41663 12.8348Z" fill="white"/>
<path d="M31.981 14.5276C31.981 14.458 32.0042 14.3653 32.0274 14.2957L32.19 13.9015C32.5616 13.0203 33.5603 12.6029 34.4428 12.9739L36.4634 13.8087C36.6028 13.8551 36.7421 13.8551 36.8582 13.8087C36.9744 13.7624 37.0905 13.6464 37.1369 13.5305L37.6479 12.3015C37.764 12 38.1356 11.8609 38.4375 11.9768C38.7395 12.0928 38.8788 12.4638 38.7627 12.7653L38.2517 13.9942C38.0659 14.4116 37.7408 14.7363 37.3227 14.9218C36.9047 15.1073 36.4402 15.1073 35.9989 14.9218L33.9783 14.087C33.7228 13.971 33.4209 14.1102 33.3048 14.3653L33.1422 14.7595C33.0261 15.0609 32.6545 15.2 32.3526 15.0841C32.1203 14.9913 31.981 14.7595 31.981 14.5276Z" fill="white"/>
</svg>
