<svg width="99" height="116" viewBox="0 0 99 116" fill="none" xmlns="http://www.w3.org/2000/svg">
<path d="M37.3963 45.6181C37.3963 51.5239 37.3963 57.0078 37.3963 62.3944C35.1316 62.6865 32.8993 62.7514 30.7963 63.2706C23.1287 65.1202 17.7581 72.2591 17.7904 80.2741C17.8228 88.4838 23.1934 95.4605 30.9904 97.3426C41.1169 99.8087 51.0493 93.7406 53.2816 83.6813C53.6051 82.1562 53.7022 80.5662 53.7022 79.0086C53.7669 53.5357 53.7669 28.0629 53.7993 2.59002C53.7993 2.10328 53.7993 1.64899 53.7993 1C54.7375 1 55.514 1 56.3228 1C60.464 1 64.6375 1 68.7787 1C69.6198 1 70.1375 1.09735 70.2993 2.13573C72.3699 15.5698 81.914 25.3696 95.3081 27.8682C98.0257 28.3874 98.0257 28.3874 98.0581 31.2105C98.0581 35.9806 98.0581 40.7182 98.0581 45.4883C98.0581 45.975 98.0257 46.4293 97.9934 47.0458C86.2493 47.8895 77.1581 43.2817 70.0404 33.774C69.9757 34.423 69.911 34.8448 69.911 35.2991C69.911 49.512 69.814 63.7249 69.9434 77.9702C70.0404 88.062 67.2257 97.018 60.1404 104.352C54.6081 110.095 47.814 113.502 39.9522 114.573C30.3434 115.871 21.6728 113.373 14.1022 107.434C7.11397 101.918 2.77868 94.6817 1.45221 85.7905C-0.0360214 75.9583 2.13162 67.0023 8.21398 59.1495C13.9081 51.8159 21.414 47.3703 30.6346 46.1372C32.7699 45.8128 35.0346 45.7803 37.3963 45.6181Z" stroke="white" stroke-miterlimit="10"/>
</svg>
