<svg width="87" height="87" viewBox="0 0 87 87" fill="none" xmlns="http://www.w3.org/2000/svg">
<g clip-path="url(#clip0)">
<path d="M59.929 23.7975L60.3899 33.425H59.2375C59.0071 31.7206 58.7305 30.5229 58.3156 29.7859C57.6703 28.6343 56.8405 27.759 55.8264 27.2062C54.7662 26.6535 53.4294 26.3771 51.7239 26.3771H45.9158V57.7933C45.9158 60.3268 46.1923 61.8931 46.7455 62.538C47.5291 63.3671 48.6815 63.8278 50.2949 63.8278H51.7239V64.9333H34.2535V63.8278H35.7285C37.4802 63.8278 38.7248 63.3211 39.4162 62.2616C39.8772 61.6167 40.0616 60.1426 40.0616 57.8393V26.4231H35.1293C33.1932 26.4231 31.8565 26.5613 31.0267 26.8377C29.9665 27.2063 29.0907 27.9433 28.3071 29.0488C27.5695 30.1544 27.1086 31.6285 26.9703 33.4711H25.8179L26.3249 23.8435H59.929V23.7975Z" fill="#ffffff"/>
<path d="M43.1039 86.5838C41.4906 86.5838 39.8772 86.4917 38.2638 86.3074C37.7568 86.2614 37.388 85.8007 37.4341 85.294C37.4802 84.7873 37.9412 84.4188 38.4482 84.4648C41.721 84.8333 45.0861 84.7873 48.3589 84.3727C48.8659 84.3266 49.3269 84.6491 49.373 85.1558C49.4191 85.6625 49.0964 86.1231 48.5894 86.1692C46.7916 86.4456 44.9478 86.5838 43.1039 86.5838ZM28.5376 84.0042C28.4454 84.0042 28.3071 84.0042 28.2149 83.9581C24.9882 82.7604 21.8997 81.1942 18.9957 79.2595C18.5808 78.9831 18.4425 78.3843 18.7652 77.9697C19.0418 77.5551 19.641 77.4169 20.0559 77.7394C22.8216 79.582 25.7718 81.1021 28.8602 82.2537C29.3212 82.438 29.5978 82.9447 29.4134 83.4514C29.2751 83.7738 28.9063 84.0042 28.5376 84.0042ZM58.3156 83.7738C57.9469 83.7738 57.5781 83.5435 57.4398 83.175C57.2554 82.7144 57.4859 82.1616 57.9469 81.9773C61.0353 80.7796 63.9394 79.2134 66.659 77.3248C67.0739 77.0484 67.6731 77.1405 67.9497 77.5551C68.2263 77.9697 68.1341 78.5685 67.7192 78.8449C64.8613 80.8257 61.8189 82.438 58.5922 83.6817C58.5 83.7278 58.4078 83.7738 58.3156 83.7738ZM11.8969 72.7644C11.6664 72.7644 11.3898 72.6722 11.2054 72.4419C8.90062 69.8623 6.87239 67.0523 5.21293 64.012C4.98245 63.5514 5.12074 62.9986 5.5817 62.7683C6.04266 62.538 6.59581 62.6762 6.82629 63.1368C8.39356 66.0389 10.3296 68.7567 12.5422 71.1982C12.8649 71.5667 12.8649 72.1655 12.4961 72.488C12.3117 72.6722 12.1273 72.7644 11.8969 72.7644ZM74.7719 72.2577C74.5415 72.2577 74.3571 72.1655 74.1727 72.0273C73.8039 71.7049 73.7578 71.106 74.0805 70.7375C76.247 68.25 78.1369 65.5322 79.7042 62.584C79.9347 62.1234 80.4879 61.9391 80.9488 62.2155C81.4098 62.4458 81.5942 62.9986 81.3176 63.4593C79.7042 66.4995 77.7682 69.3556 75.4634 71.9813C75.279 72.1655 75.0024 72.2577 74.7719 72.2577ZM2.30888 55.1215C1.89402 55.1215 1.52525 54.8452 1.43305 54.4306C0.557228 51.1139 0.096267 47.659 0.0501709 44.2042C0.0501709 43.6975 0.465036 43.2829 0.972093 43.2829C1.47915 43.2829 1.89401 43.6975 1.89401 44.2042C1.94011 47.5208 2.40108 50.8375 3.23081 54.016C3.36909 54.5227 3.04642 55.0294 2.58546 55.1215C2.49326 55.0755 2.40108 55.1215 2.30888 55.1215ZM84.0833 54.4766C83.9911 54.4766 83.9451 54.4766 83.8529 54.4306C83.3458 54.2924 83.0692 53.8317 83.1614 53.325C83.9451 50.1465 84.3599 46.8299 84.3599 43.5132C84.3599 43.0986 84.3599 42.6841 84.3599 42.2695C84.3599 41.7628 84.7287 41.3482 85.2357 41.3021C85.7428 41.3021 86.1577 41.6706 86.2038 42.1773C86.2038 42.5919 86.2038 43.0526 86.2038 43.5132C86.2038 46.9681 85.7889 50.4229 84.9592 53.7857C84.867 54.2002 84.4982 54.4766 84.0833 54.4766ZM2.0323 35.0373C1.98621 35.0373 1.89402 35.0373 1.84792 34.9912C1.34087 34.8991 1.01819 34.3924 1.15648 33.8857C1.94011 30.5229 3.09251 27.2523 4.65978 24.166C4.89026 23.7054 5.44341 23.5211 5.90437 23.7514C6.36533 23.9817 6.54972 24.5345 6.31924 24.9952C4.84417 27.9433 3.69176 31.0757 2.95423 34.3003C2.81594 34.7609 2.44717 35.0373 2.0323 35.0373ZM83.7146 33.1486C83.2997 33.1486 82.9309 32.8722 82.8387 32.4577C81.9629 29.2792 80.6722 26.1929 79.0589 23.3368C78.8284 22.8762 78.9667 22.3234 79.4276 22.0931C79.8886 21.8628 80.4418 22.001 80.6722 22.4616C82.3778 25.4558 83.7146 28.6804 84.6365 31.997C84.7748 32.5037 84.4982 33.0104 83.9911 33.1486C83.899 33.1486 83.8068 33.1486 83.7146 33.1486ZM11.021 17.1181C10.7906 17.1181 10.6062 17.026 10.4218 16.8878C10.053 16.5653 10.0069 15.9665 10.3296 15.5979C12.5883 12.9723 15.1236 10.6229 17.9355 8.5961C18.3503 8.31971 18.9035 8.41184 19.2261 8.82642C19.5027 9.24101 19.4105 9.79379 18.9957 10.1162C16.3221 12.051 13.879 14.3081 11.7125 16.7956C11.5742 16.9799 11.2976 17.1181 11.021 17.1181ZM73.8961 15.6901C73.6656 15.6901 73.389 15.5979 73.2047 15.4137C70.946 13.0183 68.4107 10.8533 65.6449 9.05675C65.23 8.78036 65.0918 8.22758 65.3683 7.76693C65.6449 7.35235 66.1981 7.21416 66.659 7.49055C69.5631 9.3792 72.1906 11.6364 74.5875 14.1239C74.9563 14.4924 74.9102 15.0912 74.5415 15.4137C74.3571 15.5979 74.1266 15.6901 73.8961 15.6901ZM27.3391 5.37156C26.9703 5.37156 26.6476 5.14124 26.4632 4.77272C26.2788 4.31207 26.5093 3.7593 26.9703 3.57504C30.1509 2.28522 33.5159 1.36393 36.9731 0.903279C37.4802 0.811149 37.9412 1.17967 38.0334 1.68638C38.1255 2.19309 37.7568 2.65374 37.2497 2.74587C33.9769 3.20652 30.7502 4.08175 27.7078 5.3255C27.5695 5.37156 27.4312 5.37156 27.3391 5.37156ZM57.071 4.68059C56.9788 4.68059 56.8867 4.68059 56.7484 4.63452C53.6138 3.52897 50.3871 2.838 47.0682 2.51555C46.5611 2.46948 46.1924 2.00884 46.2385 1.50212C46.2845 0.99541 46.7455 0.62689 47.2526 0.672955C50.7098 0.995408 54.0748 1.73245 57.3476 2.88407C57.8086 3.06833 58.0852 3.57504 57.9008 4.03569C57.8086 4.45027 57.4859 4.68059 57.071 4.68059Z" fill="#ffffff"/>
</g>
</svg>
