<svg width="87" height="70" viewBox="0 0 87 70" fill="none" xmlns="http://www.w3.org/2000/svg">
<path d="M41.1139 21.4952C41.5268 18.4257 41.6448 15.6512 42.2346 13.0539C44.8301 2.25132 55.0348 -2.64821 66.0064 1.42489C66.1833 1.48392 66.3603 1.60198 66.5372 1.72004C71.1972 5.3209 76.0341 4.02223 80.9301 2.42841C81.8149 2.13326 82.6997 2.01519 84.0564 2.36937C82.5817 4.61253 81.166 6.85569 79.5144 9.33497C81.9328 9.09885 83.9384 8.86273 86.7108 8.62661C83.9974 11.401 81.6969 13.5852 79.6324 16.0054C78.8065 17.0089 78.0397 18.4847 78.0397 19.7834C77.6858 50.2431 51.2596 73.265 21.0583 69.3689C14.6288 68.5425 8.67108 66.5945 3.06732 63.3479C2.18251 62.8166 1.41569 61.9901 0 60.8095C4.83693 60.4553 8.84804 60.5734 12.6232 59.806C16.3984 59.0386 19.9376 57.2677 23.6538 55.5558C17.4011 52.7224 11.7974 49.6528 10.0278 42.274C11.3255 42.1559 12.3873 42.0969 14.3338 41.9198C6.72451 37.6106 3.00833 31.6485 3.36225 23.2662C5.13186 24.0336 6.7835 24.801 8.49412 25.5093C3.30327 18.4257 2.06455 11.1649 6.13464 3.19581C15.9855 12.9358 26.4261 21.2591 41.1139 21.4952ZM42.9425 22.971C35.864 23.7384 29.3165 22.1446 23.4178 18.6618C17.5781 15.238 12.2103 10.9878 6.60653 7.09181C5.13186 10.6336 4.9549 14.6477 6.90147 18.2486C8.73006 21.6723 11.3845 24.6239 13.8029 27.9296C11.1485 27.5164 8.43513 27.1031 5.54478 26.6899C5.60376 27.3983 5.60376 28.0476 5.72173 28.697C7.13742 34.659 11.1485 38.2599 16.5163 40.6801C17.1062 40.9753 17.5781 41.6246 18.109 42.1559C17.5191 42.5101 16.9882 43.0414 16.3394 43.2775C15.2186 43.6317 14.0979 43.8088 12.6822 44.0449C13.9799 47.2916 16.2804 49.5347 19.2297 50.9515C22.0611 52.3682 25.1284 53.3127 28.3727 54.5523C21.7662 59.3928 14.5108 62.2263 5.4268 62.3443C6.48856 62.9937 6.7835 63.1708 7.13742 63.3479C16.9293 68.1883 27.193 69.1328 37.8106 66.9487C58.1611 62.7575 73.0848 46.9374 75.9162 26.3948C76.624 21.1411 75.5622 15.179 81.343 11.8142C81.402 11.7552 81.343 11.4601 81.343 11.2239C79.6323 11.342 77.9807 11.401 75.8572 11.5191C77.5088 9.09885 78.9245 7.03279 80.5761 4.67157C79.6913 4.78963 79.1605 4.73059 78.7476 4.90769C74.5005 6.6786 70.5484 6.50151 66.6552 3.72708C65.5935 2.95968 64.1188 2.78259 62.7621 2.42841C53.973 0.244281 46.1278 4.78962 44.0632 13.5261C43.2374 16.4777 43.2964 19.6063 42.9425 22.971Z" fill="white"/>
</svg>
