<svg width="102" height="80" viewBox="0 0 102 80" fill="none" xmlns="http://www.w3.org/2000/svg">
<path d="M31.5969 79.5917C30.3763 79.5917 31.2714 79.5377 30.6475 79.5377C27.2841 79.5647 23.9478 79.5377 20.5844 79.5377C19.3096 79.5377 19.2554 79.4836 19.2554 78.2407C19.2554 72.9988 19.2282 67.7298 19.2825 62.4879C19.2825 61.6773 19.0384 61.3801 18.2246 61.4612C17.5465 61.5152 16.8684 61.4611 16.1632 61.4882C15.458 61.5152 15.1325 61.218 15.1867 60.5154C15.2139 60.0021 15.1867 59.4887 15.1867 58.8942C13.7492 58.8942 12.4472 58.8672 11.1181 58.9212C10.8469 58.9212 10.5485 59.1644 10.3044 59.3806C8.45994 60.8667 6.66974 62.4069 4.79817 63.8659C4.47268 64.1091 3.95732 64.2983 3.60471 64.2172C3.41484 64.1632 3.22497 63.5417 3.22497 63.1634C3.19785 58.2457 3.19785 53.3281 3.22497 48.3834C3.22497 47.924 3.52334 47.4647 3.68608 47.0324C4.09294 47.2215 4.58118 47.3296 4.93379 47.5998C6.77824 49.0859 8.59556 50.599 10.44 52.0851C10.6299 52.2473 10.874 52.4364 11.1181 52.4364C12.4472 52.4634 13.7763 52.4634 15.2139 52.4634C15.2139 51.842 15.241 51.3286 15.2139 50.8422C15.1867 50.1397 15.5393 49.8425 16.2175 49.8425C17.1939 49.8425 18.1704 49.8425 19.3096 49.8425C19.3096 47.6809 19.391 45.6273 19.2825 43.5738C19.1197 40.4124 19.0655 40.4394 22.1576 40.4394C23.9207 40.4394 25.6567 40.4394 27.474 40.4394C27.474 39.6018 27.474 38.9263 27.474 38.2238C13.8577 43.3036 2.49262 34.1167 0.43118 24.1192C-1.9015 12.8248 5.47628 2.17883 16.6243 0.341457C27.7452 -1.49592 39.3544 6.71822 39.707 19.769C40.358 19.769 41.0361 19.823 41.7142 19.742C41.8769 19.7149 42.1482 19.3367 42.1482 19.0935C42.6635 11.0685 46.5423 5.20509 53.8387 1.88161C60.5384 -1.17168 67.1024 -0.442129 73.2054 3.58388C81.7495 9.20408 84.4077 21.2821 78.9828 29.9556C74.4259 37.224 67.7263 40.3584 59.2093 39.4397C57.5818 39.2776 55.9815 38.7101 54.3541 38.3319C54.3541 38.9263 54.3541 39.6018 54.3541 40.4124C54.7067 40.4124 55.0593 40.4124 55.3848 40.4124C59.4534 40.4124 63.522 40.4124 67.5907 40.4124C68.8384 40.4124 68.9197 40.4935 68.9197 41.7364C68.9197 42.3579 68.9197 42.9793 68.9197 43.5738C68.9197 43.6278 68.9469 43.7089 69.0011 43.925C70.3302 43.925 71.7407 43.925 73.124 43.925C73.4766 43.925 73.8292 43.9521 74.209 43.925C75.0498 43.871 75.3753 44.1952 75.3753 45.0599C75.3482 47.5998 75.3753 50.1127 75.3753 52.6526C75.3753 52.9768 75.3753 53.274 75.3753 53.6253C77.9521 53.8144 80.2848 53.7064 82.6175 52.5445C87.1743 50.2748 91.8668 48.2753 96.505 46.1677C97.7528 45.6003 98.9733 45.0059 100.194 44.4384C101.116 44.0061 101.523 44.2223 101.523 45.276C101.523 50.4099 101.523 55.5167 101.523 60.6505C101.523 65.271 101.523 69.9185 101.523 74.5389C101.523 75.917 101.252 76.1061 99.9498 75.5117C93.7384 72.6745 87.5269 69.8915 81.3697 67.0003C79.4168 66.0816 77.4367 66.568 75.3482 66.3788C75.3482 68.7566 75.3482 71.0263 75.3482 73.296C75.3211 76.6195 75.7279 76.0791 72.5001 76.1061C71.3609 76.1331 70.2217 76.1061 68.9197 76.1061C68.9197 76.9167 68.8926 77.6733 68.9197 78.4298C68.974 79.3215 68.6214 79.6457 67.7263 79.6187C64.4171 79.5917 61.0809 79.5917 57.7717 79.5917C57.4191 79.5917 57.0665 79.5917 56.6867 79.5917H31.5969ZM67.4279 41.8715C51.7773 41.8715 36.2351 41.8715 20.6929 41.8715C20.6929 44.5735 20.6929 47.1675 20.6929 49.8425C21.2083 49.8425 21.6152 49.8425 22.0492 49.8425C32.709 49.8425 43.3959 49.8425 54.0557 49.8425C54.6795 49.8425 55.3034 49.8425 55.9001 49.9235C59.6704 50.3558 61.9759 54.1387 60.6469 57.6783C59.7789 60.0021 57.6632 61.4611 55.0864 61.4882C44.0197 61.4882 32.926 61.4882 21.8593 61.4882C21.4795 61.4882 21.0998 61.4882 20.6929 61.4882C20.6929 67.1084 20.6929 72.5935 20.6929 78.1326C36.2894 78.1326 51.8044 78.1326 67.4008 78.1326C67.4279 66.0005 67.4279 53.9495 67.4279 41.8715ZM80.3119 19.8771C80.4475 9.98767 72.2018 1.71949 62.0573 1.55737C52.157 1.39524 43.64 9.63641 43.5044 19.4447C43.3688 29.7124 51.4789 38.0887 61.7047 38.2238C71.9034 38.3589 80.1763 30.2258 80.3119 19.8771ZM1.38053 19.3096C1.13641 28.7397 8.16157 37.8185 19.3367 38.2238C29.0472 38.575 37.6184 31.0634 38.188 20.7147C38.7305 10.7172 30.8374 2.12479 20.5844 1.58439C10.4671 1.04398 1.92301 8.93388 1.38053 19.3096ZM100.058 46.0056C98.9733 46.492 98.0511 46.9243 97.1018 47.3566C91.9211 49.7344 86.7132 52.0851 81.5054 54.4359C80.9629 54.6791 80.7459 55.0033 80.7459 55.6248C80.773 58.4349 80.8001 61.272 80.7459 64.0821C80.7188 64.8927 80.99 65.271 81.7224 65.5952C86.7132 67.8379 91.7041 70.1617 96.6949 72.4314C97.7799 72.9177 98.8648 73.3771 100.031 73.8904C100.058 64.5955 100.058 55.3816 100.058 46.0056ZM16.6514 60.0561C17.0312 60.0831 17.3295 60.1101 17.655 60.1101C30.0508 60.1101 42.4465 60.1101 54.8423 60.1101C55.0593 60.1101 55.3034 60.1101 55.5204 60.0831C57.6632 59.921 59.4263 58.1377 59.5619 56.0301C59.7518 53.247 57.7988 51.3016 54.7609 51.3016C42.3923 51.3016 30.0237 51.3016 17.655 51.3016C17.3295 51.3016 17.0312 51.3016 16.6514 51.3016C16.6514 54.2738 16.6514 57.1379 16.6514 60.0561ZM52.8622 40.3584C52.8622 39.6558 52.808 39.0614 52.8622 38.4399C52.9436 37.7374 52.6724 37.3591 52.0485 37.0079C48.6309 35.0354 45.9998 32.2793 44.2096 28.7397C42.989 26.3619 42.4194 23.849 42.0668 21.174C41.2259 21.174 40.4394 21.174 39.5985 21.174C39.49 21.9576 39.4358 22.7142 39.3001 23.4167C38.1338 29.4152 34.8246 33.9276 29.5897 37.0619C29.3456 37.224 28.9929 37.4672 28.9658 37.7104C28.8844 38.575 28.9387 39.4397 28.9387 40.3314C36.9403 40.3584 44.8063 40.3584 52.8622 40.3584ZM73.8021 74.62C73.8021 64.8117 73.8021 55.0844 73.8021 45.3841C72.1475 45.3841 70.5472 45.3841 68.9197 45.3841C68.9197 55.1654 68.9197 64.8657 68.9197 74.62C70.6014 74.62 72.1475 74.62 73.8021 74.62ZM55.0593 79.5917C47.6815 79.5917 40.358 79.5917 33.0345 79.5917H55.0593ZM4.66255 62.0826C6.3985 60.6776 8.02595 59.3806 9.59915 58.0566C10.0603 57.6783 10.1145 53.7064 9.62628 53.301C8.02595 51.95 6.3985 50.6531 4.63543 49.248C4.66255 53.5713 4.66255 57.7324 4.66255 62.0826ZM75.3753 55.1114C75.3753 58.3809 75.3753 61.5962 75.3753 64.8657C76.7044 64.8657 77.9792 64.8657 79.2812 64.8657C79.2812 61.5692 79.2812 58.3538 79.2812 55.1114C77.925 55.1114 76.6773 55.1114 75.3753 55.1114ZM11.3622 57.3541C12.6913 57.3541 13.8848 57.3541 15.1054 57.3541C15.1054 56.1652 15.1054 55.0844 15.1054 53.9495C13.8305 53.9495 12.6371 53.9495 11.3622 53.9495C11.3622 55.1114 11.3622 56.1922 11.3622 57.3541Z" fill="white"/>
</svg>
