<svg xmlns="http://www.w3.org/2000/svg" viewBox="0 0 99.6 170.01"><defs><style>.cls-1{fill:none;stroke:#c1c1c0;stroke-miterlimit:10;}.cls-2{fill:#c1c1c1;}</style></defs><title>Video_1</title><g id="Layer_2" data-name="Layer 2"><g id="Layer_1-2" data-name="Layer 1"><path class="cls-1" d="M62.41,94.08l2,4.08L59,100.72c-.1-.19-.2-.36-.28-.54q-1.29-2.7-2.56-5.4c-.37-.78-.38-.78-1.33-.67v5.5h-6V94.13c-1-.16-1-.16-1.35.61l-2.56,5.4-.29.58-5.36-2.55,1.92-4.11c-1.68-.56-2.51-1.53-2.53-2.93a3,3,0,0,1,3-3c3.89,0,7.78,0,11.67,0h8.5a3,3,0,0,1,.78,5.9Z"/><path class="cls-1" d="M60.25,101.43l3.82-1.82,21.06,44.52L81.3,146Q70.76,123.67,60.25,101.43Z"/><path class="cls-1" d="M49.69,100.87h4.23v.61q0,24,0,48c0,.51-.14.65-.63.63-1.06,0-2.11,0-3.17,0-.31,0-.48-.09-.44-.44,0-.1,0-.21,0-.32V100.87Z"/><path class="cls-1" d="M22.33,146l-3.83-1.83,21-44.51,3.8,1.8Z"/><path class="cls-1" d="M33.66,76.49H69.94a24.21,24.21,0,0,1,0,2.7,3.15,3.15,0,0,1-2.69,2.7,7.13,7.13,0,0,1-1,.07q-14.45,0-28.89,0a3.32,3.32,0,0,1-3.65-3.64Z"/><path class="cls-1" d="M.5,91.76A2.16,2.16,0,0,1,2,89.4l22-9q2.7-1.1,5.37-2.23a.6.6,0,0,1,.89.28c1,1.52,1,1.52-.47,2.52L6.47,97.17a2.41,2.41,0,0,1-3.36-.08A7.71,7.71,0,0,1,.5,91.76Z"/><path class="cls-1" d="M33.66,73.39H69.93v2.43a5.46,5.46,0,0,1-.57,0h-35c-.53,0-.7-.15-.66-.67S33.66,74,33.66,73.39Z"/><path class="cls-1" d="M49.12,151.27h5.39v15.38H49.12Z"/><path class="cls-1" d="M81.22,147.29l5-2.35,6.59,13.95-5,2.32C85.61,156.57,83.43,152,81.22,147.29Z"/><path class="cls-1" d="M15.79,161.21l-4.94-2.32,6.59-13.95,4.94,2.35Z"/><path class="cls-1" d="M27.07,138.73c.52-1.11,1-2.16,1.53-3.19.07-.14.39-.21.59-.21,3.58,0,7.16,0,10.74,0h8.54v3.41Z"/><path class="cls-1" d="M76.56,138.73H55.14v-3.41H74.33a.79.79,0,0,1,.89.56C75.63,136.81,76.09,137.73,76.56,138.73Z"/><path class="cls-1" d="M46.86,86.86v-3.7h9.9v3.7Z"/><path class="cls-1" d="M33.08,76.12c0,1.06,0,2,0,2.87a.46.46,0,0,1-.19.34c-.33.21-.69.38-1.08.59l-1.32-2.39Z"/><path class="cls-1" d="M88.92,162l3.73-1.75a2,2,0,0,1-1.05,2.27A2.13,2.13,0,0,1,88.92,162Z"/><path class="cls-1" d="M10.94,160.26,14.67,162a2.06,2.06,0,0,1-2.43.65A2.11,2.11,0,0,1,10.94,160.26Z"/><path class="cls-1" d="M53.89,168a2.15,2.15,0,0,1-2.09,1.56A2.18,2.18,0,0,1,49.71,168Z"/><path class="cls-2" d="M39.15,69.09c-1.06,0-.29,0-.83,0-2.89,0-5.79,0-8.69,0-1.1,0-1.16,0-1.16-1.13,0-4.56,0-9.12,0-13.68,0-.7-.21-1-.91-.88s-1.18,0-1.77,0-.89-.23-.86-.85c0-.44,0-.88,0-1.41-1.23,0-2.38,0-3.52,0a1.36,1.36,0,0,0-.71.39c-1.59,1.3-3.16,2.62-4.76,3.9a1.39,1.39,0,0,1-1,.31c-.18,0-.33-.6-.33-.92,0-4.28,0-8.55,0-12.83A4,4,0,0,1,15,40.8a4.84,4.84,0,0,1,1.08.5c1.6,1.29,3.18,2.61,4.76,3.91a1.22,1.22,0,0,0,.58.31c1.15,0,2.29,0,3.54,0,0-.53,0-1,0-1.41,0-.62.27-.87.87-.86.84,0,1.68,0,2.67,0,0-1.87.08-3.66,0-5.44-.14-2.74-.19-2.73,2.48-2.72h4.61V33.18A17.21,17.21,0,1,1,26.18.3a17.28,17.28,0,0,1,20,16.87,14.11,14.11,0,0,0,1.72,0c.16,0,.37-.35.39-.55.45-7,3.81-12,10.12-14.95C64.15-1,69.84-.38,75.12,3.11a17.08,17.08,0,0,1,5,22.89c-3.94,6.3-9.73,9-17.11,8.22a34.47,34.47,0,0,1-4.21-1v1.8H70.25c1.08,0,1.15.07,1.16,1.14,0,.54,0,1.07,0,1.61a2.29,2.29,0,0,0,.08.3h3.55c.31,0,.62,0,.93,0,.72-.06,1,.24,1,1,0,2.19,0,4.39,0,6.58v.86a11.52,11.52,0,0,0,6.27-.95c3.94-2,8-3.7,12-5.54,1.07-.49,2.13-1,3.2-1.5.81-.39,1.16-.18,1.16.72V64.65c0,1.19-.24,1.35-1.35.84C92.88,63,87.5,60.62,82.17,58.09c-1.7-.8-3.4-.37-5.2-.54,0,2.08,0,4,0,6,0,2.89.34,2.41-2.46,2.45-1,0-2,0-3.1,0,0,.71,0,1.37,0,2s-.26,1-1,1c-2.87,0-5.74,0-8.61,0h-1m9.32-32.72H29.74v6.93H58.6a12.24,12.24,0,0,1,1.6.07,5,5,0,0,1-.71,10H29.76V67.83H70.15ZM81.3,17.23A15.93,15.93,0,1,0,65.19,33.16,16,16,0,0,0,81.3,17.23ZM13,16.75A15.93,15.93,0,1,0,29.64,1.35,15.9,15.9,0,0,0,13,16.75ZM98.36,39.93l-2.55,1.18q-6.74,3.07-13.48,6.15a1,1,0,0,0-.64,1c0,2.45,0,4.9,0,7.34a1.22,1.22,0,0,0,.85,1.31c4.33,2,8.63,4,13,5.94.93.43,1.87.83,2.88,1.27ZM26.23,52.11c.32,0,.6,0,.87,0H59.26a5.76,5.76,0,0,0,.59,0,3.85,3.85,0,0,0,3.5-3.51c.16-2.43-1.53-4.12-4.16-4.12h-33ZM57.54,35a15.16,15.16,0,0,1,0-1.66,1.15,1.15,0,0,0-.71-1.25,17.08,17.08,0,0,1-6.79-7.17,19.44,19.44,0,0,1-1.84-6.56H46.08c-.09.69-.14,1.33-.26,2a17.19,17.19,0,0,1-8.4,11.85c-.21.13-.52.35-.53.55-.07.74,0,1.5,0,2.28ZM75.66,64.76V39.37H71.44V64.76ZM59.44,69.09h-19M15.86,53.88c1.51-1.23,2.9-2.35,4.28-3.49.4-.34.44-3.79,0-4.13-1.39-1.17-2.8-2.3-4.31-3.53ZM77,47.82v8.46h3.37V47.82Zm-55.35,2h3.24v-3H21.67Z"/><path class="cls-2" d="M40.4,69.09h19"/></g></g></svg>