<svg width="50" height="51" viewBox="0 0 50 51" fill="none" xmlns="http://www.w3.org/2000/svg">
<g filter="url(#filter0_b)">
<path d="M15.6477 18.8883C15.2403 18.8883 14.86 18.7253 14.3983 18.3722C12.9045 17.2315 11.3021 16.6883 9.6454 16.6883C8.61333 16.6883 7.55411 16.9056 6.49489 17.3402C2.58391 18.9154 0.682737 22.6091 1.41605 26.7645C2.06787 30.3768 5.5443 33.31 9.18368 33.3643C9.26516 33.3643 9.34664 33.3643 9.40096 33.3643C11.3293 33.3643 13.0675 32.794 14.5884 31.5718C14.86 31.3545 15.1588 31.2187 15.4575 31.2187C15.6748 31.2187 15.9193 31.3002 16.1637 31.4631C16.7612 31.8162 17.3587 32.1421 17.9562 32.4952C22.1388 34.8038 26.2942 37.1395 30.5039 39.3937C31.5903 39.9912 32.0249 40.5616 31.9706 41.8924C31.7533 46.4552 35.5556 50.3119 40.1999 50.3119C40.6345 50.3119 41.0962 50.2847 41.5579 50.2032C46.5281 49.4156 49.7058 44.3368 48.1848 39.5567C47.0441 35.9716 43.7307 33.6902 40.2542 33.6902C38.5703 33.6902 36.8593 34.2063 35.3384 35.3741C34.9853 35.6457 34.6322 35.7815 34.3063 35.7815C34.0347 35.7815 33.7359 35.7 33.41 35.5099C30.341 33.7717 27.2176 32.0878 24.1486 30.3768C22.3561 29.3719 20.5364 28.3941 18.7439 27.3892C17.8204 26.8732 17.6846 26.6287 17.8476 25.5967C17.8747 25.2979 17.9019 24.9992 17.8476 24.6732C17.7389 23.6955 17.8476 23.4511 18.7167 22.9894C19.8574 22.3918 21.0253 21.7943 22.166 21.1697C25.914 19.187 29.6892 17.2315 33.4372 15.2489C33.7088 15.1131 33.9532 15.0316 34.1705 15.0316C34.4964 15.0316 34.8223 15.1674 35.1482 15.439C36.642 16.5797 38.2987 17.2587 40.2271 17.2858C40.8789 17.2044 41.5579 17.15 42.2097 16.9871C46.7182 15.8192 49.2712 11.7181 48.3749 7.12816C47.696 3.51594 44.1924 0.609863 40.5258 0.609863C37.8099 0.609863 35.5285 1.56045 33.7903 3.70606C32.378 5.44427 31.7533 7.39976 32.0249 9.62684C32.1064 10.17 31.8619 10.6046 31.3731 10.849C30.8027 11.1478 30.2595 11.4465 29.6892 11.7453C25.3436 14.0267 21.0253 16.2809 16.7069 18.5895C16.3267 18.7796 15.9736 18.8883 15.6477 18.8883Z" stroke="#C1C1C1" stroke-miterlimit="10"/>
</g>
<defs>
<filter id="filter0_b" x="-3.23853" y="-3.89014" width="56.3064" height="58.702" filterUnits="userSpaceOnUse" color-interpolation-filters="sRGB">
<feFlood flood-opacity="0" result="BackgroundImageFix"/>
<feGaussianBlur in="BackgroundImage" stdDeviation="2"/>
<feComposite in2="SourceAlpha" operator="in" result="effect1_backgroundBlur"/>
<feBlend mode="normal" in="SourceGraphic" in2="effect1_backgroundBlur" result="shape"/>
</filter>
</defs>
</svg>
